{"glyphs":{"0":{"ha":700,"x_min":46,"x_max":665,"o":"m 435 872 q 665 600 665 872 q 619 284 665 424 q 485 65 572 144 q 282 -14 399 -14 q 107 55 168 -14 q 46 278 46 124 q 93 581 46 446 q 228 794 140 715 q 435 872 317 872 m 314 119 q 432 170 378 119 q 517 316 486 221 q 549 536 549 411 q 513 696 549 651 q 401 740 476 740 q 274 685 328 740 q 193 538 221 631 q 165 335 165 446 q 205 166 165 213 q 314 119 244 119 z "},"1":{"ha":700,"x_min":18,"x_max":604,"o":"m 604 60 l 593 0 l 18 0 l 29 60 l 249 99 l 363 740 l 143 740 l 156 801 l 538 857 l 403 97 l 604 60 z "},"2":{"ha":700,"x_min":-17,"x_max":664,"o":"m -17 88 l 328 388 q 454 529 418 467 q 490 661 490 592 q 458 737 490 708 q 364 765 425 765 q 271 753 317 765 q 164 717 225 740 l 135 793 q 231 835 194 821 q 319 861 267 850 q 439 872 372 872 q 664 686 664 872 q 601 499 664 588 q 403 301 539 411 l 147 97 l 481 115 l 539 188 l 614 189 l 567 0 l -3 0 l -17 88 z "},"3":{"ha":700,"x_min":6,"x_max":621,"o":"m 388 872 q 563 831 504 872 q 621 711 621 790 q 561 568 621 631 q 414 468 501 506 q 539 401 494 450 q 583 285 583 353 q 535 126 583 193 q 401 23 488 58 q 203 -12 315 -12 q 89 -10 128 -12 q 6 6 50 -7 l 21 88 q 169 76 94 76 q 349 128 279 76 q 418 282 418 181 q 360 384 418 358 q 203 410 303 410 l 203 482 q 394 555 332 500 q 457 688 457 610 q 431 752 457 732 q 346 772 404 772 q 151 725 268 772 l 131 797 q 258 851 192 831 q 388 872 325 872 z "},"4":{"ha":700,"x_min":-18,"x_max":642,"o":"m 333 0 l 365 185 l -10 185 l -18 250 l 514 864 l 633 851 l 531 278 l 642 278 l 625 185 l 515 185 l 482 0 l 333 0 m 128 278 l 382 278 l 447 649 l 128 278 z "},"5":{"ha":700,"x_min":8,"x_max":667,"o":"m 649 747 l 294 747 l 246 549 q 534 481 457 544 q 611 311 611 417 q 564 142 611 217 q 428 26 517 68 q 218 -17 339 -17 q 8 4 96 -17 l 28 94 q 105 80 71 83 q 200 76 139 76 q 374 136 304 76 q 444 299 444 196 q 414 392 444 357 q 315 442 383 426 q 132 457 247 457 l 118 494 l 215 851 l 667 851 l 649 747 z "},"6":{"ha":700,"x_min":49,"x_max":644,"o":"m 281 -18 q 101 50 154 -18 q 49 229 49 118 q 126 533 49 393 q 330 765 204 674 q 596 879 456 856 l 606 814 q 382 681 476 775 q 244 456 288 588 q 334 510 286 490 q 449 531 382 531 q 598 478 551 531 q 644 339 644 426 q 614 179 644 260 q 502 40 583 99 q 281 -18 421 -18 m 313 69 q 441 140 399 69 q 483 322 483 211 q 465 408 483 378 q 396 438 446 438 q 222 347 310 438 q 208 232 208 288 q 231 110 208 151 q 313 69 254 69 z "},"7":{"ha":700,"x_min":86,"x_max":706,"o":"m 139 851 l 685 851 l 706 796 l 225 -43 l 86 4 l 563 740 l 119 740 l 139 851 z "},"8":{"ha":700,"x_min":43,"x_max":669,"o":"m 278 -17 q 96 28 149 -17 q 43 151 43 72 q 103 308 43 231 q 253 433 164 385 q 175 515 204 467 q 146 624 146 564 q 182 748 146 692 q 289 838 218 804 q 458 872 360 872 q 617 827 565 872 q 669 708 669 782 q 622 585 669 649 q 468 461 575 521 q 603 247 603 365 q 565 115 603 175 q 455 19 528 56 q 278 -17 382 -17 m 399 507 q 504 594 471 549 q 538 693 538 639 q 514 767 538 740 q 432 793 490 793 q 328 759 371 793 q 285 664 285 725 q 310 585 285 622 q 399 507 336 549 m 299 65 q 414 103 368 65 q 460 204 460 140 q 427 295 460 254 q 319 388 394 336 q 220 290 256 346 q 185 172 185 233 q 214 90 185 115 q 299 65 243 65 z "},"9":{"ha":700,"x_min":68,"x_max":663,"o":"m 68 42 q 250 104 164 56 q 396 227 336 153 q 476 388 456 301 q 271 324 382 324 q 115 381 161 324 q 68 549 68 439 q 101 685 68 610 q 211 816 133 760 q 414 872 289 872 q 600 798 538 872 q 663 607 663 724 q 579 269 663 411 q 361 54 496 128 q 78 -22 226 -19 l 68 42 m 335 422 q 414 438 378 422 q 494 479 450 453 q 510 629 510 551 q 481 745 510 707 q 383 783 451 783 q 269 724 313 783 q 225 572 225 665 q 335 422 225 422 z "},"\u0000":{"ha":0,"x_min":0,"x_max":0,"o":""},"\r":{"ha":231,"x_min":0,"x_max":0,"o":""}," ":{"ha":231,"x_min":0,"x_max":0,"o":""},"A":{"ha":772,"x_min":-62,"x_max":747,"o":"m 472 247 l 226 247 l 143 85 l 228 58 l 215 0 l -62 0 l -51 57 l 46 86 l 443 853 l 538 871 l 660 88 l 747 57 l 736 0 l 396 0 l 406 58 l 496 82 l 472 247 m 264 321 l 461 321 l 418 619 l 264 321 z "},"Á":{"ha":792,"x_min":-62,"x_max":746,"o":"m 381 889 l 349 929 l 565 1111 l 690 1067 l 690 1038 l 381 889 m -62 0 l -53 57 l 44 86 l 443 853 l 538 871 l 660 88 l 746 57 l 735 0 l 396 0 l 406 58 l 496 82 l 472 247 l 225 247 l 142 85 l 228 58 l 215 0 l -62 0 m 264 321 l 461 321 l 418 619 l 264 321 z "},"Ă":{"ha":792,"x_min":-62,"x_max":746,"o":"m 489 913 q 347 1036 347 913 q 357 1093 347 1054 l 425 1093 q 421 1069 421 1083 q 438 1024 422 1040 q 503 1008 454 1008 q 591 1031 565 1008 q 625 1093 617 1053 l 690 1093 q 628 962 674 1011 q 489 913 583 913 m -62 0 l -53 57 l 44 86 l 443 853 l 538 871 l 660 88 l 746 57 l 735 0 l 396 0 l 406 58 l 496 82 l 472 247 l 225 247 l 142 85 l 228 58 l 215 0 l -62 0 m 264 321 l 461 321 l 418 619 l 264 321 z "},"Ắ":{"ha":772,"x_min":-62,"x_max":788,"o":"m 0 0 m 472 247 l 226 247 l 143 85 l 228 58 l 215 0 l -62 0 l -51 57 l 46 86 l 443 853 l 538 871 l 660 88 l 747 57 l 736 0 l 396 0 l 406 58 l 496 82 l 472 247 m 264 321 l 461 321 l 418 619 l 264 321 m 492 913 q 349 1036 349 913 q 360 1093 349 1060 l 426 1093 q 424 1069 424 1079 q 441 1024 425 1040 q 506 1008 457 1008 q 593 1031 568 1008 q 628 1093 618 1053 l 692 1093 q 631 962 675 1011 q 492 913 586 913 m 478 1083 l 446 1124 l 661 1306 l 788 1261 l 788 1232 l 478 1083 z "},"Ặ":{"ha":772,"x_min":-62,"x_max":747,"o":"m 0 0 m 472 247 l 226 247 l 143 85 l 228 58 l 215 0 l -62 0 l -51 57 l 46 86 l 443 853 l 538 871 l 660 88 l 747 57 l 736 0 l 396 0 l 406 58 l 496 82 l 472 247 m 264 321 l 461 321 l 418 619 l 264 321 m 289 -56 q 358 -85 328 -56 q 388 -153 388 -114 q 358 -219 388 -192 q 289 -247 329 -247 q 222 -219 250 -247 q 193 -153 193 -192 q 222 -85 193 -114 q 289 -56 250 -56 m 492 913 q 349 1036 349 913 q 360 1093 349 1060 l 426 1093 q 424 1069 424 1079 q 441 1024 425 1040 q 506 1008 457 1008 q 593 1031 568 1008 q 628 1093 618 1053 l 692 1093 q 631 962 675 1011 q 492 913 586 913 z "},"Ằ":{"ha":772,"x_min":-62,"x_max":747,"o":"m 0 0 m 472 247 l 226 247 l 143 85 l 228 58 l 215 0 l -62 0 l -51 57 l 46 86 l 443 853 l 538 871 l 660 88 l 747 57 l 736 0 l 396 0 l 406 58 l 496 82 l 472 247 m 264 321 l 461 321 l 418 619 l 264 321 m 492 913 q 349 1036 349 913 q 360 1093 349 1060 l 426 1093 q 424 1069 424 1079 q 441 1024 425 1040 q 506 1008 457 1008 q 593 1031 568 1008 q 628 1093 618 1053 l 692 1093 q 631 962 675 1011 q 492 913 586 913 m 586 1083 l 272 1232 l 276 1261 l 400 1306 l 614 1124 l 586 1083 z "},"Ẳ":{"ha":772,"x_min":-62,"x_max":747,"o":"m 0 0 m 472 247 l 226 247 l 143 85 l 228 58 l 215 0 l -62 0 l -51 57 l 46 86 l 443 853 l 538 871 l 660 88 l 747 57 l 736 0 l 396 0 l 406 58 l 496 82 l 472 247 m 264 321 l 461 321 l 418 619 l 264 321 m 492 913 q 349 1036 349 913 q 360 1093 349 1060 l 426 1093 q 424 1069 424 1079 q 441 1024 425 1040 q 506 1008 457 1008 q 593 1031 568 1008 q 628 1093 618 1053 l 692 1093 q 631 962 675 1011 q 492 913 586 913 m 508 1125 q 508 1138 507 1132 q 508 1146 508 1144 q 522 1172 510 1163 q 557 1190 533 1181 q 592 1209 581 1200 q 604 1233 604 1218 q 560 1260 604 1260 q 525 1257 553 1260 l 507 1218 l 456 1218 l 461 1292 q 581 1304 539 1304 q 669 1287 638 1304 q 700 1238 700 1269 q 644 1174 700 1193 q 615 1163 635 1169 q 583 1148 594 1157 q 571 1125 572 1139 l 508 1125 z "},"Ẵ":{"ha":772,"x_min":-62,"x_max":776,"o":"m 0 0 m 472 247 l 226 247 l 143 85 l 228 58 l 215 0 l -62 0 l -51 57 l 46 86 l 443 853 l 538 871 l 660 88 l 747 57 l 736 0 l 396 0 l 406 58 l 496 82 l 472 247 m 264 321 l 461 321 l 418 619 l 264 321 m 492 913 q 349 1036 349 913 q 360 1093 349 1060 l 426 1093 q 424 1069 424 1079 q 441 1024 425 1040 q 506 1008 457 1008 q 593 1031 568 1008 q 628 1093 618 1053 l 692 1093 q 631 962 675 1011 q 492 913 586 913 m 776 1251 q 722 1149 749 1186 q 663 1111 694 1111 q 536 1139 628 1111 q 476 1156 506 1149 q 431 1164 446 1164 q 403 1154 415 1164 q 382 1133 390 1144 q 372 1119 374 1122 l 315 1142 q 367 1243 338 1204 q 431 1282 397 1282 q 556 1254 464 1282 q 616 1237 586 1244 q 663 1229 646 1229 q 691 1240 678 1229 q 713 1260 704 1250 q 722 1275 721 1271 l 776 1251 z "},"Ǎ":{"ha":772,"x_min":-62,"x_max":747,"o":"m 0 0 m 472 247 l 226 247 l 143 85 l 228 58 l 215 0 l -62 0 l -51 57 l 46 86 l 443 853 l 538 871 l 660 88 l 747 57 l 736 0 l 396 0 l 406 58 l 496 82 l 472 247 m 264 321 l 461 321 l 418 619 l 264 321 m 360 1108 l 507 1007 l 692 1110 l 722 1072 l 543 893 l 438 893 l 319 1076 l 360 1108 z "},"Â":{"ha":792,"x_min":-62,"x_max":746,"o":"m 656 893 l 513 994 l 324 893 l 293 929 l 476 1108 l 582 1108 l 694 925 l 656 893 m 472 247 l 225 247 l 142 85 l 228 58 l 215 0 l -62 0 l -53 57 l 44 86 l 443 853 l 538 871 l 660 88 l 746 57 l 735 0 l 396 0 l 406 58 l 496 82 l 472 247 m 264 321 l 461 321 l 418 619 l 264 321 z "},"Ấ":{"ha":772,"x_min":-62,"x_max":914,"o":"m 674 957 l 631 985 l 771 1231 l 906 1231 l 914 1203 l 674 957 m 618 893 l 475 996 l 286 893 l 256 929 l 439 1108 l 544 1108 l 657 925 l 618 893 m 472 247 l 226 247 l 143 85 l 228 58 l 215 0 l -62 0 l -51 57 l 46 86 l 443 853 l 538 871 l 660 88 l 747 57 l 736 0 l 396 0 l 406 58 l 496 82 l 472 247 m 264 321 l 461 321 l 418 619 l 264 321 z "},"Ậ":{"ha":772,"x_min":-62,"x_max":747,"o":"m 0 0 m 472 247 l 226 247 l 143 85 l 228 58 l 215 0 l -62 0 l -51 57 l 46 86 l 443 853 l 538 871 l 660 88 l 747 57 l 736 0 l 396 0 l 406 58 l 496 82 l 472 247 m 264 321 l 461 321 l 418 619 l 264 321 m 289 -56 q 358 -85 328 -56 q 388 -153 388 -114 q 358 -219 388 -192 q 289 -247 329 -247 q 222 -219 250 -247 q 193 -153 193 -192 q 222 -85 193 -114 q 289 -56 250 -56 m 658 893 l 515 996 l 326 893 l 296 929 l 479 1108 l 585 1108 l 697 925 l 658 893 z "},"Ầ":{"ha":772,"x_min":-62,"x_max":747,"o":"m 678 957 l 529 1207 l 549 1231 l 651 1231 l 725 975 l 678 957 m 618 893 l 475 996 l 286 893 l 256 929 l 439 1108 l 544 1108 l 657 925 l 618 893 m 472 247 l 226 247 l 143 85 l 228 58 l 215 0 l -62 0 l -51 57 l 46 86 l 443 853 l 538 871 l 660 88 l 747 57 l 736 0 l 396 0 l 406 58 l 496 82 l 472 247 m 264 321 l 461 321 l 418 619 l 264 321 z "},"Ẩ":{"ha":772,"x_min":-62,"x_max":867,"o":"m 0 0 m 472 247 l 226 247 l 143 85 l 228 58 l 215 0 l -62 0 l -51 57 l 46 86 l 443 853 l 538 871 l 660 88 l 747 57 l 736 0 l 396 0 l 406 58 l 496 82 l 472 247 m 264 321 l 461 321 l 418 619 l 264 321 m 658 893 l 515 996 l 326 893 l 296 929 l 479 1108 l 585 1108 l 697 925 l 658 893 m 675 1051 q 674 1065 674 1058 q 675 1072 675 1071 q 688 1098 676 1089 q 724 1117 700 1107 q 759 1135 747 1126 q 771 1160 771 1144 q 726 1186 771 1186 q 692 1183 719 1186 l 674 1144 l 622 1144 l 628 1218 q 747 1231 706 1231 q 835 1213 804 1231 q 867 1164 867 1196 q 811 1100 867 1119 q 781 1090 801 1096 q 750 1074 761 1083 q 738 1051 739 1065 l 675 1051 z "},"Ẫ":{"ha":772,"x_min":-62,"x_max":785,"o":"m 0 0 m 472 247 l 226 247 l 143 85 l 228 58 l 215 0 l -62 0 l -51 57 l 46 86 l 443 853 l 538 871 l 660 88 l 747 57 l 736 0 l 396 0 l 406 58 l 496 82 l 472 247 m 264 321 l 461 321 l 418 619 l 264 321 m 658 893 l 515 996 l 326 893 l 296 929 l 479 1108 l 585 1108 l 697 925 l 658 893 m 785 1254 q 730 1151 757 1189 q 671 1114 703 1114 q 544 1142 636 1114 q 484 1159 514 1151 q 439 1167 454 1167 q 411 1157 424 1167 q 390 1136 399 1147 q 381 1122 382 1125 l 324 1144 q 376 1246 346 1207 q 439 1285 406 1285 q 564 1257 472 1285 q 624 1240 594 1247 q 671 1232 654 1232 q 699 1242 686 1232 q 721 1263 713 1253 q 731 1278 729 1274 l 785 1254 z "},"Ȁ":{"ha":772,"x_min":-62,"x_max":747,"o":"m 0 0 m 472 247 l 226 247 l 143 85 l 228 58 l 215 0 l -62 0 l -51 57 l 46 86 l 443 853 l 538 871 l 660 88 l 747 57 l 736 0 l 396 0 l 406 58 l 496 82 l 472 247 m 264 321 l 461 321 l 418 619 l 264 321 m 382 883 l 219 1100 l 224 1128 l 342 1128 l 425 910 l 382 883 m 606 883 l 443 1100 l 447 1128 l 565 1128 l 649 910 l 606 883 z "},"Ä":{"ha":792,"x_min":-62,"x_max":757,"o":"m 360 911 q 292 938 321 911 q 263 1001 263 964 q 292 1068 263 1040 q 360 1096 321 1096 q 426 1068 399 1096 q 454 1001 454 1040 q 426 938 454 964 q 360 911 399 911 m 664 911 q 595 938 624 911 q 567 1001 567 964 q 595 1068 567 1040 q 664 1096 624 1096 q 729 1068 701 1096 q 757 1001 757 1040 q 729 938 757 964 q 664 911 701 911 m -62 0 l -53 57 l 44 86 l 443 853 l 538 871 l 660 88 l 746 57 l 735 0 l 396 0 l 406 58 l 496 82 l 472 247 l 225 247 l 142 85 l 228 58 l 215 0 l -62 0 m 264 321 l 461 321 l 418 619 l 264 321 z "},"Ạ":{"ha":772,"x_min":-62,"x_max":747,"o":"m 0 0 m 472 247 l 226 247 l 143 85 l 228 58 l 215 0 l -62 0 l -51 57 l 46 86 l 443 853 l 538 871 l 660 88 l 747 57 l 736 0 l 396 0 l 406 58 l 496 82 l 472 247 m 264 321 l 461 321 l 418 619 l 264 321 m 289 -56 q 358 -85 328 -56 q 388 -153 388 -114 q 358 -219 388 -192 q 289 -247 329 -247 q 222 -219 250 -247 q 193 -153 193 -192 q 222 -85 193 -114 q 289 -56 250 -56 z "},"À":{"ha":792,"x_min":-62,"x_max":746,"o":"m 608 889 l 296 1038 l 299 1067 l 424 1111 l 638 929 l 608 889 m -62 0 l -53 57 l 44 86 l 443 853 l 538 871 l 660 88 l 746 57 l 735 0 l 396 0 l 406 58 l 496 82 l 472 247 l 225 247 l 142 85 l 228 58 l 215 0 l -62 0 m 264 321 l 461 321 l 418 619 l 264 321 z "},"Ả":{"ha":772,"x_min":-62,"x_max":747,"o":"m 0 0 m 472 247 l 226 247 l 143 85 l 228 58 l 215 0 l -62 0 l -51 57 l 46 86 l 443 853 l 538 871 l 660 88 l 747 57 l 736 0 l 396 0 l 406 58 l 496 82 l 472 247 m 264 321 l 461 321 l 418 619 l 264 321 m 478 931 q 477 944 476 938 q 478 951 478 950 q 491 977 479 968 q 526 996 503 986 q 562 1015 550 1006 q 574 1039 574 1024 q 529 1065 574 1065 q 494 1063 522 1065 l 476 1024 l 425 1024 l 431 1097 q 550 1110 508 1110 q 638 1092 607 1110 q 669 1043 669 1075 q 614 979 669 999 q 584 969 604 975 q 553 953 564 963 q 540 931 542 944 l 478 931 z "},"Ȃ":{"ha":772,"x_min":-62,"x_max":747,"o":"m 0 0 m 472 247 l 226 247 l 143 85 l 228 58 l 215 0 l -62 0 l -51 57 l 46 86 l 443 853 l 538 871 l 660 88 l 747 57 l 736 0 l 396 0 l 406 58 l 496 82 l 472 247 m 264 321 l 461 321 l 418 619 l 264 321 m 526 1106 q 668 982 668 1106 q 658 925 668 954 l 590 925 q 594 949 594 936 q 577 994 593 978 q 513 1010 561 1010 q 424 987 450 1010 q 390 925 399 964 l 325 925 q 387 1056 342 1007 q 526 1106 432 1106 z "},"Ā":{"ha":792,"x_min":-62,"x_max":746,"o":"m 317 949 l 331 1046 l 682 1046 l 668 949 l 317 949 m -62 0 l -53 57 l 44 86 l 443 853 l 538 871 l 660 88 l 746 57 l 735 0 l 396 0 l 406 58 l 496 82 l 472 247 l 225 247 l 142 85 l 228 58 l 215 0 l -62 0 m 264 321 l 461 321 l 418 619 l 264 321 z "},"Ą":{"ha":792,"x_min":-62,"x_max":749,"o":"m 419 -328 q 325 -299 354 -328 q 296 -225 296 -269 q 331 -117 296 -164 q 428 -17 365 -71 q 479 34 463 15 q 496 69 496 53 q 493 99 496 76 l 474 249 l 229 249 l 142 85 l 228 58 l 215 0 l -62 0 l -53 57 l 44 86 l 449 851 l 546 869 l 661 86 l 749 57 l 738 0 l 565 0 q 492 -31 528 0 q 433 -106 456 -61 q 410 -186 410 -150 q 467 -250 410 -250 q 550 -219 510 -250 l 575 -247 q 554 -271 575 -250 q 499 -310 533 -292 q 419 -328 464 -328 m 268 324 l 463 324 l 424 619 l 268 324 z "},"Å":{"ha":792,"x_min":-62,"x_max":746,"o":"m 494 876 q 399 903 433 876 q 365 975 365 929 q 410 1092 365 1046 q 543 1138 456 1138 q 637 1108 606 1138 q 668 1032 668 1079 q 619 920 668 964 q 494 876 571 876 m 504 936 q 560 964 544 936 q 576 1031 576 992 q 564 1065 576 1053 q 528 1078 551 1078 q 473 1050 489 1078 q 457 983 457 1022 q 467 948 457 960 q 504 936 476 936 m -62 0 l -53 57 l 44 86 l 443 853 l 538 871 l 660 88 l 746 57 l 735 0 l 396 0 l 406 58 l 496 82 l 472 247 l 225 247 l 142 85 l 228 58 l 215 0 l -62 0 m 264 321 l 461 321 l 418 619 l 264 321 z "},"Ǻ":{"ha":772,"x_min":-62,"x_max":807,"o":"m 0 0 m 472 247 l 226 247 l 143 85 l 228 58 l 215 0 l -62 0 l -51 57 l 46 86 l 443 853 l 538 871 l 660 88 l 747 57 l 736 0 l 396 0 l 406 58 l 496 82 l 472 247 m 264 321 l 461 321 l 418 619 l 264 321 m 494 876 q 399 903 433 876 q 365 975 365 929 q 411 1092 365 1046 q 544 1138 457 1138 q 637 1108 606 1138 q 668 1032 668 1079 q 619 920 668 964 q 494 876 571 876 m 504 936 q 560 964 544 936 q 576 1031 576 992 q 564 1065 576 1053 q 528 1078 551 1078 q 473 1050 489 1078 q 457 983 457 1022 q 467 948 457 960 q 504 936 476 936 m 497 1139 l 465 1179 l 681 1361 l 807 1317 l 807 1288 l 497 1139 z "},"Ã":{"ha":792,"x_min":-62,"x_max":746,"o":"m 743 1056 q 688 953 715 990 q 628 917 661 917 q 503 944 594 917 q 441 962 471 954 q 396 969 411 969 q 369 959 382 969 q 347 938 356 949 q 338 924 339 928 l 281 946 q 334 1049 304 1010 q 396 1088 364 1088 q 521 1060 429 1088 q 629 1035 604 1035 q 657 1044 644 1035 q 678 1065 669 1054 q 688 1079 686 1076 l 743 1056 m 472 247 l 225 247 l 142 85 l 228 58 l 215 0 l -62 0 l -53 57 l 44 86 l 443 853 l 538 871 l 660 88 l 746 57 l 735 0 l 396 0 l 406 58 l 496 82 l 472 247 m 264 321 l 461 321 l 418 619 l 264 321 z "},"Æ":{"ha":950,"x_min":-176,"x_max":936,"o":"m 581 435 l 717 435 l 763 526 l 821 526 l 771 265 l 713 265 l 700 361 l 571 361 l 536 89 l 756 89 l 814 218 l 879 218 l 838 0 l 240 0 l 250 57 l 371 88 l 407 361 l 233 361 l 35 85 l 121 58 l 108 0 l -176 0 l -165 57 l -68 86 l 429 772 l 350 794 l 361 851 l 936 851 l 899 656 l 832 656 l 828 765 l 624 765 l 581 435 m 417 435 l 446 656 l 286 435 l 417 435 z "},"Ǽ":{"ha":950,"x_min":-176,"x_max":936,"o":"m 0 0 m 581 435 l 717 435 l 763 526 l 821 526 l 771 265 l 713 265 l 700 361 l 571 361 l 536 89 l 756 89 l 814 218 l 879 218 l 838 0 l 240 0 l 250 57 l 371 88 l 407 361 l 233 361 l 35 85 l 121 58 l 108 0 l -176 0 l -165 57 l -68 86 l 429 772 l 350 794 l 361 851 l 936 851 l 899 656 l 832 656 l 828 765 l 624 765 l 581 435 m 417 435 l 446 656 l 286 435 l 417 435 m 536 889 l 504 929 l 719 1111 l 846 1067 l 846 1038 l 536 889 z "},"B":{"ha":767,"x_min":-19,"x_max":742,"o":"m 515 450 q 686 278 686 418 q 641 134 686 197 q 513 35 596 71 q 321 0 431 0 l -19 0 l -10 57 l 108 88 l 240 764 l 133 794 l 144 851 l 493 851 q 681 808 619 851 q 742 690 742 765 q 678 531 742 594 q 515 450 614 468 m 390 474 q 477 494 435 474 q 548 560 519 514 q 576 678 576 606 q 469 775 576 775 q 403 768 426 775 l 344 474 l 390 474 m 268 86 q 336 75 299 75 q 466 127 413 75 q 519 281 519 179 q 480 375 519 343 q 372 407 440 407 l 332 407 l 268 86 z "},"C":{"ha":724,"x_min":50,"x_max":774,"o":"m 617 31 q 495 -3 553 8 q 365 -14 438 -14 q 125 65 200 -14 q 50 297 50 144 q 107 580 50 449 q 274 791 164 711 q 539 871 385 871 q 774 836 672 871 l 721 631 l 656 631 l 651 769 q 526 786 597 786 q 355 714 422 786 q 257 529 288 642 q 226 293 226 417 q 267 126 226 179 q 406 72 308 72 q 524 89 463 72 l 576 208 l 643 208 l 617 31 z "},"Ć":{"ha":725,"x_min":43,"x_max":767,"o":"m 417 889 l 385 929 l 600 1111 l 726 1067 l 726 1038 l 417 889 m 610 31 q 490 -3 547 8 q 360 -14 432 -14 q 119 65 194 -14 q 43 297 43 144 q 100 580 43 449 q 267 791 157 711 q 532 871 378 871 q 767 836 665 871 l 714 631 l 649 631 l 646 769 q 519 786 592 786 q 349 714 415 786 q 251 529 282 642 q 221 293 221 417 q 262 126 221 179 q 399 72 303 72 q 517 89 456 72 l 569 208 l 636 208 l 610 31 z "},"Č":{"ha":725,"x_min":43,"x_max":767,"o":"m 393 1108 l 540 1007 l 724 1110 l 754 1072 l 576 893 l 469 893 l 353 1076 l 393 1108 m 610 31 q 490 -3 547 8 q 360 -14 432 -14 q 119 65 194 -14 q 43 297 43 144 q 100 580 43 449 q 267 791 157 711 q 532 871 378 871 q 767 836 665 871 l 714 631 l 649 631 l 646 769 q 519 786 592 786 q 349 714 415 786 q 251 529 282 642 q 221 293 221 417 q 262 126 221 179 q 399 72 303 72 q 517 89 456 72 l 569 208 l 636 208 l 610 31 z "},"Ç":{"ha":725,"x_min":43,"x_max":767,"o":"m 610 31 q 493 -2 550 8 q 367 -14 436 -12 l 342 -62 q 435 -85 404 -62 q 467 -147 467 -108 q 437 -231 467 -194 q 362 -286 407 -267 q 274 -306 317 -306 q 178 -287 219 -306 l 200 -243 q 249 -251 215 -251 q 316 -228 286 -251 q 346 -171 346 -206 q 327 -135 346 -149 q 268 -119 308 -121 l 264 -99 l 310 -11 q 107 78 171 0 q 43 297 43 157 q 100 580 43 449 q 267 791 157 711 q 532 871 378 871 q 767 836 665 871 l 714 631 l 649 631 l 646 769 q 519 786 592 786 q 349 714 415 786 q 251 529 282 642 q 221 293 221 417 q 262 126 221 179 q 399 72 303 72 q 517 89 456 72 l 569 208 l 636 208 l 610 31 z "},"Ĉ":{"ha":724,"x_min":50,"x_max":774,"o":"m 50 0 m 617 31 q 495 -3 553 8 q 365 -14 438 -14 q 125 65 200 -14 q 50 297 50 144 q 107 580 50 449 q 274 791 164 711 q 539 871 385 871 q 774 836 672 871 l 721 631 l 656 631 l 651 769 q 526 786 597 786 q 355 714 422 786 q 257 529 288 642 q 226 293 226 417 q 267 126 226 179 q 406 72 308 72 q 524 89 463 72 l 576 208 l 643 208 l 617 31 m 704 893 l 561 996 l 372 893 l 342 929 l 525 1108 l 631 1108 l 743 925 l 704 893 z "},"Ċ":{"ha":724,"x_min":50,"x_max":774,"o":"m 50 0 m 617 31 q 495 -3 553 8 q 365 -14 438 -14 q 125 65 200 -14 q 50 297 50 144 q 107 580 50 449 q 274 791 164 711 q 539 871 385 871 q 774 836 672 871 l 721 631 l 656 631 l 651 769 q 526 786 597 786 q 355 714 422 786 q 257 529 288 642 q 226 293 226 417 q 267 126 226 179 q 406 72 308 72 q 524 89 463 72 l 576 208 l 643 208 l 617 31 m 665 999 q 635 928 665 957 q 563 899 604 899 q 488 928 519 899 q 456 999 456 957 q 488 1072 456 1040 q 563 1103 519 1103 q 635 1072 604 1103 q 665 999 665 1040 z "},"D":{"ha":881,"x_min":-17,"x_max":853,"o":"m -7 57 l 111 88 l 243 764 l 136 794 l 147 851 l 514 851 q 769 774 685 851 q 853 560 853 697 q 797 285 853 413 q 630 78 740 157 q 365 0 519 0 l -17 0 l -7 57 m 381 75 q 546 148 479 75 q 644 333 613 221 q 676 561 676 444 q 631 722 676 671 q 492 774 586 774 q 404 765 440 774 l 272 92 q 381 75 314 75 z "},"Ǳ":{"ha":1554,"x_min":-17,"x_max":1607,"o":"m 0 0 m -7 57 l 111 88 l 243 764 l 136 794 l 147 851 l 514 851 q 769 774 685 851 q 853 560 853 697 q 797 285 853 413 q 630 78 740 157 q 365 0 519 0 l -17 0 l -7 57 m 381 75 q 546 148 479 75 q 644 333 613 221 q 676 561 676 444 q 631 722 676 671 q 492 774 586 774 q 404 765 440 774 l 272 92 q 381 75 314 75 m 1496 218 l 1443 0 l 865 0 l 851 46 l 1397 764 l 1119 764 l 1069 656 l 1001 656 l 1028 851 l 1607 851 l 1606 806 l 1060 89 l 1357 89 l 1432 218 l 1496 218 z "},"Ǆ":{"ha":1554,"x_min":-17,"x_max":1607,"o":"m 0 0 m -7 57 l 111 88 l 243 764 l 136 794 l 147 851 l 514 851 q 769 774 685 851 q 853 560 853 697 q 797 285 853 413 q 630 78 740 157 q 365 0 519 0 l -17 0 l -7 57 m 381 75 q 546 148 479 75 q 644 333 613 221 q 676 561 676 444 q 631 722 676 671 q 492 774 586 774 q 404 765 440 774 l 272 92 q 381 75 314 75 m 1496 218 l 1443 0 l 865 0 l 851 46 l 1397 764 l 1119 764 l 1069 656 l 1001 656 l 1028 851 l 1607 851 l 1606 806 l 1060 89 l 1357 89 l 1432 218 l 1496 218 m 1190 1108 l 1338 1007 l 1522 1110 l 1553 1072 l 1374 893 l 1268 893 l 1150 1076 l 1190 1108 z "},"Ð":{"ha":885,"x_min":-14,"x_max":856,"o":"m -4 57 l 115 88 l 172 382 l 78 382 l 92 456 l 186 456 l 246 764 l 139 794 l 150 851 l 517 851 q 772 774 688 851 q 856 560 856 697 q 799 285 856 413 q 633 78 743 157 q 368 0 522 0 l -14 0 l -4 57 m 385 75 q 550 149 483 75 q 649 334 617 222 q 681 561 681 446 q 635 722 681 671 q 494 774 589 774 q 407 765 443 774 l 347 456 l 476 456 l 463 382 l 332 382 l 276 92 q 385 75 318 75 z "},"Ď":{"ha":882,"x_min":-14,"x_max":857,"o":"m 457 893 l 340 1076 l 381 1108 l 528 1007 l 711 1110 l 742 1072 l 563 893 l 457 893 m -4 57 l 115 88 l 247 764 l 139 794 l 150 851 l 517 851 q 772 774 688 851 q 857 560 857 697 q 801 285 857 413 q 633 78 744 157 q 368 0 522 0 l -14 0 l -4 57 m 385 75 q 550 148 483 75 q 649 333 617 221 q 681 561 681 444 q 635 722 681 671 q 494 774 589 774 q 407 765 443 774 l 276 92 q 385 75 318 75 z "},"Đ":{"ha":885,"x_min":-11,"x_max":860,"o":"m -1 57 l 118 88 l 175 382 l 81 382 l 94 456 l 189 456 l 250 764 l 142 794 l 153 851 l 519 851 q 775 774 690 851 q 860 560 860 697 q 803 285 860 413 q 636 78 747 157 q 371 0 525 0 l -11 0 l -1 57 m 388 75 q 553 149 486 75 q 651 334 619 222 q 683 561 683 446 q 638 722 683 671 q 497 774 592 774 q 410 765 446 774 l 350 456 l 479 456 l 465 382 l 335 382 l 279 92 q 388 75 321 75 z "},"Ḍ":{"ha":881,"x_min":-17,"x_max":853,"o":"m 0 0 m -7 57 l 111 88 l 243 764 l 136 794 l 147 851 l 514 851 q 769 774 685 851 q 853 560 853 697 q 797 285 853 413 q 630 78 740 157 q 365 0 519 0 l -17 0 l -7 57 m 381 75 q 546 148 479 75 q 644 333 613 221 q 676 561 676 444 q 631 722 676 671 q 492 774 586 774 q 404 765 440 774 l 272 92 q 381 75 314 75 m 343 -56 q 412 -85 382 -56 q 442 -153 442 -114 q 413 -219 442 -192 q 343 -247 383 -247 q 276 -219 304 -247 q 247 -153 247 -192 q 276 -85 247 -114 q 343 -56 304 -56 z "},"ǲ":{"ha":1418,"x_min":-17,"x_max":1465,"o":"m 0 0 m -7 57 l 111 88 l 243 764 l 136 794 l 147 851 l 514 851 q 769 774 685 851 q 853 560 853 697 q 797 285 853 413 q 630 78 740 157 q 365 0 519 0 l -17 0 l -7 57 m 381 75 q 546 148 479 75 q 644 333 613 221 q 676 561 676 444 q 631 722 676 671 q 492 774 586 774 q 404 765 440 774 l 272 92 q 381 75 314 75 m 1257 -79 q 1182 -65 1217 -79 q 1100 -21 1147 -50 q 1035 17 1063 4 q 976 29 1007 29 q 938 17 956 29 q 910 -7 921 6 q 896 -24 899 -19 l 836 18 l 1261 561 l 961 561 l 946 696 l 1350 696 l 1406 718 l 1465 668 l 1044 139 q 1125 126 1090 139 q 1201 89 1160 113 q 1267 57 1242 67 q 1326 47 1293 47 q 1389 56 1363 47 l 1408 -15 q 1331 -62 1365 -46 q 1257 -79 1297 -79 z "},"ǅ":{"ha":1418,"x_min":-17,"x_max":1465,"o":"m 0 0 m -7 57 l 111 88 l 243 764 l 136 794 l 147 851 l 514 851 q 769 774 685 851 q 853 560 853 697 q 797 285 853 413 q 630 78 740 157 q 365 0 519 0 l -17 0 l -7 57 m 381 75 q 546 148 479 75 q 644 333 613 221 q 676 561 676 444 q 631 722 676 671 q 492 774 586 774 q 404 765 440 774 l 272 92 q 381 75 314 75 m 1257 -79 q 1182 -65 1217 -79 q 1100 -21 1147 -50 q 1035 17 1063 4 q 976 29 1007 29 q 938 17 956 29 q 910 -7 921 6 q 896 -24 899 -19 l 836 18 l 1261 561 l 961 561 l 946 696 l 1350 696 l 1406 718 l 1465 668 l 1044 139 q 1125 126 1090 139 q 1201 89 1160 113 q 1267 57 1242 67 q 1326 47 1293 47 q 1389 56 1363 47 l 1408 -15 q 1331 -62 1365 -46 q 1257 -79 1297 -79 m 1124 1018 l 1249 904 l 1417 1018 l 1456 979 l 1285 789 l 1179 789 l 1074 988 l 1124 1018 z "},"E":{"ha":740,"x_min":-17,"x_max":749,"o":"m 549 553 l 610 553 l 560 293 l 499 293 l 489 389 l 333 389 l 275 89 l 531 89 l 589 218 l 654 218 l 613 0 l -17 0 l -7 57 l 114 88 l 246 764 l 136 794 l 147 851 l 749 851 l 711 656 l 646 656 l 640 765 l 406 765 l 347 461 l 507 461 l 549 553 z "},"É":{"ha":746,"x_min":-14,"x_max":753,"o":"m 383 889 l 351 929 l 567 1111 l 693 1067 l 693 1038 l 383 889 m 553 553 l 614 553 l 564 293 l 501 293 l 493 389 l 336 389 l 278 89 l 533 89 l 592 218 l 657 218 l 617 0 l -14 0 l -4 57 l 118 88 l 249 764 l 139 794 l 150 851 l 753 851 l 715 656 l 649 656 l 644 765 l 410 765 l 350 461 l 510 461 l 553 553 z "},"Ĕ":{"ha":740,"x_min":-17,"x_max":749,"o":"m 0 0 m 549 553 l 610 553 l 560 293 l 499 293 l 489 389 l 333 389 l 275 89 l 531 89 l 589 218 l 654 218 l 613 0 l -17 0 l -7 57 l 114 88 l 246 764 l 136 794 l 147 851 l 749 851 l 711 656 l 646 656 l 640 765 l 406 765 l 347 461 l 507 461 l 549 553 m 475 913 q 332 1036 332 913 q 343 1093 332 1060 l 410 1093 q 407 1069 407 1079 q 424 1024 408 1040 q 489 1008 440 1008 q 576 1031 551 1008 q 611 1093 601 1053 l 675 1093 q 614 962 658 1011 q 475 913 569 913 z "},"Ě":{"ha":746,"x_min":-14,"x_max":753,"o":"m 354 1108 l 500 1007 l 685 1110 l 715 1072 l 536 893 l 431 893 l 314 1076 l 354 1108 m 553 553 l 614 553 l 564 293 l 501 293 l 493 389 l 336 389 l 278 89 l 533 89 l 592 218 l 657 218 l 617 0 l -14 0 l -4 57 l 118 88 l 249 764 l 139 794 l 150 851 l 753 851 l 715 656 l 649 656 l 644 765 l 410 765 l 350 461 l 510 461 l 553 553 z "},"Ê":{"ha":746,"x_min":-14,"x_max":753,"o":"m 638 893 l 494 996 l 306 893 l 276 929 l 458 1108 l 565 1108 l 678 925 l 638 893 m 553 553 l 614 553 l 564 293 l 501 293 l 493 389 l 336 389 l 278 89 l 533 89 l 592 218 l 657 218 l 617 0 l -14 0 l -4 57 l 118 88 l 249 764 l 139 794 l 150 851 l 753 851 l 715 656 l 649 656 l 644 765 l 410 765 l 350 461 l 510 461 l 553 553 z "},"Ế":{"ha":740,"x_min":-17,"x_max":897,"o":"m 657 957 l 614 985 l 754 1231 l 889 1231 l 897 1203 l 657 957 m 601 893 l 458 996 l 269 893 l 239 929 l 422 1108 l 528 1108 l 640 925 l 601 893 m 549 553 l 610 553 l 560 293 l 499 293 l 489 389 l 333 389 l 275 89 l 531 89 l 589 218 l 654 218 l 613 0 l -17 0 l -7 57 l 114 88 l 246 764 l 136 794 l 147 851 l 749 851 l 711 656 l 646 656 l 640 765 l 406 765 l 347 461 l 507 461 l 549 553 z "},"Ệ":{"ha":740,"x_min":-17,"x_max":749,"o":"m 0 0 m 549 553 l 610 553 l 560 293 l 499 293 l 489 389 l 333 389 l 275 89 l 531 89 l 589 218 l 654 218 l 613 0 l -17 0 l -7 57 l 114 88 l 246 764 l 136 794 l 147 851 l 749 851 l 711 656 l 646 656 l 640 765 l 406 765 l 347 461 l 507 461 l 549 553 m 274 -56 q 342 -85 313 -56 q 372 -153 372 -114 q 343 -219 372 -192 q 274 -247 314 -247 q 206 -219 235 -247 q 178 -153 178 -192 q 206 -85 178 -114 q 274 -56 235 -56 m 642 893 l 499 996 l 310 893 l 279 929 l 463 1108 l 568 1108 l 681 925 l 642 893 z "},"Ề":{"ha":740,"x_min":-17,"x_max":749,"o":"m 661 957 l 513 1207 l 532 1231 l 635 1231 l 708 975 l 661 957 m 601 893 l 458 996 l 269 893 l 239 929 l 422 1108 l 528 1108 l 640 925 l 601 893 m 549 553 l 610 553 l 560 293 l 499 293 l 489 389 l 333 389 l 275 89 l 531 89 l 589 218 l 654 218 l 613 0 l -17 0 l -7 57 l 114 88 l 246 764 l 136 794 l 147 851 l 749 851 l 711 656 l 646 656 l 640 765 l 406 765 l 347 461 l 507 461 l 549 553 z "},"Ể":{"ha":740,"x_min":-17,"x_max":850,"o":"m 0 0 m 549 553 l 610 553 l 560 293 l 499 293 l 489 389 l 333 389 l 275 89 l 531 89 l 589 218 l 654 218 l 613 0 l -17 0 l -7 57 l 114 88 l 246 764 l 136 794 l 147 851 l 749 851 l 711 656 l 646 656 l 640 765 l 406 765 l 347 461 l 507 461 l 549 553 m 642 893 l 499 996 l 310 893 l 279 929 l 463 1108 l 568 1108 l 681 925 l 642 893 m 658 1051 q 658 1065 657 1058 q 658 1072 658 1071 q 672 1098 660 1089 q 707 1117 683 1107 q 742 1135 731 1126 q 754 1160 754 1144 q 710 1186 754 1186 q 675 1183 703 1186 l 657 1144 l 606 1144 l 611 1218 q 731 1231 689 1231 q 819 1213 788 1231 q 850 1164 850 1196 q 794 1100 850 1119 q 765 1090 785 1096 q 733 1074 744 1083 q 721 1051 722 1065 l 658 1051 z "},"Ễ":{"ha":740,"x_min":-17,"x_max":768,"o":"m 0 0 m 549 553 l 610 553 l 560 293 l 499 293 l 489 389 l 333 389 l 275 89 l 531 89 l 589 218 l 654 218 l 613 0 l -17 0 l -7 57 l 114 88 l 246 764 l 136 794 l 147 851 l 749 851 l 711 656 l 646 656 l 640 765 l 406 765 l 347 461 l 507 461 l 549 553 m 642 893 l 499 996 l 310 893 l 279 929 l 463 1108 l 568 1108 l 681 925 l 642 893 m 768 1254 q 713 1151 740 1189 q 654 1114 686 1114 q 528 1142 619 1114 q 467 1159 497 1151 q 422 1167 438 1167 q 394 1157 407 1167 q 374 1136 382 1147 q 364 1122 365 1125 l 307 1144 q 359 1246 329 1207 q 422 1285 389 1285 q 547 1257 456 1285 q 608 1240 578 1247 q 654 1232 638 1232 q 683 1242 669 1232 q 704 1263 696 1253 q 714 1278 713 1274 l 768 1254 z "},"Ȅ":{"ha":740,"x_min":-17,"x_max":749,"o":"m 0 0 m 549 553 l 610 553 l 560 293 l 499 293 l 489 389 l 333 389 l 275 89 l 531 89 l 589 218 l 654 218 l 613 0 l -17 0 l -7 57 l 114 88 l 246 764 l 136 794 l 147 851 l 749 851 l 711 656 l 646 656 l 640 765 l 406 765 l 347 461 l 507 461 l 549 553 m 365 883 l 203 1100 l 207 1128 l 325 1128 l 408 910 l 365 883 m 589 883 l 426 1100 l 431 1128 l 549 1128 l 632 910 l 589 883 z "},"Ë":{"ha":746,"x_min":-14,"x_max":753,"o":"m 431 1001 q 402 938 431 964 q 336 911 374 911 q 267 938 297 911 q 238 1001 238 964 q 267 1068 238 1040 q 336 1096 297 1096 q 402 1068 374 1096 q 431 1001 431 1040 m 733 1001 q 705 938 733 964 q 639 911 676 911 q 570 938 599 911 q 542 1001 542 964 q 570 1068 542 1040 q 639 1096 599 1096 q 705 1068 676 1096 q 733 1001 733 1040 m 553 553 l 614 553 l 564 293 l 501 293 l 493 389 l 336 389 l 278 89 l 533 89 l 592 218 l 657 218 l 617 0 l -14 0 l -4 57 l 118 88 l 249 764 l 139 794 l 150 851 l 753 851 l 715 656 l 649 656 l 644 765 l 410 765 l 350 461 l 510 461 l 553 553 z "},"Ė":{"ha":746,"x_min":-14,"x_max":753,"o":"m 597 999 q 567 928 597 957 q 494 899 536 899 q 419 928 451 899 q 388 999 388 957 q 420 1072 388 1040 q 494 1103 453 1103 q 567 1072 536 1103 q 597 999 597 1040 m 553 553 l 614 553 l 564 293 l 501 293 l 493 389 l 336 389 l 278 89 l 533 89 l 592 218 l 657 218 l 617 0 l -14 0 l -4 57 l 118 88 l 249 764 l 139 794 l 150 851 l 753 851 l 715 656 l 649 656 l 644 765 l 410 765 l 350 461 l 510 461 l 553 553 z "},"Ẹ":{"ha":740,"x_min":-17,"x_max":749,"o":"m 0 0 m 549 553 l 610 553 l 560 293 l 499 293 l 489 389 l 333 389 l 275 89 l 531 89 l 589 218 l 654 218 l 613 0 l -17 0 l -7 57 l 114 88 l 246 764 l 136 794 l 147 851 l 749 851 l 711 656 l 646 656 l 640 765 l 406 765 l 347 461 l 507 461 l 549 553 m 274 -56 q 342 -85 313 -56 q 372 -153 372 -114 q 343 -219 372 -192 q 274 -247 314 -247 q 206 -219 235 -247 q 178 -153 178 -192 q 206 -85 178 -114 q 274 -56 235 -56 z "},"È":{"ha":746,"x_min":-14,"x_max":753,"o":"m 479 940 l 271 1046 l 311 1081 l 475 1047 l 604 921 l 479 940 m 553 553 l 614 553 l 564 293 l 501 293 l 493 389 l 336 389 l 278 89 l 533 89 l 592 218 l 657 218 l 617 0 l -14 0 l -4 57 l 118 88 l 249 764 l 139 794 l 150 851 l 753 851 l 715 656 l 649 656 l 644 765 l 410 765 l 350 461 l 510 461 l 553 553 z "},"Ẻ":{"ha":740,"x_min":-17,"x_max":749,"o":"m 0 0 m 549 553 l 610 553 l 560 293 l 499 293 l 489 389 l 333 389 l 275 89 l 531 89 l 589 218 l 654 218 l 613 0 l -17 0 l -7 57 l 114 88 l 246 764 l 136 794 l 147 851 l 749 851 l 711 656 l 646 656 l 640 765 l 406 765 l 347 461 l 507 461 l 549 553 m 461 931 q 460 944 460 938 q 461 951 461 950 q 474 977 463 968 q 510 996 486 986 q 545 1015 533 1006 q 557 1039 557 1024 q 513 1065 557 1065 q 478 1063 506 1065 l 460 1024 l 408 1024 l 414 1097 q 533 1110 492 1110 q 622 1092 590 1110 q 653 1043 653 1075 q 597 979 653 999 q 567 969 588 975 q 536 953 547 963 q 524 931 525 944 l 461 931 z "},"Ȇ":{"ha":740,"x_min":-17,"x_max":749,"o":"m 0 0 m 549 553 l 610 553 l 560 293 l 499 293 l 489 389 l 333 389 l 275 89 l 531 89 l 589 218 l 654 218 l 613 0 l -17 0 l -7 57 l 114 88 l 246 764 l 136 794 l 147 851 l 749 851 l 711 656 l 646 656 l 640 765 l 406 765 l 347 461 l 507 461 l 549 553 m 510 1106 q 651 982 651 1106 q 642 925 651 954 l 574 925 q 578 949 578 936 q 560 994 576 978 q 496 1010 544 1010 q 408 987 433 1010 q 374 925 382 964 l 308 925 q 370 1056 325 1007 q 510 1106 415 1106 z "},"Ē":{"ha":746,"x_min":-14,"x_max":753,"o":"m 329 1046 l 681 1046 l 667 949 l 317 949 l 329 1046 m 553 553 l 614 553 l 564 293 l 501 293 l 493 389 l 336 389 l 278 89 l 533 89 l 592 218 l 657 218 l 617 0 l -14 0 l -4 57 l 118 88 l 249 764 l 139 794 l 150 851 l 753 851 l 715 656 l 649 656 l 644 765 l 410 765 l 350 461 l 510 461 l 553 553 z "},"Ę":{"ha":746,"x_min":-14,"x_max":753,"o":"m 522 -328 q 428 -299 457 -328 q 399 -225 399 -269 q 438 -118 399 -178 q 556 0 476 -58 l -14 0 l -4 57 l 118 88 l 249 764 l 139 794 l 150 851 l 753 851 l 715 656 l 649 656 l 644 765 l 410 765 l 350 461 l 510 461 l 553 553 l 614 553 l 564 293 l 501 293 l 493 389 l 336 389 l 278 89 l 533 89 l 592 218 l 657 218 l 617 0 q 544 -92 578 -35 q 511 -190 511 -150 q 569 -250 511 -250 q 653 -219 610 -250 l 678 -247 q 656 -271 678 -250 q 601 -310 635 -292 q 522 -328 567 -328 z "},"Ẽ":{"ha":746,"x_min":-14,"x_max":751,"o":"m 738 1057 q 683 954 710 992 q 624 917 656 917 q 496 944 590 917 q 435 962 465 954 q 390 969 406 969 q 363 960 376 969 q 342 939 350 950 q 332 925 333 928 l 275 947 q 328 1049 299 1011 q 390 1088 358 1088 q 515 1060 424 1088 q 624 1035 599 1035 q 651 1045 639 1035 q 672 1066 664 1056 q 682 1081 681 1076 l 738 1057 m 551 553 l 613 553 l 563 293 l 501 293 l 492 389 l 336 389 l 278 89 l 532 89 l 590 218 l 657 218 l 615 0 l -14 0 l -4 57 l 117 88 l 249 764 l 139 794 l 150 851 l 751 851 l 714 656 l 647 656 l 643 765 l 408 765 l 350 461 l 510 461 l 551 553 z "},"F":{"ha":696,"x_min":-17,"x_max":753,"o":"m 753 851 l 717 656 l 650 656 l 644 765 l 406 765 l 343 442 l 506 442 l 547 533 l 610 533 l 558 272 l 497 272 l 490 368 l 329 368 l 275 89 l 407 58 l 396 0 l -17 0 l -7 57 l 114 88 l 246 764 l 136 794 l 147 851 l 753 851 z "},"G":{"ha":819,"x_min":50,"x_max":807,"o":"m 667 768 q 532 786 603 786 q 346 706 414 786 q 252 515 278 625 q 226 297 226 404 q 265 132 226 193 q 403 71 303 71 q 511 86 465 71 l 556 314 l 450 344 l 461 401 l 807 401 l 796 342 l 707 315 l 654 46 q 529 3 603 19 q 374 -14 456 -14 q 126 65 201 -14 q 50 299 50 143 q 106 585 50 454 q 275 794 163 715 q 547 872 388 872 q 687 860 619 872 q 796 831 754 849 l 742 629 l 675 629 l 667 768 z "},"Ǵ":{"ha":819,"x_min":50,"x_max":807,"o":"m 50 0 m 667 768 q 532 786 603 786 q 346 706 414 786 q 252 515 278 625 q 226 297 226 404 q 265 132 226 193 q 403 71 303 71 q 511 86 465 71 l 556 314 l 450 344 l 461 401 l 807 401 l 796 342 l 707 315 l 654 46 q 529 3 603 19 q 374 -14 456 -14 q 126 65 201 -14 q 50 299 50 143 q 106 585 50 454 q 275 794 163 715 q 547 872 388 872 q 687 860 619 872 q 796 831 754 849 l 742 629 l 675 629 l 667 768 m 471 889 l 439 929 l 654 1111 l 781 1067 l 781 1038 l 471 889 z "},"Ğ":{"ha":817,"x_min":44,"x_max":803,"o":"m 528 913 q 386 1036 386 913 q 397 1093 386 1060 l 464 1093 q 460 1069 460 1083 q 478 1024 461 1040 q 543 1008 494 1008 q 631 1031 606 1008 q 664 1093 656 1053 l 729 1093 q 667 962 713 1011 q 528 913 622 913 m 663 768 q 528 786 599 786 q 342 706 410 786 q 248 515 274 625 q 222 297 222 404 q 260 132 222 193 q 399 71 299 71 q 507 86 461 71 l 551 314 l 446 344 l 457 401 l 803 401 l 792 342 l 703 315 l 650 46 q 525 3 599 19 q 369 -14 451 -14 q 121 65 197 -14 q 44 299 44 143 q 101 585 44 454 q 269 794 157 715 q 543 872 382 872 q 681 860 614 872 q 792 831 749 849 l 738 629 l 671 629 l 663 768 z "},"Ǧ":{"ha":819,"x_min":50,"x_max":807,"o":"m 50 0 m 667 768 q 532 786 603 786 q 346 706 414 786 q 252 515 278 625 q 226 297 226 404 q 265 132 226 193 q 403 71 303 71 q 511 86 465 71 l 556 314 l 450 344 l 461 401 l 807 401 l 796 342 l 707 315 l 654 46 q 529 3 603 19 q 374 -14 456 -14 q 126 65 201 -14 q 50 299 50 143 q 106 585 50 454 q 275 794 163 715 q 547 872 388 872 q 687 860 619 872 q 796 831 754 849 l 742 629 l 675 629 l 667 768 m 383 1108 l 531 1007 l 715 1110 l 746 1072 l 567 893 l 461 893 l 343 1076 l 383 1108 z "},"Ĝ":{"ha":819,"x_min":50,"x_max":807,"o":"m 50 0 m 667 768 q 532 786 603 786 q 346 706 414 786 q 252 515 278 625 q 226 297 226 404 q 265 132 226 193 q 403 71 303 71 q 511 86 465 71 l 556 314 l 450 344 l 461 401 l 807 401 l 796 342 l 707 315 l 654 46 q 529 3 603 19 q 374 -14 456 -14 q 126 65 201 -14 q 50 299 50 143 q 106 585 50 454 q 275 794 163 715 q 547 872 388 872 q 687 860 619 872 q 796 831 754 849 l 742 629 l 675 629 l 667 768 m 682 893 l 539 996 l 350 893 l 319 929 l 503 1108 l 608 1108 l 721 925 l 682 893 z "},"Ģ":{"ha":817,"x_min":44,"x_max":803,"o":"m 663 768 q 528 786 599 786 q 342 706 410 786 q 248 515 274 625 q 222 297 222 404 q 260 132 222 193 q 399 71 299 71 q 507 86 461 71 l 551 314 l 446 344 l 457 401 l 803 401 l 792 342 l 703 315 l 650 46 q 525 3 599 19 q 369 -14 451 -14 q 121 65 197 -14 q 44 299 44 143 q 101 585 44 454 q 269 794 157 715 q 543 872 382 872 q 681 860 614 872 q 792 831 749 849 l 738 629 l 671 629 l 663 768 m 303 -321 l 254 -307 l 304 -62 l 424 -36 l 450 -67 l 303 -321 z "},"Ġ":{"ha":819,"x_min":50,"x_max":807,"o":"m 50 0 m 667 768 q 532 786 603 786 q 346 706 414 786 q 252 515 278 625 q 226 297 226 404 q 265 132 226 193 q 403 71 303 71 q 511 86 465 71 l 556 314 l 450 344 l 461 401 l 807 401 l 796 342 l 707 315 l 654 46 q 529 3 603 19 q 374 -14 456 -14 q 126 65 201 -14 q 50 299 50 143 q 106 585 50 454 q 275 794 163 715 q 547 872 388 872 q 687 860 619 872 q 796 831 754 849 l 742 629 l 675 629 l 667 768 m 643 999 q 613 928 643 957 q 540 899 582 899 q 465 928 497 899 q 433 999 433 957 q 465 1072 433 1040 q 540 1103 497 1103 q 613 1072 582 1103 q 643 999 643 1040 z "},"H":{"ha":957,"x_min":-19,"x_max":1007,"o":"m -19 0 l -8 57 l 107 88 l 239 765 l 133 794 l 144 851 l 525 851 l 515 794 l 399 765 l 340 465 l 663 465 l 721 765 l 615 794 l 626 851 l 1007 851 l 996 794 l 881 765 l 749 88 l 854 57 l 843 0 l 463 0 l 474 57 l 589 88 l 646 382 l 325 382 l 267 88 l 371 57 l 361 0 l -19 0 z "},"Ħ":{"ha":957,"x_min":-19,"x_max":1007,"o":"m 996 794 l 881 765 l 851 615 l 957 615 l 942 543 l 838 543 l 749 88 l 854 57 l 843 0 l 463 0 l 474 57 l 589 88 l 638 339 l 315 339 l 267 88 l 371 57 l 361 0 l -19 0 l -8 57 l 107 88 l 196 543 l 89 543 l 104 615 l 210 615 l 239 765 l 133 794 l 144 851 l 525 851 l 515 794 l 399 765 l 369 615 l 692 615 l 721 765 l 615 794 l 626 851 l 1007 851 l 996 794 m 654 422 l 678 543 l 356 543 l 332 422 l 654 422 z "},"Ĥ":{"ha":957,"x_min":-19,"x_max":1007,"o":"m 0 0 m -19 0 l -8 57 l 107 88 l 239 765 l 133 794 l 144 851 l 525 851 l 515 794 l 399 765 l 340 465 l 663 465 l 721 765 l 615 794 l 626 851 l 1007 851 l 996 794 l 881 765 l 749 88 l 854 57 l 843 0 l 463 0 l 474 57 l 589 88 l 646 382 l 325 382 l 267 88 l 371 57 l 361 0 l -19 0 m 751 893 l 608 996 l 419 893 l 389 929 l 572 1108 l 678 1108 l 790 925 l 751 893 z "},"Ḥ":{"ha":957,"x_min":-19,"x_max":1007,"o":"m 0 0 m -19 0 l -8 57 l 107 88 l 239 765 l 133 794 l 144 851 l 525 851 l 515 794 l 399 765 l 340 465 l 663 465 l 721 765 l 615 794 l 626 851 l 1007 851 l 996 794 l 881 765 l 749 88 l 854 57 l 843 0 l 463 0 l 474 57 l 589 88 l 646 382 l 325 382 l 267 88 l 371 57 l 361 0 l -19 0 m 382 -56 q 451 -85 421 -56 q 481 -153 481 -114 q 451 -219 481 -192 q 382 -247 422 -247 q 315 -219 343 -247 q 286 -153 286 -192 q 315 -85 286 -114 q 382 -56 343 -56 z "},"I":{"ha":482,"x_min":-17,"x_max":533,"o":"m -17 0 l -7 57 l 111 88 l 243 764 l 136 794 l 147 851 l 533 851 l 522 794 l 404 764 l 272 88 l 379 57 l 369 0 l -17 0 z "},"Ĳ":{"ha":946,"x_min":-17,"x_max":1018,"o":"m 0 0 m -17 0 l -7 57 l 111 88 l 243 764 l 136 794 l 147 851 l 533 851 l 522 794 l 404 764 l 272 88 l 379 57 l 369 0 l -17 0 m 494 -208 q 364 -165 415 -208 l 379 -119 l 468 -119 q 552 -76 524 -119 q 597 51 581 -32 l 732 764 l 625 794 l 636 851 l 1018 851 l 1008 794 l 889 764 l 761 88 q 664 -142 729 -76 q 494 -208 599 -208 z "},"Í":{"ha":493,"x_min":-14,"x_max":550,"o":"m 240 889 l 208 929 l 424 1111 l 550 1067 l 550 1038 l 240 889 m -14 0 l -4 57 l 115 88 l 246 764 l 139 794 l 150 851 l 536 851 l 526 794 l 407 764 l 275 88 l 382 57 l 372 0 l -14 0 z "},"Ĭ":{"ha":482,"x_min":-17,"x_max":546,"o":"m 0 0 m -17 0 l -7 57 l 111 88 l 243 764 l 136 794 l 147 851 l 533 851 l 522 794 l 404 764 l 272 88 l 379 57 l 369 0 l -17 0 m 346 913 q 203 1036 203 913 q 214 1093 203 1060 l 281 1093 q 278 1069 278 1079 q 295 1024 279 1040 q 360 1008 311 1008 q 447 1031 422 1008 q 482 1093 472 1053 l 546 1093 q 485 962 529 1011 q 346 913 440 913 z "},"Ǐ":{"ha":482,"x_min":-17,"x_max":576,"o":"m 0 0 m -17 0 l -7 57 l 111 88 l 243 764 l 136 794 l 147 851 l 533 851 l 522 794 l 404 764 l 272 88 l 379 57 l 369 0 l -17 0 m 214 1108 l 361 1007 l 546 1110 l 576 1072 l 397 893 l 292 893 l 174 1076 l 214 1108 z "},"Î":{"ha":493,"x_min":-14,"x_max":558,"o":"m 186 893 l 157 929 l 339 1108 l 446 1108 l 558 925 l 518 893 l 375 996 l 186 893 m -14 0 l -4 57 l 115 88 l 246 764 l 139 794 l 150 851 l 536 851 l 526 794 l 407 764 l 275 88 l 382 57 l 372 0 l -14 0 z "},"Ȉ":{"ha":482,"x_min":-17,"x_max":533,"o":"m 0 0 m -17 0 l -7 57 l 111 88 l 243 764 l 136 794 l 147 851 l 533 851 l 522 794 l 404 764 l 272 88 l 379 57 l 369 0 l -17 0 m 236 883 l 74 1100 l 78 1128 l 196 1128 l 279 910 l 236 883 m 460 883 l 297 1100 l 301 1128 l 419 1128 l 503 910 l 460 883 z "},"Ï":{"ha":493,"x_min":-14,"x_max":617,"o":"m 218 911 q 150 938 179 911 q 121 1001 121 964 q 150 1068 121 1040 q 218 1096 179 1096 q 285 1068 257 1096 q 313 1001 313 1040 q 285 938 313 964 q 218 911 257 911 m 522 911 q 453 938 482 911 q 425 1001 425 964 q 453 1068 425 1040 q 522 1096 482 1096 q 588 1068 560 1096 q 617 1001 617 1040 q 588 938 617 964 q 522 911 560 911 m -14 0 l -4 57 l 115 88 l 246 764 l 139 794 l 150 851 l 536 851 l 526 794 l 407 764 l 275 88 l 382 57 l 372 0 l -14 0 z "},"İ":{"ha":493,"x_min":-14,"x_max":536,"o":"m 369 899 q 294 928 326 899 q 263 999 263 957 q 295 1072 263 1040 q 369 1103 328 1103 q 442 1072 411 1103 q 472 999 472 1040 q 442 928 472 957 q 369 899 411 899 m -14 0 l -4 57 l 115 88 l 246 764 l 139 794 l 150 851 l 536 851 l 526 794 l 407 764 l 275 88 l 382 57 l 372 0 l -14 0 z "},"Ị":{"ha":482,"x_min":-17,"x_max":533,"o":"m 0 0 m -17 0 l -7 57 l 111 88 l 243 764 l 136 794 l 147 851 l 533 851 l 522 794 l 404 764 l 272 88 l 379 57 l 369 0 l -17 0 m 144 -56 q 213 -85 183 -56 q 243 -153 243 -114 q 214 -219 243 -192 q 144 -247 185 -247 q 77 -219 106 -247 q 49 -153 49 -192 q 77 -85 49 -114 q 144 -56 106 -56 z "},"Ì":{"ha":493,"x_min":-14,"x_max":536,"o":"m 485 889 l 172 1038 l 175 1067 l 300 1111 l 514 929 l 485 889 m -14 0 l -4 57 l 115 88 l 246 764 l 139 794 l 150 851 l 536 851 l 526 794 l 407 764 l 275 88 l 382 57 l 372 0 l -14 0 z "},"Ỉ":{"ha":482,"x_min":-17,"x_max":533,"o":"m 0 0 m -17 0 l -7 57 l 111 88 l 243 764 l 136 794 l 147 851 l 533 851 l 522 794 l 404 764 l 272 88 l 379 57 l 369 0 l -17 0 m 332 931 q 331 944 331 938 q 332 951 332 950 q 345 977 333 968 q 381 996 357 986 q 416 1015 404 1006 q 428 1039 428 1024 q 383 1065 428 1065 q 349 1063 376 1065 l 331 1024 l 279 1024 l 285 1097 q 404 1110 363 1110 q 492 1092 461 1110 q 524 1043 524 1075 q 468 979 524 999 q 438 969 458 975 q 407 953 418 963 q 394 931 396 944 l 332 931 z "},"Ȋ":{"ha":482,"x_min":-17,"x_max":533,"o":"m 0 0 m -17 0 l -7 57 l 111 88 l 243 764 l 136 794 l 147 851 l 533 851 l 522 794 l 404 764 l 272 88 l 379 57 l 369 0 l -17 0 m 381 1106 q 522 982 522 1106 q 513 925 522 954 l 444 925 q 449 949 449 936 q 431 994 447 978 q 367 1010 415 1010 q 278 987 304 1010 q 244 925 253 964 l 179 925 q 241 1056 196 1007 q 381 1106 286 1106 z "},"Ī":{"ha":493,"x_min":-14,"x_max":557,"o":"m 201 951 l 215 1049 l 557 1049 l 543 951 l 201 951 m -14 0 l -4 57 l 115 88 l 246 764 l 139 794 l 150 851 l 536 851 l 526 794 l 407 764 l 275 88 l 382 57 l 372 0 l -14 0 z "},"Į":{"ha":493,"x_min":-14,"x_max":536,"o":"m 203 -328 q 108 -297 138 -328 q 79 -222 79 -267 q 124 -106 79 -168 q 244 0 168 -44 l -14 0 l -4 57 l 115 88 l 246 764 l 139 794 l 150 851 l 536 851 l 526 794 l 407 764 l 275 88 l 383 57 l 372 0 q 286 -38 328 -8 q 218 -108 244 -68 q 192 -187 192 -149 q 206 -233 192 -217 q 250 -250 221 -250 q 333 -219 290 -250 l 358 -247 q 338 -271 358 -250 q 282 -310 317 -292 q 203 -328 247 -328 z "},"Ĩ":{"ha":493,"x_min":-14,"x_max":592,"o":"m 478 917 q 353 944 444 917 q 291 962 321 954 q 246 969 261 969 q 218 960 231 969 q 197 939 206 950 q 188 925 189 928 l 131 947 q 183 1049 153 1010 q 246 1088 213 1088 q 371 1060 279 1088 q 479 1035 454 1035 q 507 1045 494 1035 q 528 1066 519 1056 q 538 1081 536 1076 l 592 1057 q 537 953 564 990 q 478 917 510 917 m -14 0 l -4 57 l 115 88 l 246 764 l 139 794 l 150 851 l 536 851 l 526 794 l 407 764 l 275 88 l 382 57 l 372 0 l -14 0 z "},"J":{"ha":464,"x_min":-118,"x_max":536,"o":"m 13 -208 q -118 -165 -67 -208 l -103 -119 l -14 -119 q 70 -76 42 -119 q 115 51 99 -32 l 250 764 l 143 794 l 154 851 l 536 851 l 526 794 l 407 764 l 279 88 q 182 -142 247 -76 q 13 -208 117 -208 z "},"Ĵ":{"ha":464,"x_min":-118,"x_max":543,"o":"m 0 0 m 13 -208 q -118 -165 -67 -208 l -103 -119 l -14 -119 q 70 -76 42 -119 q 115 51 99 -32 l 250 764 l 143 794 l 154 851 l 536 851 l 526 794 l 407 764 l 279 88 q 182 -142 247 -76 q 13 -208 117 -208 m 504 893 l 361 996 l 172 893 l 142 929 l 325 1108 l 431 1108 l 543 925 l 504 893 z "},"K":{"ha":790,"x_min":-17,"x_max":886,"o":"m 747 0 l 511 0 l 332 397 l 272 88 l 365 57 l 354 0 l -17 0 l -7 57 l 111 88 l 243 764 l 136 794 l 147 851 l 525 851 l 514 793 l 404 764 l 346 471 l 663 771 l 590 794 l 601 851 l 886 851 l 876 796 l 779 767 l 467 468 l 650 92 l 757 57 l 747 0 z "},"Ķ":{"ha":793,"x_min":-14,"x_max":889,"o":"m 750 0 l 514 0 l 335 397 l 275 88 l 368 57 l 357 0 l -14 0 l -4 57 l 114 88 l 246 764 l 139 794 l 150 851 l 528 851 l 517 793 l 406 764 l 349 471 l 665 771 l 592 794 l 603 851 l 889 851 l 879 796 l 782 767 l 468 468 l 653 92 l 760 57 l 750 0 m 300 -321 l 253 -307 l 301 -62 l 421 -36 l 449 -67 l 300 -321 z "},"L":{"ha":640,"x_min":-17,"x_max":617,"o":"m 575 0 l -17 0 l -7 57 l 111 88 l 243 764 l 136 794 l 147 851 l 533 851 l 522 794 l 404 764 l 272 89 l 494 89 l 551 218 l 617 218 l 575 0 z "},"Ǉ":{"ha":1104,"x_min":-17,"x_max":1176,"o":"m 0 0 m 575 0 l -17 0 l -7 57 l 111 88 l 243 764 l 136 794 l 147 851 l 533 851 l 522 794 l 404 764 l 272 89 l 494 89 l 551 218 l 617 218 l 575 0 m 653 -208 q 522 -165 574 -208 l 538 -119 l 626 -119 q 710 -76 682 -119 q 756 51 739 -32 l 890 764 l 783 794 l 794 851 l 1176 851 l 1167 794 l 1047 764 l 919 88 q 822 -142 888 -76 q 653 -208 757 -208 z "},"Ĺ":{"ha":647,"x_min":-14,"x_max":619,"o":"m 236 889 l 204 929 l 419 1111 l 546 1067 l 546 1038 l 236 889 m 578 0 l -14 0 l -4 57 l 114 88 l 246 764 l 139 794 l 150 851 l 536 851 l 525 794 l 406 764 l 275 89 l 496 89 l 554 218 l 619 218 l 578 0 z "},"Ľ":{"ha":647,"x_min":-14,"x_max":619,"o":"m 219 1108 l 367 1007 l 551 1110 l 582 1072 l 403 893 l 297 893 l 179 1076 l 219 1108 m 578 0 l -14 0 l -4 57 l 114 88 l 246 764 l 139 794 l 150 851 l 536 851 l 525 794 l 406 764 l 275 89 l 496 89 l 554 218 l 619 218 l 578 0 z "},"Ļ":{"ha":647,"x_min":-14,"x_max":619,"o":"m 578 0 l -14 0 l -4 57 l 114 88 l 246 764 l 139 794 l 150 851 l 536 851 l 525 794 l 406 764 l 275 89 l 496 89 l 554 218 l 619 218 l 578 0 m 235 -321 l 186 -307 l 236 -62 l 356 -36 l 382 -67 l 235 -321 z "},"Ŀ":{"ha":640,"x_min":-17,"x_max":686,"o":"m 0 0 m 575 0 l -17 0 l -7 57 l 111 88 l 243 764 l 136 794 l 147 851 l 533 851 l 522 794 l 404 764 l 272 89 l 494 89 l 551 218 l 617 218 l 575 0 m 686 583 q 658 513 686 542 q 586 485 629 485 q 515 513 544 485 q 485 583 485 542 q 515 654 485 625 q 586 683 544 683 q 658 655 629 683 q 686 583 686 626 z "},"ǈ":{"ha":1039,"x_min":-17,"x_max":1042,"o":"m 0 0 m 575 0 l -17 0 l -7 57 l 111 88 l 243 764 l 136 794 l 147 851 l 533 851 l 522 794 l 404 764 l 272 89 l 494 89 l 551 218 l 617 218 l 575 0 m 944 811 q 876 839 906 811 q 847 906 847 867 q 876 973 847 944 q 944 1001 906 1001 q 1013 973 983 1001 q 1042 906 1042 944 q 1013 839 1042 867 q 944 811 983 811 m 613 -247 q 532 -237 569 -247 q 471 -217 494 -228 q 442 -203 447 -207 l 461 -137 q 564 -157 515 -157 q 659 -124 622 -157 q 710 -14 696 -92 l 825 601 l 729 611 l 718 661 q 852 695 776 681 q 963 710 928 710 q 993 678 993 710 q 977 585 990 656 q 944 408 964 515 l 864 -28 q 782 -190 844 -132 q 613 -247 719 -247 z "},"Ł":{"ha":643,"x_min":-14,"x_max":619,"o":"m 578 0 l -14 0 l -4 57 l 114 88 l 163 340 l 60 292 l 28 364 l 182 436 l 246 764 l 139 794 l 150 851 l 536 851 l 525 794 l 406 764 l 358 518 l 481 576 l 514 504 l 339 422 l 275 89 l 496 89 l 554 218 l 619 218 l 578 0 z "},"M":{"ha":1099,"x_min":-26,"x_max":1140,"o":"m 282 0 l -26 0 l -17 57 l 97 88 l 257 765 l 156 794 l 165 851 l 438 851 l 524 204 l 854 851 l 1140 851 l 1131 794 l 1010 764 l 908 88 l 1015 57 l 1004 0 l 621 0 l 632 57 l 750 88 l 832 628 l 506 4 l 401 -14 l 313 624 l 186 88 l 292 57 l 282 0 z "},"N":{"ha":932,"x_min":-18,"x_max":992,"o":"m 681 851 l 992 851 l 982 794 l 865 765 l 717 0 l 603 -15 l 303 632 l 199 88 l 304 57 l 293 0 l -18 0 l -7 57 l 107 88 l 238 765 l 135 794 l 146 851 l 375 851 l 669 218 l 775 765 l 669 794 l 681 851 z "},"Ǌ":{"ha":1396,"x_min":-18,"x_max":1468,"o":"m 0 0 m 681 851 l 992 851 l 982 794 l 865 765 l 717 0 l 603 -15 l 303 632 l 199 88 l 304 57 l 293 0 l -18 0 l -7 57 l 107 88 l 238 765 l 135 794 l 146 851 l 375 851 l 669 218 l 775 765 l 669 794 l 681 851 m 944 -208 q 814 -165 865 -208 l 829 -119 l 918 -119 q 1002 -76 974 -119 q 1047 51 1031 -32 l 1182 764 l 1075 794 l 1086 851 l 1468 851 l 1458 794 l 1339 764 l 1211 88 q 1114 -142 1179 -76 q 944 -208 1049 -208 z "},"Ń":{"ha":947,"x_min":-14,"x_max":997,"o":"m 504 889 l 472 929 l 688 1111 l 814 1067 l 814 1038 l 504 889 m 685 851 l 997 851 l 986 794 l 871 765 l 722 0 l 607 -15 l 308 632 l 203 88 l 308 57 l 297 0 l -14 0 l -3 57 l 111 88 l 242 765 l 140 794 l 150 851 l 381 851 l 675 218 l 779 765 l 675 794 l 685 851 z "},"Ň":{"ha":947,"x_min":-14,"x_max":997,"o":"m 449 1108 l 596 1007 l 781 1110 l 811 1072 l 632 893 l 526 893 l 410 1076 l 449 1108 m 685 851 l 997 851 l 986 794 l 871 765 l 722 0 l 607 -15 l 308 632 l 203 88 l 308 57 l 297 0 l -14 0 l -3 57 l 111 88 l 242 765 l 140 794 l 150 851 l 381 851 l 675 218 l 779 765 l 675 794 l 685 851 z "},"Ņ":{"ha":947,"x_min":-14,"x_max":997,"o":"m 685 851 l 997 851 l 986 794 l 871 765 l 722 0 l 607 -15 l 308 632 l 203 88 l 308 57 l 297 0 l -14 0 l -3 57 l 111 88 l 242 765 l 140 794 l 150 851 l 381 851 l 675 218 l 779 765 l 675 794 l 685 851 m 358 -321 l 310 -307 l 360 -62 l 479 -36 l 506 -67 l 358 -321 z "},"Ṅ":{"ha":932,"x_min":-18,"x_max":992,"o":"m 0 0 m 681 851 l 992 851 l 982 794 l 865 765 l 717 0 l 603 -15 l 303 632 l 199 88 l 304 57 l 293 0 l -18 0 l -7 57 l 107 88 l 238 765 l 135 794 l 146 851 l 375 851 l 669 218 l 775 765 l 669 794 l 681 851 m 700 999 q 669 928 700 957 q 597 899 639 899 q 522 928 554 899 q 490 999 490 957 q 522 1072 490 1040 q 597 1103 554 1103 q 669 1072 639 1103 q 700 999 700 1040 z "},"Ŋ":{"ha":932,"x_min":-18,"x_max":992,"o":"m 992 851 l 982 794 l 865 765 l 733 88 q 633 -173 700 -99 q 454 -247 565 -247 q 289 -203 372 -247 l 308 -137 q 417 -157 356 -157 q 522 -106 486 -157 q 569 54 558 -54 l 303 632 l 199 88 l 304 57 l 293 0 l -18 0 l -7 57 l 107 88 l 238 765 l 135 794 l 146 851 l 375 851 l 669 218 l 775 765 l 669 794 l 681 851 l 992 851 z "},"Ɲ":{"ha":932,"x_min":-176,"x_max":992,"o":"m 992 851 l 982 794 l 865 765 l 717 0 l 603 -15 l 303 632 q 182 -28 282 511 q 108 -190 161 -133 q -35 -247 54 -247 q -176 -203 -111 -247 l -157 -137 q -56 -157 -104 -157 q 40 -124 3 -157 q 90 -14 76 -92 l 238 765 l 135 794 l 146 851 l 375 851 l 669 218 l 775 765 l 669 794 l 681 851 l 992 851 z "},"ǋ":{"ha":1331,"x_min":-18,"x_max":1333,"o":"m 0 0 m 681 851 l 992 851 l 982 794 l 865 765 l 717 0 l 603 -15 l 303 632 l 199 88 l 304 57 l 293 0 l -18 0 l -7 57 l 107 88 l 238 765 l 135 794 l 146 851 l 375 851 l 669 218 l 775 765 l 669 794 l 681 851 m 1236 811 q 1168 839 1197 811 q 1139 906 1139 867 q 1168 973 1139 944 q 1236 1001 1197 1001 q 1304 973 1275 1001 q 1333 906 1333 944 q 1304 839 1333 867 q 1236 811 1275 811 m 904 -247 q 824 -237 861 -247 q 763 -217 786 -228 q 733 -203 739 -207 l 753 -137 q 856 -157 807 -157 q 951 -124 914 -157 q 1001 -14 988 -92 l 1117 601 l 1021 611 l 1010 661 q 1144 695 1068 681 q 1254 710 1219 710 q 1285 678 1285 710 q 1269 585 1282 656 q 1236 408 1256 515 l 1156 -28 q 1074 -190 1136 -132 q 904 -247 1011 -247 z "},"Ñ":{"ha":947,"x_min":-14,"x_max":997,"o":"m 835 1057 q 780 954 807 992 q 721 917 753 917 q 594 944 686 917 q 534 962 564 954 q 488 969 504 969 q 461 960 474 969 q 440 939 449 950 q 431 925 432 928 l 374 947 q 426 1049 396 1010 q 489 1088 456 1088 q 613 1060 521 1088 q 674 1042 644 1050 q 721 1035 704 1035 q 749 1045 736 1035 q 771 1066 763 1056 q 781 1081 779 1076 l 835 1057 m 685 851 l 997 851 l 986 794 l 871 765 l 722 0 l 607 -15 l 308 632 l 203 88 l 308 57 l 297 0 l -14 0 l -3 57 l 111 88 l 242 765 l 140 794 l 150 851 l 381 851 l 675 218 l 779 765 l 675 794 l 685 851 z "},"O":{"ha":872,"x_min":53,"x_max":851,"o":"m 367 -14 q 126 64 200 -14 q 53 292 53 142 q 110 576 53 443 q 277 790 167 708 q 539 871 388 871 q 777 792 703 871 q 851 575 851 713 q 794 286 851 421 q 628 69 738 151 q 367 -14 518 -14 m 383 71 q 552 149 486 71 q 647 344 618 228 q 676 576 676 460 q 642 733 676 679 q 521 786 607 786 q 344 697 410 786 q 254 494 279 608 q 229 289 229 379 q 263 126 229 181 q 383 71 296 71 z "},"Ó":{"ha":872,"x_min":53,"x_max":851,"o":"m 53 0 m 367 -14 q 126 64 200 -14 q 53 292 53 142 q 110 576 53 443 q 277 790 167 708 q 539 871 388 871 q 777 792 703 871 q 851 575 851 713 q 794 286 851 421 q 628 69 738 151 q 367 -14 518 -14 m 383 71 q 552 149 486 71 q 647 344 618 228 q 676 576 676 460 q 642 733 676 679 q 521 786 607 786 q 344 697 410 786 q 254 494 279 608 q 229 289 229 379 q 263 126 229 181 q 383 71 296 71 m 496 889 l 464 929 l 679 1111 l 806 1067 l 806 1038 l 496 889 z "},"Ŏ":{"ha":872,"x_min":53,"x_max":851,"o":"m 53 0 m 367 -14 q 126 64 200 -14 q 53 292 53 142 q 110 576 53 443 q 277 790 167 708 q 539 871 388 871 q 777 792 703 871 q 851 575 851 713 q 794 286 851 421 q 628 69 738 151 q 367 -14 518 -14 m 383 71 q 552 149 486 71 q 647 344 618 228 q 676 576 676 460 q 642 733 676 679 q 521 786 607 786 q 344 697 410 786 q 254 494 279 608 q 229 289 229 379 q 263 126 229 181 q 383 71 296 71 m 540 913 q 397 1036 397 913 q 408 1093 397 1060 l 475 1093 q 472 1069 472 1079 q 490 1024 474 1040 q 554 1008 506 1008 q 642 1031 617 1008 q 676 1093 667 1053 l 740 1093 q 679 962 724 1011 q 540 913 635 913 z "},"Ǒ":{"ha":872,"x_min":53,"x_max":851,"o":"m 53 0 m 367 -14 q 126 64 200 -14 q 53 292 53 142 q 110 576 53 443 q 277 790 167 708 q 539 871 388 871 q 777 792 703 871 q 851 575 851 713 q 794 286 851 421 q 628 69 738 151 q 367 -14 518 -14 m 383 71 q 552 149 486 71 q 647 344 618 228 q 676 576 676 460 q 642 733 676 679 q 521 786 607 786 q 344 697 410 786 q 254 494 279 608 q 229 289 229 379 q 263 126 229 181 q 383 71 296 71 m 408 1108 l 556 1007 l 740 1110 l 771 1072 l 592 893 l 486 893 l 368 1076 l 408 1108 z "},"Ô":{"ha":872,"x_min":53,"x_max":851,"o":"m 368 893 l 338 929 l 521 1108 l 626 1108 l 739 925 l 699 893 l 556 996 l 368 893 m 367 -14 q 126 64 200 -14 q 53 292 53 142 q 110 576 53 443 q 277 790 167 708 q 539 871 388 871 q 777 792 703 871 q 851 575 851 713 q 794 286 851 421 q 628 69 738 151 q 367 -14 518 -14 m 383 71 q 552 149 486 71 q 647 344 618 228 q 676 576 676 460 q 642 733 676 679 q 521 786 607 786 q 344 697 410 786 q 254 494 279 608 q 229 289 229 379 q 263 126 229 181 q 383 71 296 71 z "},"Ố":{"ha":872,"x_min":53,"x_max":963,"o":"m 722 957 l 679 985 l 819 1231 l 954 1231 l 963 1203 l 722 957 m 667 893 l 524 996 l 335 893 l 304 929 l 488 1108 l 593 1108 l 706 925 l 667 893 m 367 -14 q 126 64 200 -14 q 53 292 53 142 q 110 576 53 443 q 277 790 167 708 q 539 871 388 871 q 777 792 703 871 q 851 575 851 713 q 794 286 851 421 q 628 69 738 151 q 367 -14 518 -14 m 383 71 q 552 149 486 71 q 647 344 618 228 q 676 576 676 460 q 642 733 676 679 q 521 786 607 786 q 344 697 410 786 q 254 494 279 608 q 229 289 229 379 q 263 126 229 181 q 383 71 296 71 z "},"Ộ":{"ha":872,"x_min":53,"x_max":851,"o":"m 53 0 m 367 -14 q 126 64 200 -14 q 53 292 53 142 q 110 576 53 443 q 277 790 167 708 q 539 871 388 871 q 777 792 703 871 q 851 575 851 713 q 794 286 851 421 q 628 69 738 151 q 367 -14 518 -14 m 383 71 q 552 149 486 71 q 647 344 618 228 q 676 576 676 460 q 642 733 676 679 q 521 786 607 786 q 344 697 410 786 q 254 494 279 608 q 229 289 229 379 q 263 126 229 181 q 383 71 296 71 m 338 -56 q 406 -85 376 -56 q 436 -153 436 -114 q 407 -219 436 -192 q 338 -247 378 -247 q 270 -219 299 -247 q 242 -153 242 -192 q 270 -85 242 -114 q 338 -56 299 -56 m 707 893 l 564 996 l 375 893 l 344 929 l 528 1108 l 633 1108 l 746 925 l 707 893 z "},"Ồ":{"ha":872,"x_min":53,"x_max":851,"o":"m 726 957 l 578 1207 l 597 1231 l 700 1231 l 774 975 l 726 957 m 667 893 l 524 996 l 335 893 l 304 929 l 488 1108 l 593 1108 l 706 925 l 667 893 m 367 -14 q 126 64 200 -14 q 53 292 53 142 q 110 576 53 443 q 277 790 167 708 q 539 871 388 871 q 777 792 703 871 q 851 575 851 713 q 794 286 851 421 q 628 69 738 151 q 367 -14 518 -14 m 383 71 q 552 149 486 71 q 647 344 618 228 q 676 576 676 460 q 642 733 676 679 q 521 786 607 786 q 344 697 410 786 q 254 494 279 608 q 229 289 229 379 q 263 126 229 181 q 383 71 296 71 z "},"Ổ":{"ha":872,"x_min":53,"x_max":915,"o":"m 53 0 m 367 -14 q 126 64 200 -14 q 53 292 53 142 q 110 576 53 443 q 277 790 167 708 q 539 871 388 871 q 777 792 703 871 q 851 575 851 713 q 794 286 851 421 q 628 69 738 151 q 367 -14 518 -14 m 383 71 q 552 149 486 71 q 647 344 618 228 q 676 576 676 460 q 642 733 676 679 q 521 786 607 786 q 344 697 410 786 q 254 494 279 608 q 229 289 229 379 q 263 126 229 181 q 383 71 296 71 m 707 893 l 564 996 l 375 893 l 344 929 l 528 1108 l 633 1108 l 746 925 l 707 893 m 724 1051 q 723 1065 722 1058 q 724 1072 724 1071 q 737 1098 725 1089 q 772 1117 749 1107 q 808 1135 796 1126 q 819 1160 819 1144 q 775 1186 819 1186 q 740 1183 768 1186 l 722 1144 l 671 1144 l 676 1218 q 796 1231 754 1231 q 884 1213 853 1231 q 915 1164 915 1196 q 860 1100 915 1119 q 830 1090 850 1096 q 799 1074 810 1083 q 786 1051 788 1065 l 724 1051 z "},"Ỗ":{"ha":872,"x_min":53,"x_max":851,"o":"m 53 0 m 367 -14 q 126 64 200 -14 q 53 292 53 142 q 110 576 53 443 q 277 790 167 708 q 539 871 388 871 q 777 792 703 871 q 851 575 851 713 q 794 286 851 421 q 628 69 738 151 q 367 -14 518 -14 m 383 71 q 552 149 486 71 q 647 344 618 228 q 676 576 676 460 q 642 733 676 679 q 521 786 607 786 q 344 697 410 786 q 254 494 279 608 q 229 289 229 379 q 263 126 229 181 q 383 71 296 71 m 707 893 l 564 996 l 375 893 l 344 929 l 528 1108 l 633 1108 l 746 925 l 707 893 m 833 1254 q 778 1151 806 1189 q 719 1114 751 1114 q 593 1142 685 1114 q 533 1159 563 1151 q 488 1167 503 1167 q 460 1157 472 1167 q 439 1136 447 1147 q 429 1122 431 1125 l 372 1144 q 424 1246 394 1207 q 488 1285 454 1285 q 613 1257 521 1285 q 673 1240 643 1247 q 719 1232 703 1232 q 748 1242 735 1232 q 769 1263 761 1253 q 779 1278 778 1274 l 833 1254 z "},"Ȍ":{"ha":872,"x_min":53,"x_max":851,"o":"m 53 0 m 367 -14 q 126 64 200 -14 q 53 292 53 142 q 110 576 53 443 q 277 790 167 708 q 539 871 388 871 q 777 792 703 871 q 851 575 851 713 q 794 286 851 421 q 628 69 738 151 q 367 -14 518 -14 m 383 71 q 552 149 486 71 q 647 344 618 228 q 676 576 676 460 q 642 733 676 679 q 521 786 607 786 q 344 697 410 786 q 254 494 279 608 q 229 289 229 379 q 263 126 229 181 q 383 71 296 71 m 431 883 l 268 1100 l 272 1128 l 390 1128 l 474 910 l 431 883 m 654 883 l 492 1100 l 496 1128 l 614 1128 l 697 910 l 654 883 z "},"Ö":{"ha":872,"x_min":53,"x_max":851,"o":"m 408 911 q 340 938 369 911 q 311 1001 311 964 q 340 1068 311 1040 q 408 1096 369 1096 q 475 1068 447 1096 q 503 1001 503 1040 q 475 938 503 964 q 408 911 447 911 m 713 911 q 644 938 672 911 q 615 1001 615 964 q 644 1068 615 1040 q 713 1096 672 1096 q 778 1068 750 1096 q 806 1001 806 1040 q 778 938 806 964 q 713 911 750 911 m 367 -14 q 126 64 200 -14 q 53 292 53 142 q 110 576 53 443 q 277 790 167 708 q 539 871 388 871 q 777 792 703 871 q 851 575 851 713 q 794 286 851 421 q 628 69 738 151 q 367 -14 518 -14 m 383 71 q 552 149 486 71 q 647 344 618 228 q 676 576 676 460 q 642 733 676 679 q 521 786 607 786 q 344 697 410 786 q 254 494 279 608 q 229 289 229 379 q 263 126 229 181 q 383 71 296 71 z "},"Ọ":{"ha":872,"x_min":53,"x_max":851,"o":"m 53 0 m 367 -14 q 126 64 200 -14 q 53 292 53 142 q 110 576 53 443 q 277 790 167 708 q 539 871 388 871 q 777 792 703 871 q 851 575 851 713 q 794 286 851 421 q 628 69 738 151 q 367 -14 518 -14 m 383 71 q 552 149 486 71 q 647 344 618 228 q 676 576 676 460 q 642 733 676 679 q 521 786 607 786 q 344 697 410 786 q 254 494 279 608 q 229 289 229 379 q 263 126 229 181 q 383 71 296 71 m 338 -56 q 406 -85 376 -56 q 436 -153 436 -114 q 407 -219 436 -192 q 338 -247 378 -247 q 270 -219 299 -247 q 242 -153 242 -192 q 270 -85 242 -114 q 338 -56 299 -56 z "},"Ò":{"ha":872,"x_min":53,"x_max":851,"o":"m 665 889 l 351 1038 l 356 1067 l 481 1111 l 694 929 l 665 889 m 367 -14 q 126 64 200 -14 q 53 292 53 142 q 110 576 53 443 q 277 790 167 708 q 539 871 388 871 q 777 792 703 871 q 851 575 851 713 q 794 286 851 421 q 628 69 738 151 q 367 -14 518 -14 m 383 71 q 552 149 486 71 q 647 344 618 228 q 676 576 676 460 q 642 733 676 679 q 521 786 607 786 q 344 697 410 786 q 254 494 279 608 q 229 289 229 379 q 263 126 229 181 q 383 71 296 71 z "},"Ỏ":{"ha":872,"x_min":53,"x_max":851,"o":"m 53 0 m 367 -14 q 126 64 200 -14 q 53 292 53 142 q 110 576 53 443 q 277 790 167 708 q 539 871 388 871 q 777 792 703 871 q 851 575 851 713 q 794 286 851 421 q 628 69 738 151 q 367 -14 518 -14 m 383 71 q 552 149 486 71 q 647 344 618 228 q 676 576 676 460 q 642 733 676 679 q 521 786 607 786 q 344 697 410 786 q 254 494 279 608 q 229 289 229 379 q 263 126 229 181 q 383 71 296 71 m 526 931 q 526 944 525 938 q 526 951 526 950 q 540 977 528 968 q 575 996 551 986 q 610 1015 599 1006 q 622 1039 622 1024 q 578 1065 622 1065 q 543 1063 571 1065 l 525 1024 l 474 1024 l 479 1097 q 599 1110 557 1110 q 687 1092 656 1110 q 718 1043 718 1075 q 663 979 718 999 q 633 969 653 975 q 601 953 613 963 q 589 931 590 944 l 526 931 z "},"Ơ":{"ha":872,"x_min":53,"x_max":971,"o":"m 971 889 q 927 797 971 835 q 814 743 883 760 q 851 575 851 676 q 794 286 851 421 q 628 69 738 151 q 367 -14 518 -14 q 126 64 200 -14 q 53 292 53 142 q 110 576 53 443 q 277 790 167 708 q 539 871 388 871 q 768 801 688 871 q 824 820 804 804 q 843 874 843 836 q 836 931 843 900 l 844 949 l 953 968 q 966 928 961 950 q 971 889 971 906 m 383 71 q 552 149 486 71 q 647 344 618 228 q 676 576 676 460 q 642 733 676 679 q 521 786 607 786 q 344 697 410 786 q 254 494 279 608 q 229 289 229 379 q 263 126 229 181 q 383 71 296 71 z "},"Ớ":{"ha":872,"x_min":53,"x_max":971,"o":"m 53 0 m 971 889 q 927 797 971 835 q 814 743 883 760 q 851 575 851 676 q 794 286 851 421 q 628 69 738 151 q 367 -14 518 -14 q 126 64 200 -14 q 53 292 53 142 q 110 576 53 443 q 277 790 167 708 q 539 871 388 871 q 768 801 688 871 q 824 820 804 804 q 843 874 843 836 q 836 931 843 900 l 844 949 l 953 968 q 966 928 961 950 q 971 889 971 906 m 383 71 q 552 149 486 71 q 647 344 618 228 q 676 576 676 460 q 642 733 676 679 q 521 786 607 786 q 344 697 410 786 q 254 494 279 608 q 229 289 229 379 q 263 126 229 181 q 383 71 296 71 m 496 889 l 464 929 l 679 1111 l 806 1067 l 806 1038 l 496 889 z "},"Ợ":{"ha":872,"x_min":53,"x_max":971,"o":"m 53 0 m 971 889 q 927 797 971 835 q 814 743 883 760 q 851 575 851 676 q 794 286 851 421 q 628 69 738 151 q 367 -14 518 -14 q 126 64 200 -14 q 53 292 53 142 q 110 576 53 443 q 277 790 167 708 q 539 871 388 871 q 768 801 688 871 q 824 820 804 804 q 843 874 843 836 q 836 931 843 900 l 844 949 l 953 968 q 966 928 961 950 q 971 889 971 906 m 383 71 q 552 149 486 71 q 647 344 618 228 q 676 576 676 460 q 642 733 676 679 q 521 786 607 786 q 344 697 410 786 q 254 494 279 608 q 229 289 229 379 q 263 126 229 181 q 383 71 296 71 m 338 -56 q 406 -85 376 -56 q 436 -153 436 -114 q 407 -219 436 -192 q 338 -247 378 -247 q 270 -219 299 -247 q 242 -153 242 -192 q 270 -85 242 -114 q 338 -56 299 -56 z "},"Ờ":{"ha":872,"x_min":53,"x_max":971,"o":"m 53 0 m 971 889 q 927 797 971 835 q 814 743 883 760 q 851 575 851 676 q 794 286 851 421 q 628 69 738 151 q 367 -14 518 -14 q 126 64 200 -14 q 53 292 53 142 q 110 576 53 443 q 277 790 167 708 q 539 871 388 871 q 768 801 688 871 q 824 820 804 804 q 843 874 843 836 q 836 931 843 900 l 844 949 l 953 968 q 966 928 961 950 q 971 889 971 906 m 383 71 q 552 149 486 71 q 647 344 618 228 q 676 576 676 460 q 642 733 676 679 q 521 786 607 786 q 344 697 410 786 q 254 494 279 608 q 229 289 229 379 q 263 126 229 181 q 383 71 296 71 m 604 889 l 290 1038 l 294 1067 l 418 1111 l 632 929 l 604 889 z "},"Ở":{"ha":872,"x_min":53,"x_max":971,"o":"m 53 0 m 971 889 q 927 797 971 835 q 814 743 883 760 q 851 575 851 676 q 794 286 851 421 q 628 69 738 151 q 367 -14 518 -14 q 126 64 200 -14 q 53 292 53 142 q 110 576 53 443 q 277 790 167 708 q 539 871 388 871 q 768 801 688 871 q 824 820 804 804 q 843 874 843 836 q 836 931 843 900 l 844 949 l 953 968 q 966 928 961 950 q 971 889 971 906 m 383 71 q 552 149 486 71 q 647 344 618 228 q 676 576 676 460 q 642 733 676 679 q 521 786 607 786 q 344 697 410 786 q 254 494 279 608 q 229 289 229 379 q 263 126 229 181 q 383 71 296 71 m 526 931 q 526 944 525 938 q 526 951 526 950 q 540 977 528 968 q 575 996 551 986 q 610 1015 599 1006 q 622 1039 622 1024 q 578 1065 622 1065 q 543 1063 571 1065 l 525 1024 l 474 1024 l 479 1097 q 599 1110 557 1110 q 687 1092 656 1110 q 718 1043 718 1075 q 663 979 718 999 q 633 969 653 975 q 601 953 613 963 q 589 931 590 944 l 526 931 z "},"Ỡ":{"ha":872,"x_min":53,"x_max":971,"o":"m 53 0 m 971 889 q 927 797 971 835 q 814 743 883 760 q 851 575 851 676 q 794 286 851 421 q 628 69 738 151 q 367 -14 518 -14 q 126 64 200 -14 q 53 292 53 142 q 110 576 53 443 q 277 790 167 708 q 539 871 388 871 q 768 801 688 871 q 824 820 804 804 q 843 874 843 836 q 836 931 843 900 l 844 949 l 953 968 q 966 928 961 950 q 971 889 971 906 m 383 71 q 552 149 486 71 q 647 344 618 228 q 676 576 676 460 q 642 733 676 679 q 521 786 607 786 q 344 697 410 786 q 254 494 279 608 q 229 289 229 379 q 263 126 229 181 q 383 71 296 71 m 794 1057 q 740 954 767 992 q 681 917 713 917 q 554 944 646 917 q 494 962 524 954 q 449 969 464 969 q 421 960 433 969 q 400 939 408 950 q 390 925 392 928 l 333 947 q 385 1049 356 1010 q 449 1088 415 1088 q 574 1060 482 1088 q 634 1042 604 1050 q 681 1035 664 1035 q 709 1045 696 1035 q 731 1066 722 1056 q 740 1081 739 1076 l 794 1057 z "},"Ő":{"ha":872,"x_min":53,"x_max":851,"o":"m 392 885 l 354 910 l 479 1128 l 599 1128 l 599 1100 l 392 885 m 615 885 l 578 910 l 703 1128 l 822 1128 l 822 1100 l 615 885 m 367 -14 q 126 64 200 -14 q 53 292 53 142 q 110 576 53 443 q 277 790 167 708 q 539 871 388 871 q 777 792 703 871 q 851 575 851 713 q 794 286 851 421 q 628 69 738 151 q 367 -14 518 -14 m 383 71 q 552 149 486 71 q 647 344 618 228 q 676 576 676 460 q 642 733 676 679 q 521 786 607 786 q 344 697 410 786 q 254 494 279 608 q 229 289 229 379 q 263 126 229 181 q 383 71 296 71 z "},"Ȏ":{"ha":872,"x_min":53,"x_max":851,"o":"m 53 0 m 367 -14 q 126 64 200 -14 q 53 292 53 142 q 110 576 53 443 q 277 790 167 708 q 539 871 388 871 q 777 792 703 871 q 851 575 851 713 q 794 286 851 421 q 628 69 738 151 q 367 -14 518 -14 m 383 71 q 552 149 486 71 q 647 344 618 228 q 676 576 676 460 q 642 733 676 679 q 521 786 607 786 q 344 697 410 786 q 254 494 279 608 q 229 289 229 379 q 263 126 229 181 q 383 71 296 71 m 575 1106 q 717 982 717 1106 q 707 925 717 954 l 639 925 q 643 949 643 936 q 626 994 642 978 q 561 1010 610 1010 q 473 987 499 1010 q 439 925 447 964 l 374 925 q 435 1056 390 1007 q 575 1106 481 1106 z "},"Ō":{"ha":872,"x_min":53,"x_max":851,"o":"m 379 949 l 393 1046 l 744 1046 l 731 949 l 379 949 m 367 -14 q 126 64 200 -14 q 53 292 53 142 q 110 576 53 443 q 277 790 167 708 q 539 871 388 871 q 777 792 703 871 q 851 575 851 713 q 794 286 851 421 q 628 69 738 151 q 367 -14 518 -14 m 383 71 q 552 149 486 71 q 647 344 618 228 q 676 576 676 460 q 642 733 676 679 q 521 786 607 786 q 344 697 410 786 q 254 494 279 608 q 229 289 229 379 q 263 126 229 181 q 383 71 296 71 z "},"Ǫ":{"ha":872,"x_min":53,"x_max":851,"o":"m 628 68 q 547 -31 582 28 q 511 -135 511 -90 q 526 -178 511 -162 q 569 -193 540 -193 q 653 -162 610 -193 l 678 -190 q 518 -271 614 -271 q 428 -242 458 -271 q 399 -169 399 -212 q 423 -87 399 -132 q 497 4 447 -42 q 367 -14 432 -14 q 126 64 200 -14 q 53 292 53 142 q 110 576 53 443 q 277 790 167 708 q 539 871 388 871 q 777 792 703 871 q 851 575 851 713 q 794 283 851 418 q 628 68 736 147 m 229 289 q 263 126 229 181 q 383 71 296 71 q 552 149 486 71 q 647 344 618 228 q 676 576 676 460 q 642 733 676 679 q 521 786 607 786 q 344 697 410 786 q 254 494 279 608 q 229 289 229 379 z "},"Ø":{"ha":872,"x_min":53,"x_max":851,"o":"m 263 -3 q 103 94 153 19 q 53 292 53 168 q 110 576 53 443 q 277 790 167 708 q 539 871 388 871 l 546 871 l 583 985 l 676 985 l 636 863 q 800 765 749 840 q 851 575 851 689 q 794 286 851 421 q 628 69 738 151 q 367 -14 518 -14 l 351 -14 l 314 -129 l 221 -129 l 263 -3 m 518 786 q 352 703 417 785 q 258 508 288 622 q 229 289 229 393 q 244 167 229 217 q 293 94 258 118 l 518 786 m 379 71 q 547 144 479 71 q 645 334 614 218 q 676 576 676 450 q 604 765 676 725 l 379 71 z "},"Ǿ":{"ha":872,"x_min":53,"x_max":851,"o":"m 53 0 m 263 -3 q 103 94 153 19 q 53 292 53 168 q 110 576 53 443 q 277 790 167 708 q 539 871 388 871 l 546 871 l 583 985 l 676 985 l 636 863 q 800 765 749 840 q 851 575 851 689 q 794 286 851 421 q 628 69 738 151 q 367 -14 518 -14 l 351 -14 l 314 -129 l 221 -129 l 263 -3 m 518 786 q 352 703 417 785 q 258 508 288 622 q 229 289 229 393 q 244 167 229 217 q 293 94 258 118 l 518 786 m 379 71 q 547 144 479 71 q 645 334 614 218 q 676 576 676 450 q 604 765 676 725 l 379 71 m 364 889 l 332 929 l 547 1111 l 674 1067 l 674 1038 l 364 889 z "},"Õ":{"ha":872,"x_min":53,"x_max":851,"o":"m 669 917 q 543 944 635 917 q 483 962 513 954 q 438 969 453 969 q 410 960 422 969 q 389 939 397 950 q 379 925 381 928 l 322 947 q 374 1049 344 1010 q 438 1088 404 1088 q 563 1060 471 1088 q 623 1042 593 1050 q 669 1035 653 1035 q 698 1045 685 1035 q 719 1066 711 1056 q 729 1081 728 1076 l 783 1057 q 728 954 756 992 q 669 917 701 917 m 367 -14 q 126 64 200 -14 q 53 292 53 142 q 110 576 53 443 q 277 790 167 708 q 539 871 388 871 q 777 792 703 871 q 851 575 851 713 q 794 286 851 421 q 628 69 738 151 q 367 -14 518 -14 m 383 71 q 552 149 486 71 q 647 344 618 228 q 676 576 676 460 q 642 733 676 679 q 521 786 607 786 q 344 697 410 786 q 254 494 279 608 q 229 289 229 379 q 263 126 229 181 q 383 71 296 71 z "},"Œ":{"ha":1192,"x_min":65,"x_max":1176,"o":"m 401 0 q 65 292 65 0 q 130 578 65 450 q 315 778 194 706 q 597 851 436 851 l 1176 851 l 1139 656 l 1072 656 l 1068 765 l 844 765 l 785 461 l 940 461 l 983 553 l 1044 553 l 994 293 l 935 293 l 925 389 l 771 389 l 713 89 l 957 89 l 1015 218 l 1081 218 l 1039 0 l 401 0 m 424 81 q 553 94 499 81 l 682 758 q 565 771 622 771 q 365 687 439 771 q 263 494 292 603 q 235 301 235 386 q 424 81 235 81 z "},"P":{"ha":728,"x_min":-17,"x_max":750,"o":"m 501 851 q 750 658 750 851 q 697 481 750 553 q 565 375 644 410 q 404 340 485 340 q 363 342 389 340 q 324 349 336 344 l 272 88 l 408 58 l 397 0 l -17 0 l -7 57 l 113 88 l 243 763 l 135 793 l 147 851 l 501 851 m 335 411 q 388 406 353 406 q 488 435 442 406 q 561 520 533 464 q 589 653 589 576 q 559 742 589 711 q 471 774 529 774 q 404 765 436 774 l 335 411 z "},"Þ":{"ha":688,"x_min":-17,"x_max":689,"o":"m -7 57 l 111 88 l 243 764 l 136 794 l 147 851 l 533 851 l 522 794 l 404 764 l 385 668 l 460 668 q 689 489 689 668 q 639 322 689 390 q 514 221 589 254 q 364 188 439 188 q 293 193 321 188 l 272 88 l 379 57 l 369 0 l -17 0 l -7 57 m 349 254 q 484 312 432 254 q 536 482 536 369 q 508 567 536 539 q 426 596 479 596 q 369 589 396 596 l 306 258 q 349 254 319 254 z "},"Q":{"ha":874,"x_min":51,"x_max":847,"o":"m 632 -215 q 559 -199 597 -215 q 456 -140 521 -183 l 242 -1 q 97 130 143 60 q 51 308 51 200 q 108 582 51 453 q 274 791 164 711 q 538 871 385 871 q 847 572 847 871 q 792 294 847 424 q 638 86 738 164 q 411 8 539 8 l 414 0 q 586 -86 500 -47 q 697 -125 672 -125 l 792 -125 l 788 -171 q 713 -201 758 -187 q 632 -215 667 -215 m 372 74 q 552 160 485 74 q 647 360 619 246 q 674 569 674 474 q 640 730 674 674 q 518 786 606 786 q 349 706 415 786 q 254 512 283 625 q 225 294 225 399 q 259 137 225 200 q 372 74 293 74 z "},"R":{"ha":788,"x_min":-17,"x_max":751,"o":"m 490 69 q 444 285 458 229 q 414 359 429 340 q 365 378 399 378 l 331 378 l 274 88 l 372 57 l 361 0 l -17 0 l -7 57 l 113 88 l 244 764 l 136 794 l 147 851 l 506 851 q 692 806 633 851 q 751 678 751 760 q 690 512 751 583 q 522 413 628 440 q 574 378 557 399 q 602 316 590 357 q 636 169 614 275 l 654 88 l 740 57 l 731 0 l 504 0 l 490 69 m 403 447 q 535 510 485 447 q 586 674 586 572 q 559 752 586 728 q 472 776 532 776 q 406 767 440 776 l 343 447 l 403 447 z "},"Ŕ":{"ha":790,"x_min":-12,"x_max":756,"o":"m 386 889 l 354 929 l 569 1111 l 696 1067 l 696 1038 l 386 889 m 494 69 q 448 285 463 229 q 418 359 433 340 q 369 378 403 378 l 335 378 l 278 88 l 376 57 l 365 0 l -12 0 l -3 57 l 117 88 l 249 764 l 140 794 l 151 851 l 510 851 q 697 806 638 851 q 756 678 756 760 q 693 512 756 583 q 526 413 631 440 q 578 378 561 399 q 606 316 594 357 q 640 169 618 275 l 658 88 l 744 57 l 733 0 l 508 0 l 494 69 m 407 447 q 540 510 489 447 q 590 674 590 572 q 563 752 590 728 q 476 776 536 776 q 410 767 442 776 l 347 447 l 407 447 z "},"Ř":{"ha":790,"x_min":-12,"x_max":756,"o":"m 349 1108 l 496 1007 l 681 1110 l 710 1072 l 532 893 l 426 893 l 308 1076 l 349 1108 m 494 69 q 448 285 463 229 q 418 359 433 340 q 369 378 403 378 l 335 378 l 278 88 l 376 57 l 365 0 l -12 0 l -3 57 l 117 88 l 249 764 l 140 794 l 151 851 l 510 851 q 697 806 638 851 q 756 678 756 760 q 693 512 756 583 q 526 413 631 440 q 578 378 561 399 q 606 316 594 357 q 640 169 618 275 l 658 88 l 744 57 l 733 0 l 508 0 l 494 69 m 407 447 q 540 510 489 447 q 590 674 590 572 q 563 752 590 728 q 476 776 536 776 q 410 767 442 776 l 347 447 l 407 447 z "},"Ŗ":{"ha":790,"x_min":-12,"x_max":756,"o":"m 494 69 q 448 285 463 229 q 418 359 433 340 q 369 378 403 378 l 335 378 l 278 88 l 376 57 l 365 0 l -12 0 l -3 57 l 117 88 l 249 764 l 140 794 l 151 851 l 510 851 q 697 806 638 851 q 756 678 756 760 q 693 512 756 583 q 526 413 631 440 q 578 378 561 399 q 606 316 594 357 q 640 169 618 275 l 658 88 l 744 57 l 733 0 l 508 0 l 494 69 m 407 447 q 540 510 489 447 q 590 674 590 572 q 563 752 590 728 q 476 776 536 776 q 410 767 442 776 l 347 447 l 407 447 m 304 -321 l 257 -307 l 306 -62 l 425 -36 l 453 -67 l 304 -321 z "},"Ȑ":{"ha":788,"x_min":-17,"x_max":751,"o":"m 0 0 m 490 69 q 444 285 458 229 q 414 359 429 340 q 365 378 399 378 l 331 378 l 274 88 l 372 57 l 361 0 l -17 0 l -7 57 l 113 88 l 244 764 l 136 794 l 147 851 l 506 851 q 692 806 633 851 q 751 678 751 760 q 690 512 751 583 q 522 413 628 440 q 574 378 557 399 q 602 316 590 357 q 636 169 614 275 l 654 88 l 740 57 l 731 0 l 504 0 l 490 69 m 403 447 q 535 510 485 447 q 586 674 586 572 q 559 752 586 728 q 472 776 532 776 q 406 767 440 776 l 343 447 l 403 447 m 389 883 l 226 1100 l 231 1128 l 349 1128 l 432 910 l 389 883 m 613 883 l 450 1100 l 454 1128 l 572 1128 l 656 910 l 613 883 z "},"Ṛ":{"ha":788,"x_min":-17,"x_max":751,"o":"m 0 0 m 490 69 q 444 285 458 229 q 414 359 429 340 q 365 378 399 378 l 331 378 l 274 88 l 372 57 l 361 0 l -17 0 l -7 57 l 113 88 l 244 764 l 136 794 l 147 851 l 506 851 q 692 806 633 851 q 751 678 751 760 q 690 512 751 583 q 522 413 628 440 q 574 378 557 399 q 602 316 590 357 q 636 169 614 275 l 654 88 l 740 57 l 731 0 l 504 0 l 490 69 m 403 447 q 535 510 485 447 q 586 674 586 572 q 559 752 586 728 q 472 776 532 776 q 406 767 440 776 l 343 447 l 403 447 m 297 -56 q 366 -85 336 -56 q 396 -153 396 -114 q 367 -219 396 -192 q 297 -247 338 -247 q 230 -219 258 -247 q 201 -153 201 -192 q 230 -85 201 -114 q 297 -56 258 -56 z "},"Ȓ":{"ha":788,"x_min":-17,"x_max":751,"o":"m 0 0 m 490 69 q 444 285 458 229 q 414 359 429 340 q 365 378 399 378 l 331 378 l 274 88 l 372 57 l 361 0 l -17 0 l -7 57 l 113 88 l 244 764 l 136 794 l 147 851 l 506 851 q 692 806 633 851 q 751 678 751 760 q 690 512 751 583 q 522 413 628 440 q 574 378 557 399 q 602 316 590 357 q 636 169 614 275 l 654 88 l 740 57 l 731 0 l 504 0 l 490 69 m 403 447 q 535 510 485 447 q 586 674 586 572 q 559 752 586 728 q 472 776 532 776 q 406 767 440 776 l 343 447 l 403 447 m 533 1106 q 675 982 675 1106 q 665 925 675 954 l 597 925 q 601 949 601 936 q 584 994 600 978 q 519 1010 568 1010 q 431 987 457 1010 q 397 925 406 964 l 332 925 q 394 1056 349 1007 q 533 1106 439 1106 z "},"S":{"ha":654,"x_min":-10,"x_max":660,"o":"m 218 -14 q 99 -3 161 -14 q -10 29 38 8 l 35 214 l 100 214 l 108 93 q 242 72 174 72 q 376 113 328 72 q 425 224 425 154 q 404 297 425 267 q 336 347 383 326 l 238 396 q 153 465 192 417 q 114 585 114 513 q 199 796 114 719 q 446 872 285 872 q 660 831 549 872 l 615 639 l 551 639 l 540 767 q 492 780 522 775 q 432 785 463 785 q 309 750 354 785 q 264 647 264 715 q 285 580 264 606 q 353 533 307 554 l 451 485 q 581 293 581 424 q 488 70 581 154 q 218 -14 396 -14 z "},"Ś":{"ha":649,"x_min":-10,"x_max":660,"o":"m 325 889 l 293 929 l 508 1111 l 635 1067 l 635 1038 l 325 889 m 218 -14 q 99 -3 161 -14 q -10 29 38 8 l 35 214 l 100 214 l 108 93 q 242 72 174 72 q 376 113 328 72 q 425 224 425 154 q 403 297 425 267 q 335 347 382 326 l 236 396 q 152 465 190 417 q 114 585 114 513 q 199 795 114 718 q 444 872 283 872 q 660 831 549 872 l 614 639 l 550 639 l 539 767 q 492 779 521 774 q 432 785 463 785 q 308 750 354 785 q 263 647 263 715 q 285 580 263 606 q 353 533 307 554 l 451 485 q 581 293 581 424 q 488 70 581 154 q 218 -14 396 -14 z "},"Ꞌ":{"ha":167,"x_min":35,"x_max":276,"o":"m 93 374 l 35 385 l 126 850 l 249 851 l 276 818 l 93 374 z "},"Š":{"ha":649,"x_min":-10,"x_max":660,"o":"m 294 1108 l 442 1007 l 626 1110 l 657 1072 l 478 893 l 372 893 l 254 1076 l 294 1108 m 218 -14 q 99 -3 161 -14 q -10 29 38 8 l 35 214 l 100 214 l 108 93 q 242 72 174 72 q 376 113 328 72 q 425 224 425 154 q 403 297 425 267 q 335 347 382 326 l 236 396 q 152 465 190 417 q 114 585 114 513 q 199 795 114 718 q 444 872 283 872 q 660 831 549 872 l 614 639 l 550 639 l 539 767 q 492 779 521 774 q 432 785 463 785 q 308 750 354 785 q 263 647 263 715 q 285 580 263 606 q 353 533 307 554 l 451 485 q 581 293 581 424 q 488 70 581 154 q 218 -14 396 -14 z "},"Ş":{"ha":649,"x_min":-14,"x_max":656,"o":"m 576 293 q 493 78 576 161 q 247 -12 410 -4 l 224 -62 q 317 -85 286 -62 q 347 -147 347 -108 q 318 -231 347 -194 q 244 -286 289 -267 q 156 -306 199 -306 q 101 -301 122 -306 q 60 -287 81 -296 l 81 -243 q 129 -251 97 -251 q 197 -228 167 -251 q 226 -171 226 -206 q 149 -119 226 -121 l 144 -99 l 190 -14 q 82 -1 136 -11 q -14 29 28 10 l 32 214 l 96 214 l 104 93 q 238 72 169 72 q 372 113 324 72 q 421 224 421 154 q 400 297 421 267 q 332 347 379 326 l 233 396 q 149 465 188 417 q 110 585 110 513 q 195 796 110 719 q 442 872 281 872 q 656 831 544 872 l 611 639 l 547 639 l 536 767 q 488 780 518 775 q 428 785 458 785 q 305 750 350 785 q 260 647 260 715 q 281 580 260 606 q 349 533 303 554 l 447 485 q 576 293 576 424 z "},"Ŝ":{"ha":654,"x_min":-10,"x_max":660,"o":"m 0 0 m 218 -14 q 99 -3 161 -14 q -10 29 38 8 l 35 214 l 100 214 l 108 93 q 242 72 174 72 q 376 113 328 72 q 425 224 425 154 q 404 297 425 267 q 336 347 383 326 l 238 396 q 153 465 192 417 q 114 585 114 513 q 199 796 114 719 q 446 872 285 872 q 660 831 549 872 l 615 639 l 551 639 l 540 767 q 492 780 522 775 q 432 785 463 785 q 309 750 354 785 q 264 647 264 715 q 285 580 264 606 q 353 533 307 554 l 451 485 q 581 293 581 424 q 488 70 581 154 q 218 -14 396 -14 m 599 893 l 456 996 l 267 893 l 236 929 l 419 1108 l 525 1108 l 638 925 l 599 893 z "},"Ș":{"ha":649,"x_min":-14,"x_max":656,"o":"m 214 -14 q 95 -3 157 -14 q -14 29 33 8 l 32 214 l 96 214 l 104 93 q 238 72 169 72 q 372 113 324 72 q 421 224 421 154 q 400 297 421 267 q 332 347 379 326 l 233 396 q 149 465 188 417 q 110 585 110 513 q 195 796 110 719 q 442 872 281 872 q 656 831 544 872 l 611 639 l 547 639 l 536 767 q 488 780 518 775 q 428 785 458 785 q 305 750 350 785 q 260 647 260 715 q 281 580 260 606 q 349 533 303 554 l 447 485 q 576 293 576 424 q 484 70 576 154 q 214 -14 392 -14 m 165 -321 l 117 -307 l 167 -62 l 286 -36 l 313 -67 l 165 -321 z "},"Ṣ":{"ha":654,"x_min":-10,"x_max":660,"o":"m 0 0 m 218 -14 q 99 -3 161 -14 q -10 29 38 8 l 35 214 l 100 214 l 108 93 q 242 72 174 72 q 376 113 328 72 q 425 224 425 154 q 404 297 425 267 q 336 347 383 326 l 238 396 q 153 465 192 417 q 114 585 114 513 q 199 796 114 719 q 446 872 285 872 q 660 831 549 872 l 615 639 l 551 639 l 540 767 q 492 780 522 775 q 432 785 463 785 q 309 750 354 785 q 264 647 264 715 q 285 580 264 606 q 353 533 307 554 l 451 485 q 581 293 581 424 q 488 70 581 154 q 218 -14 396 -14 m 231 -56 q 299 -85 269 -56 q 329 -153 329 -114 q 300 -219 329 -192 q 231 -247 271 -247 q 163 -219 192 -247 q 135 -153 135 -192 q 163 -85 135 -114 q 231 -56 192 -56 z "},"ẞ":{"ha":808,"x_min":-74,"x_max":818,"o":"m 472 -14 q 378 -3 425 -14 q 297 29 332 8 l 343 215 l 411 215 l 422 89 q 488 72 450 72 q 591 122 553 72 q 629 235 629 171 q 576 335 629 301 q 408 368 522 368 l 393 414 l 660 754 q 536 781 607 781 q 389 726 439 781 q 318 561 339 671 l 226 89 l 256 58 l 244 0 l -74 0 l -62 57 l 64 88 l 150 535 q 283 781 181 692 q 540 871 385 871 q 697 847 625 871 q 818 789 769 824 l 815 743 l 582 442 q 785 247 785 407 q 743 119 785 179 q 629 22 701 58 q 472 -14 557 -14 z "},"Ə":{"ha":861,"x_min":50,"x_max":833,"o":"m 363 -14 q 124 64 197 -14 q 50 292 50 142 q 69 465 50 388 l 653 465 q 657 549 657 507 q 613 730 657 674 q 457 786 569 786 q 296 758 376 786 l 243 639 l 176 639 l 203 818 q 342 858 274 844 q 493 872 411 872 q 752 795 671 872 q 833 553 833 718 q 772 261 833 390 q 602 59 710 132 q 363 -14 494 -14 m 381 71 q 549 159 483 71 q 640 382 614 247 l 232 382 q 225 289 225 322 q 258 126 225 181 q 381 71 292 71 z "},"T":{"ha":686,"x_min":67,"x_max":778,"o":"m 99 851 l 778 851 l 729 640 l 663 640 l 663 765 l 503 765 l 371 88 l 485 57 l 475 0 l 74 0 l 83 57 l 210 88 l 342 765 l 181 765 l 131 640 l 67 640 l 99 851 z "},"Ŧ":{"ha":686,"x_min":54,"x_max":778,"o":"m 729 640 l 663 640 l 663 765 l 503 765 l 446 471 l 675 471 l 661 399 l 432 399 l 371 88 l 485 57 l 475 0 l 74 0 l 83 57 l 210 88 l 271 399 l 54 399 l 67 471 l 285 471 l 342 765 l 181 765 l 131 640 l 67 640 l 99 851 l 778 851 l 729 640 z "},"Ť":{"ha":692,"x_min":74,"x_max":785,"o":"m 315 1108 l 463 1007 l 647 1110 l 676 1072 l 499 893 l 393 893 l 275 1076 l 315 1108 m 106 851 l 785 851 l 736 640 l 669 640 l 669 765 l 510 765 l 378 88 l 492 57 l 482 0 l 81 0 l 90 57 l 217 88 l 349 765 l 188 765 l 138 640 l 74 640 l 106 851 z "},"Ţ":{"ha":692,"x_min":74,"x_max":785,"o":"m 785 851 l 736 640 l 669 640 l 669 765 l 510 765 l 378 88 l 492 57 l 482 0 l 311 0 l 281 -62 q 374 -85 343 -62 q 404 -147 404 -108 q 375 -231 404 -194 q 301 -286 346 -267 q 213 -306 256 -306 q 158 -301 179 -306 q 117 -287 138 -296 l 138 -243 q 186 -251 154 -251 q 253 -228 224 -251 q 283 -171 283 -206 q 206 -119 283 -121 l 201 -99 l 254 0 l 81 0 l 90 57 l 217 88 l 349 765 l 188 765 l 138 640 l 74 640 l 106 851 l 785 851 z "},"Ț":{"ha":692,"x_min":74,"x_max":785,"o":"m 106 851 l 785 851 l 736 640 l 669 640 l 669 765 l 510 765 l 378 88 l 492 57 l 482 0 l 81 0 l 90 57 l 217 88 l 349 765 l 188 765 l 138 640 l 74 640 l 106 851 m 204 -321 l 156 -307 l 206 -62 l 325 -36 l 351 -67 l 204 -321 z "},"Ṭ":{"ha":686,"x_min":67,"x_max":778,"o":"m 67 0 m 99 851 l 778 851 l 729 640 l 663 640 l 663 765 l 503 765 l 371 88 l 485 57 l 475 0 l 74 0 l 83 57 l 210 88 l 342 765 l 181 765 l 131 640 l 67 640 l 99 851 m 246 -56 q 315 -85 285 -56 q 344 -153 344 -114 q 315 -219 344 -192 q 246 -247 286 -247 q 178 -219 207 -247 q 150 -153 150 -192 q 178 -85 150 -114 q 246 -56 207 -56 z "},"U":{"ha":847,"x_min":89,"x_max":942,"o":"m 731 328 q 624 90 706 194 q 363 -14 543 -14 q 99 218 99 -14 q 117 368 99 269 l 194 765 l 89 794 l 100 851 l 482 851 l 471 794 l 354 765 l 278 367 q 260 217 260 279 q 292 108 260 146 q 399 71 324 71 q 640 336 588 71 l 722 765 l 617 794 l 628 851 l 942 851 l 931 794 l 815 765 l 731 328 z "},"Ú":{"ha":874,"x_min":101,"x_max":953,"o":"m 469 889 l 438 929 l 654 1111 l 779 1067 l 779 1038 l 469 889 m 743 328 q 635 90 717 194 q 374 -14 554 -14 q 110 218 110 -14 q 128 368 110 269 l 206 765 l 101 794 l 111 851 l 493 851 l 482 794 l 367 765 l 289 367 q 271 217 271 279 q 303 108 271 146 q 410 71 335 71 q 651 336 599 71 l 733 765 l 628 794 l 639 851 l 953 851 l 942 794 l 828 765 l 743 328 z "},"Ŭ":{"ha":847,"x_min":89,"x_max":942,"o":"m 89 0 m 731 328 q 624 90 706 194 q 363 -14 543 -14 q 99 218 99 -14 q 117 368 99 269 l 194 765 l 89 794 l 100 851 l 482 851 l 471 794 l 354 765 l 278 367 q 260 217 260 279 q 292 108 260 146 q 399 71 324 71 q 640 336 588 71 l 722 765 l 617 794 l 628 851 l 942 851 l 931 794 l 815 765 l 731 328 m 529 913 q 386 1036 386 913 q 397 1093 386 1060 l 464 1093 q 461 1069 461 1079 q 478 1024 463 1040 q 543 1008 494 1008 q 631 1031 606 1008 q 665 1093 656 1053 l 729 1093 q 668 962 713 1011 q 529 913 624 913 z "},"Ǔ":{"ha":847,"x_min":89,"x_max":942,"o":"m 89 0 m 731 328 q 624 90 706 194 q 363 -14 543 -14 q 99 218 99 -14 q 117 368 99 269 l 194 765 l 89 794 l 100 851 l 482 851 l 471 794 l 354 765 l 278 367 q 260 217 260 279 q 292 108 260 146 q 399 71 324 71 q 640 336 588 71 l 722 765 l 617 794 l 628 851 l 942 851 l 931 794 l 815 765 l 731 328 m 397 1108 l 544 1007 l 729 1110 l 760 1072 l 581 893 l 475 893 l 357 1076 l 397 1108 z "},"Û":{"ha":874,"x_min":101,"x_max":953,"o":"m 721 893 l 576 996 l 389 893 l 358 929 l 542 1108 l 647 1108 l 760 925 l 721 893 m 743 328 q 635 90 717 194 q 374 -14 554 -14 q 110 218 110 -14 q 128 368 110 269 l 206 765 l 101 794 l 111 851 l 493 851 l 482 794 l 367 765 l 289 367 q 271 217 271 279 q 303 108 271 146 q 410 71 335 71 q 651 336 599 71 l 733 765 l 628 794 l 639 851 l 953 851 l 942 794 l 828 765 l 743 328 z "},"Ȕ":{"ha":847,"x_min":89,"x_max":942,"o":"m 89 0 m 731 328 q 624 90 706 194 q 363 -14 543 -14 q 99 218 99 -14 q 117 368 99 269 l 194 765 l 89 794 l 100 851 l 482 851 l 471 794 l 354 765 l 278 367 q 260 217 260 279 q 292 108 260 146 q 399 71 324 71 q 640 336 588 71 l 722 765 l 617 794 l 628 851 l 942 851 l 931 794 l 815 765 l 731 328 m 419 883 l 257 1100 l 261 1128 l 379 1128 l 463 910 l 419 883 m 643 883 l 481 1100 l 485 1128 l 603 1128 l 686 910 l 643 883 z "},"Ü":{"ha":874,"x_min":101,"x_max":953,"o":"m 522 1001 q 494 938 522 964 q 428 911 467 911 q 360 938 389 911 q 331 1001 331 964 q 360 1068 331 1040 q 428 1096 389 1096 q 494 1068 467 1096 q 522 1001 522 1040 m 825 1001 q 797 938 825 964 q 732 911 769 911 q 663 938 692 911 q 635 1001 635 964 q 663 1068 635 1040 q 732 1096 692 1096 q 797 1068 769 1096 q 825 1001 825 1040 m 743 328 q 635 90 717 194 q 374 -14 554 -14 q 110 218 110 -14 q 128 368 110 269 l 206 765 l 101 794 l 111 851 l 493 851 l 482 794 l 367 765 l 289 367 q 271 217 271 279 q 303 108 271 146 q 410 71 335 71 q 651 336 599 71 l 733 765 l 628 794 l 639 851 l 953 851 l 942 794 l 828 765 l 743 328 z "},"Ǘ":{"ha":847,"x_min":89,"x_max":942,"o":"m 89 0 m 731 328 q 624 90 706 194 q 363 -14 543 -14 q 99 218 99 -14 q 117 368 99 269 l 194 765 l 89 794 l 100 851 l 482 851 l 471 794 l 354 765 l 278 367 q 260 217 260 279 q 292 108 260 146 q 399 71 324 71 q 640 336 588 71 l 722 765 l 617 794 l 628 851 l 942 851 l 931 794 l 815 765 l 731 328 m 497 1001 q 469 938 497 964 q 403 911 442 911 q 335 938 364 911 q 306 1001 306 964 q 335 1068 306 1040 q 403 1096 364 1096 q 469 1068 442 1096 q 497 1001 497 1040 m 801 1001 q 773 938 801 964 q 707 911 744 911 q 638 938 667 911 q 610 1001 610 964 q 638 1068 610 1040 q 707 1096 667 1096 q 773 1068 744 1096 q 801 1001 801 1040 m 533 1133 l 501 1174 l 717 1356 l 843 1311 l 843 1282 l 533 1133 z "},"Ǚ":{"ha":847,"x_min":89,"x_max":942,"o":"m 89 0 m 731 328 q 624 90 706 194 q 363 -14 543 -14 q 99 218 99 -14 q 117 368 99 269 l 194 765 l 89 794 l 100 851 l 482 851 l 471 794 l 354 765 l 278 367 q 260 217 260 279 q 292 108 260 146 q 399 71 324 71 q 640 336 588 71 l 722 765 l 617 794 l 628 851 l 942 851 l 931 794 l 815 765 l 731 328 m 497 1001 q 469 938 497 964 q 403 911 442 911 q 335 938 364 911 q 306 1001 306 964 q 335 1068 306 1040 q 403 1096 364 1096 q 469 1068 442 1096 q 497 1001 497 1040 m 801 1001 q 773 938 801 964 q 707 911 744 911 q 638 938 667 911 q 610 1001 610 964 q 638 1068 610 1040 q 707 1096 667 1096 q 773 1068 744 1096 q 801 1001 801 1040 m 446 1353 l 593 1251 l 778 1354 l 808 1317 l 629 1138 l 524 1138 l 406 1321 l 446 1353 z "},"Ǜ":{"ha":847,"x_min":89,"x_max":942,"o":"m 89 0 m 731 328 q 624 90 706 194 q 363 -14 543 -14 q 99 218 99 -14 q 117 368 99 269 l 194 765 l 89 794 l 100 851 l 482 851 l 471 794 l 354 765 l 278 367 q 260 217 260 279 q 292 108 260 146 q 399 71 324 71 q 640 336 588 71 l 722 765 l 617 794 l 628 851 l 942 851 l 931 794 l 815 765 l 731 328 m 497 1001 q 469 938 497 964 q 403 911 442 911 q 335 938 364 911 q 306 1001 306 964 q 335 1068 306 1040 q 403 1096 364 1096 q 469 1068 442 1096 q 497 1001 497 1040 m 801 1001 q 773 938 801 964 q 707 911 744 911 q 638 938 667 911 q 610 1001 610 964 q 638 1068 610 1040 q 707 1096 667 1096 q 773 1068 744 1096 q 801 1001 801 1040 m 642 1133 l 328 1282 l 332 1311 l 456 1356 l 669 1174 l 642 1133 z "},"Ǖ":{"ha":847,"x_min":89,"x_max":942,"o":"m 89 0 m 731 328 q 624 90 706 194 q 363 -14 543 -14 q 99 218 99 -14 q 117 368 99 269 l 194 765 l 89 794 l 100 851 l 482 851 l 471 794 l 354 765 l 278 367 q 260 217 260 279 q 292 108 260 146 q 399 71 324 71 q 640 336 588 71 l 722 765 l 617 794 l 628 851 l 942 851 l 931 794 l 815 765 l 731 328 m 497 1001 q 469 938 497 964 q 403 911 442 911 q 335 938 364 911 q 306 1001 306 964 q 335 1068 306 1040 q 403 1096 364 1096 q 469 1068 442 1096 q 497 1001 497 1040 m 801 1001 q 773 938 801 964 q 707 911 744 911 q 638 938 667 911 q 610 1001 610 964 q 638 1068 610 1040 q 707 1096 667 1096 q 773 1068 744 1096 q 801 1001 801 1040 m 433 1290 l 783 1290 l 769 1193 l 419 1193 l 433 1290 z "},"Ụ":{"ha":847,"x_min":89,"x_max":942,"o":"m 89 0 m 731 328 q 624 90 706 194 q 363 -14 543 -14 q 99 218 99 -14 q 117 368 99 269 l 194 765 l 89 794 l 100 851 l 482 851 l 471 794 l 354 765 l 278 367 q 260 217 260 279 q 292 108 260 146 q 399 71 324 71 q 640 336 588 71 l 722 765 l 617 794 l 628 851 l 942 851 l 931 794 l 815 765 l 731 328 m 326 -56 q 395 -85 365 -56 q 425 -153 425 -114 q 396 -219 425 -192 q 326 -247 367 -247 q 259 -219 288 -247 q 231 -153 231 -192 q 259 -85 231 -114 q 326 -56 288 -56 z "},"Ù":{"ha":874,"x_min":101,"x_max":953,"o":"m 682 889 l 368 1038 l 372 1067 l 496 1111 l 710 929 l 682 889 m 743 328 q 635 90 717 194 q 374 -14 554 -14 q 110 218 110 -14 q 128 368 110 269 l 206 765 l 101 794 l 111 851 l 493 851 l 482 794 l 367 765 l 289 367 q 271 217 271 279 q 303 108 271 146 q 410 71 335 71 q 651 336 599 71 l 733 765 l 628 794 l 639 851 l 953 851 l 942 794 l 828 765 l 743 328 z "},"Ủ":{"ha":847,"x_min":89,"x_max":942,"o":"m 89 0 m 731 328 q 624 90 706 194 q 363 -14 543 -14 q 99 218 99 -14 q 117 368 99 269 l 194 765 l 89 794 l 100 851 l 482 851 l 471 794 l 354 765 l 278 367 q 260 217 260 279 q 292 108 260 146 q 399 71 324 71 q 640 336 588 71 l 722 765 l 617 794 l 628 851 l 942 851 l 931 794 l 815 765 l 731 328 m 515 931 q 515 944 514 938 q 515 951 515 950 q 528 977 517 968 q 564 996 540 986 q 599 1015 588 1006 q 611 1039 611 1024 q 567 1065 611 1065 q 532 1063 560 1065 l 514 1024 l 463 1024 l 468 1097 q 588 1110 546 1110 q 676 1092 644 1110 q 707 1043 707 1075 q 651 979 707 999 q 622 969 642 975 q 590 953 601 963 q 578 931 579 944 l 515 931 z "},"Ư":{"ha":847,"x_min":89,"x_max":999,"o":"m 999 940 q 969 864 999 897 q 890 810 940 831 l 818 778 l 731 328 q 624 90 706 194 q 363 -14 543 -14 q 99 218 99 -14 q 117 368 99 269 l 194 765 l 89 794 l 100 851 l 482 851 l 471 794 l 354 765 l 278 367 q 260 217 260 279 q 292 108 260 146 q 399 71 324 71 q 640 336 588 71 l 722 765 l 617 794 l 628 851 l 774 851 q 846 867 821 851 q 871 925 871 882 q 864 982 871 951 l 872 1000 l 981 1019 q 994 979 989 1001 q 999 940 999 957 z "},"Ứ":{"ha":847,"x_min":89,"x_max":999,"o":"m 89 0 m 999 940 q 969 864 999 897 q 890 810 940 831 l 818 778 l 731 328 q 624 90 706 194 q 363 -14 543 -14 q 99 218 99 -14 q 117 368 99 269 l 194 765 l 89 794 l 100 851 l 482 851 l 471 794 l 354 765 l 278 367 q 260 217 260 279 q 292 108 260 146 q 399 71 324 71 q 640 336 588 71 l 722 765 l 617 794 l 628 851 l 774 851 q 846 867 821 851 q 871 925 871 882 q 864 982 871 951 l 872 1000 l 981 1019 q 994 979 989 1001 q 999 940 999 957 m 485 889 l 453 929 l 668 1111 l 794 1067 l 794 1038 l 485 889 z "},"Ự":{"ha":847,"x_min":89,"x_max":999,"o":"m 89 0 m 999 940 q 969 864 999 897 q 890 810 940 831 l 818 778 l 731 328 q 624 90 706 194 q 363 -14 543 -14 q 99 218 99 -14 q 117 368 99 269 l 194 765 l 89 794 l 100 851 l 482 851 l 471 794 l 354 765 l 278 367 q 260 217 260 279 q 292 108 260 146 q 399 71 324 71 q 640 336 588 71 l 722 765 l 617 794 l 628 851 l 774 851 q 846 867 821 851 q 871 925 871 882 q 864 982 871 951 l 872 1000 l 981 1019 q 994 979 989 1001 q 999 940 999 957 m 326 -56 q 395 -85 365 -56 q 425 -153 425 -114 q 396 -219 425 -192 q 326 -247 367 -247 q 259 -219 288 -247 q 231 -153 231 -192 q 259 -85 231 -114 q 326 -56 288 -56 z "},"Ừ":{"ha":847,"x_min":89,"x_max":999,"o":"m 89 0 m 999 940 q 969 864 999 897 q 890 810 940 831 l 818 778 l 731 328 q 624 90 706 194 q 363 -14 543 -14 q 99 218 99 -14 q 117 368 99 269 l 194 765 l 89 794 l 100 851 l 482 851 l 471 794 l 354 765 l 278 367 q 260 217 260 279 q 292 108 260 146 q 399 71 324 71 q 640 336 588 71 l 722 765 l 617 794 l 628 851 l 774 851 q 846 867 821 851 q 871 925 871 882 q 864 982 871 951 l 872 1000 l 981 1019 q 994 979 989 1001 q 999 940 999 957 m 593 889 l 279 1038 l 283 1067 l 407 1111 l 621 929 l 593 889 z "},"Ử":{"ha":847,"x_min":89,"x_max":999,"o":"m 89 0 m 999 940 q 969 864 999 897 q 890 810 940 831 l 818 778 l 731 328 q 624 90 706 194 q 363 -14 543 -14 q 99 218 99 -14 q 117 368 99 269 l 194 765 l 89 794 l 100 851 l 482 851 l 471 794 l 354 765 l 278 367 q 260 217 260 279 q 292 108 260 146 q 399 71 324 71 q 640 336 588 71 l 722 765 l 617 794 l 628 851 l 774 851 q 846 867 821 851 q 871 925 871 882 q 864 982 871 951 l 872 1000 l 981 1019 q 994 979 989 1001 q 999 940 999 957 m 515 931 q 515 944 514 938 q 515 951 515 950 q 528 977 517 968 q 564 996 540 986 q 599 1015 588 1006 q 611 1039 611 1024 q 567 1065 611 1065 q 532 1063 560 1065 l 514 1024 l 463 1024 l 468 1097 q 588 1110 546 1110 q 676 1092 644 1110 q 707 1043 707 1075 q 651 979 707 999 q 622 969 642 975 q 590 953 601 963 q 578 931 579 944 l 515 931 z "},"Ữ":{"ha":847,"x_min":89,"x_max":999,"o":"m 89 0 m 999 940 q 969 864 999 897 q 890 810 940 831 l 818 778 l 731 328 q 624 90 706 194 q 363 -14 543 -14 q 99 218 99 -14 q 117 368 99 269 l 194 765 l 89 794 l 100 851 l 482 851 l 471 794 l 354 765 l 278 367 q 260 217 260 279 q 292 108 260 146 q 399 71 324 71 q 640 336 588 71 l 722 765 l 617 794 l 628 851 l 774 851 q 846 867 821 851 q 871 925 871 882 q 864 982 871 951 l 872 1000 l 981 1019 q 994 979 989 1001 q 999 940 999 957 m 783 1057 q 728 954 756 992 q 669 917 701 917 q 543 944 635 917 q 483 962 513 954 q 438 969 453 969 q 410 960 422 969 q 389 939 397 950 q 379 925 381 928 l 322 947 q 374 1049 344 1010 q 438 1088 404 1088 q 563 1060 471 1088 q 623 1042 593 1050 q 669 1035 653 1035 q 698 1045 685 1035 q 719 1066 711 1056 q 729 1081 728 1076 l 783 1057 z "},"Ű":{"ha":874,"x_min":101,"x_max":953,"o":"m 431 885 l 394 910 l 518 1128 l 638 1128 l 638 1100 l 431 885 m 654 885 l 618 910 l 742 1128 l 861 1128 l 861 1100 l 654 885 m 743 328 q 635 90 717 194 q 374 -14 554 -14 q 110 218 110 -14 q 128 368 110 269 l 206 765 l 101 794 l 111 851 l 493 851 l 482 794 l 367 765 l 289 367 q 271 217 271 279 q 303 108 271 146 q 410 71 335 71 q 651 336 599 71 l 733 765 l 628 794 l 639 851 l 953 851 l 942 794 l 828 765 l 743 328 z "},"Ȗ":{"ha":847,"x_min":89,"x_max":942,"o":"m 89 0 m 731 328 q 624 90 706 194 q 363 -14 543 -14 q 99 218 99 -14 q 117 368 99 269 l 194 765 l 89 794 l 100 851 l 482 851 l 471 794 l 354 765 l 278 367 q 260 217 260 279 q 292 108 260 146 q 399 71 324 71 q 640 336 588 71 l 722 765 l 617 794 l 628 851 l 942 851 l 931 794 l 815 765 l 731 328 m 564 1106 q 706 982 706 1106 q 696 925 706 954 l 628 925 q 632 949 632 936 q 615 994 631 978 q 550 1010 599 1010 q 462 987 488 1010 q 428 925 436 964 l 363 925 q 424 1056 379 1007 q 564 1106 469 1106 z "},"Ū":{"ha":874,"x_min":101,"x_max":953,"o":"m 413 1046 l 763 1046 l 749 949 l 399 949 l 413 1046 m 743 328 q 635 90 717 194 q 374 -14 554 -14 q 110 218 110 -14 q 128 368 110 269 l 206 765 l 101 794 l 111 851 l 493 851 l 482 794 l 367 765 l 289 367 q 271 217 271 279 q 303 108 271 146 q 410 71 335 71 q 651 336 599 71 l 733 765 l 628 794 l 639 851 l 953 851 l 942 794 l 828 765 l 743 328 z "},"Ų":{"ha":874,"x_min":101,"x_max":953,"o":"m 743 328 q 514 11 692 78 q 433 -51 465 -12 q 385 -127 400 -89 q 371 -190 371 -165 q 428 -250 371 -250 q 511 -219 471 -250 l 536 -247 q 515 -271 536 -250 q 460 -310 494 -292 q 381 -328 425 -328 q 286 -299 315 -328 q 257 -225 257 -269 q 297 -118 257 -178 q 407 -12 338 -58 l 374 -14 q 110 218 110 -14 q 128 368 110 269 l 206 765 l 101 794 l 111 851 l 493 851 l 482 794 l 367 765 l 289 367 q 271 217 271 279 q 303 108 271 146 q 410 71 335 71 q 651 336 599 71 l 733 765 l 628 794 l 639 851 l 953 851 l 942 794 l 828 765 l 743 328 z "},"Ů":{"ha":874,"x_min":101,"x_max":953,"o":"m 567 876 q 472 903 506 876 q 438 975 438 929 q 483 1092 438 1046 q 617 1138 529 1138 q 709 1108 678 1138 q 740 1032 740 1079 q 692 920 740 964 q 567 876 643 876 m 576 936 q 633 964 617 936 q 649 1031 649 992 q 636 1065 649 1053 q 600 1078 624 1078 q 545 1050 561 1078 q 529 983 529 1022 q 539 948 529 960 q 576 936 549 936 m 374 -14 q 110 218 110 -14 q 128 368 110 269 l 206 765 l 101 794 l 111 851 l 493 851 l 482 794 l 367 765 l 289 367 q 271 217 271 279 q 303 108 271 146 q 410 71 335 71 q 651 336 599 71 l 733 765 l 628 794 l 639 851 l 953 851 l 942 794 l 828 765 l 743 328 q 635 90 717 194 q 374 -14 554 -14 z "},"Ũ":{"ha":874,"x_min":104,"x_max":956,"o":"m 804 1057 q 749 954 776 992 q 690 917 722 917 q 563 944 657 917 q 502 962 532 954 q 457 969 472 969 q 430 960 443 969 q 408 939 417 950 q 399 925 400 928 l 342 947 q 396 1049 365 1010 q 458 1088 426 1088 q 581 1060 492 1088 q 643 1042 613 1050 q 690 1035 674 1035 q 718 1045 706 1035 q 739 1066 731 1056 q 749 1081 747 1076 l 804 1057 m 746 328 q 638 90 719 194 q 376 -14 557 -14 q 113 218 113 -14 q 131 368 113 269 l 208 765 l 104 794 l 114 851 l 496 851 l 485 794 l 369 765 l 292 367 q 274 217 274 279 q 306 108 274 146 q 413 71 338 71 q 574 144 515 71 q 654 336 632 218 l 736 765 l 631 794 l 642 851 l 956 851 l 944 794 l 831 765 l 746 328 z "},"V":{"ha":736,"x_min":60,"x_max":857,"o":"m 568 794 l 578 851 l 857 851 l 847 793 l 747 764 l 358 4 l 251 -11 l 147 764 l 60 794 l 71 851 l 407 851 l 396 794 l 308 767 l 375 215 l 654 767 l 568 794 z "},"W":{"ha":1101,"x_min":63,"x_max":1214,"o":"m 922 794 l 933 851 l 1214 851 l 1204 796 l 1104 764 l 764 4 l 658 -15 l 594 564 l 342 4 l 232 -15 l 150 764 l 63 794 l 74 851 l 408 851 l 397 794 l 311 767 l 361 249 l 588 765 l 728 790 l 785 244 l 1008 767 l 922 794 z "},"Ẃ":{"ha":1101,"x_min":63,"x_max":1214,"o":"m 63 0 m 922 794 l 933 851 l 1214 851 l 1204 796 l 1104 764 l 764 4 l 658 -15 l 594 564 l 342 4 l 232 -15 l 150 764 l 63 794 l 74 851 l 408 851 l 397 794 l 311 767 l 361 249 l 588 765 l 728 790 l 785 244 l 1008 767 l 922 794 m 611 889 l 579 929 l 794 1111 l 921 1067 l 921 1038 l 611 889 z "},"Ŵ":{"ha":1101,"x_min":63,"x_max":1214,"o":"m 63 0 m 922 794 l 933 851 l 1214 851 l 1204 796 l 1104 764 l 764 4 l 658 -15 l 594 564 l 342 4 l 232 -15 l 150 764 l 63 794 l 74 851 l 408 851 l 397 794 l 311 767 l 361 249 l 588 765 l 728 790 l 785 244 l 1008 767 l 922 794 m 822 893 l 679 996 l 490 893 l 460 929 l 643 1108 l 749 1108 l 861 925 l 822 893 z "},"Ẅ":{"ha":1101,"x_min":63,"x_max":1214,"o":"m 63 0 m 922 794 l 933 851 l 1214 851 l 1204 796 l 1104 764 l 764 4 l 658 -15 l 594 564 l 342 4 l 232 -15 l 150 764 l 63 794 l 74 851 l 408 851 l 397 794 l 311 767 l 361 249 l 588 765 l 728 790 l 785 244 l 1008 767 l 922 794 m 624 1001 q 596 938 624 964 q 529 911 568 911 q 461 938 490 911 q 432 1001 432 964 q 461 1068 432 1040 q 529 1096 490 1096 q 596 1068 568 1096 q 624 1001 624 1040 m 928 1001 q 899 938 928 964 q 833 911 871 911 q 765 938 793 911 q 736 1001 736 964 q 765 1068 736 1040 q 833 1096 793 1096 q 899 1068 871 1096 q 928 1001 928 1040 z "},"Ẁ":{"ha":1101,"x_min":63,"x_max":1214,"o":"m 63 0 m 922 794 l 933 851 l 1214 851 l 1204 796 l 1104 764 l 764 4 l 658 -15 l 594 564 l 342 4 l 232 -15 l 150 764 l 63 794 l 74 851 l 408 851 l 397 794 l 311 767 l 361 249 l 588 765 l 728 790 l 785 244 l 1008 767 l 922 794 m 719 889 l 406 1038 l 410 1067 l 533 1111 l 747 929 l 719 889 z "},"X":{"ha":765,"x_min":-65,"x_max":856,"o":"m -65 0 l -56 57 l 38 85 l 314 418 l 174 767 l 92 794 l 103 851 l 447 851 l 436 792 l 344 767 l 439 531 l 643 767 l 556 792 l 568 851 l 856 851 l 844 794 l 750 767 l 472 446 l 621 83 l 713 57 l 701 0 l 353 0 l 364 60 l 449 83 l 347 332 l 144 85 l 232 57 l 221 0 l -65 0 z "},"Y":{"ha":706,"x_min":68,"x_max":817,"o":"m 525 794 l 536 851 l 817 851 l 806 796 l 707 764 l 428 340 l 379 88 l 494 57 l 485 0 l 82 0 l 93 57 l 219 88 l 271 351 l 153 763 l 68 794 l 79 850 l 413 851 l 401 793 l 311 764 l 399 440 l 611 767 l 525 794 z "},"Ý":{"ha":714,"x_min":75,"x_max":824,"o":"m 383 889 l 351 929 l 567 1111 l 693 1067 l 693 1038 l 383 889 m 532 794 l 543 851 l 824 851 l 814 796 l 714 764 l 436 340 l 388 88 l 503 57 l 492 0 l 90 0 l 100 57 l 228 88 l 279 351 l 161 763 l 75 794 l 86 850 l 419 851 l 408 793 l 318 764 l 407 440 l 618 767 l 532 794 z "},"Ŷ":{"ha":714,"x_min":75,"x_max":824,"o":"m 643 893 l 500 996 l 311 893 l 282 929 l 464 1108 l 571 1108 l 682 925 l 643 893 m 532 794 l 543 851 l 824 851 l 814 796 l 714 764 l 436 340 l 388 88 l 503 57 l 492 0 l 90 0 l 100 57 l 228 88 l 279 351 l 161 763 l 75 794 l 86 850 l 419 851 l 408 793 l 318 764 l 407 440 l 618 767 l 532 794 z "},"Ÿ":{"ha":714,"x_min":75,"x_max":824,"o":"m 449 1001 q 421 938 449 964 q 354 911 393 911 q 286 938 315 911 q 257 1001 257 964 q 286 1068 257 1040 q 354 1096 315 1096 q 421 1068 393 1096 q 449 1001 449 1040 m 753 1001 q 724 938 753 964 q 658 911 696 911 q 590 938 618 911 q 561 1001 561 964 q 590 1068 561 1040 q 658 1096 618 1096 q 724 1068 696 1096 q 753 1001 753 1040 m 532 794 l 543 851 l 824 851 l 814 796 l 714 764 l 436 340 l 388 88 l 503 57 l 492 0 l 90 0 l 100 57 l 228 88 l 279 351 l 161 763 l 75 794 l 86 850 l 419 851 l 408 793 l 318 764 l 407 440 l 618 767 l 532 794 z "},"Ỵ":{"ha":706,"x_min":68,"x_max":817,"o":"m 68 0 m 525 794 l 536 851 l 817 851 l 806 796 l 707 764 l 428 340 l 379 88 l 494 57 l 485 0 l 82 0 l 93 57 l 219 88 l 271 351 l 153 763 l 68 794 l 79 850 l 413 851 l 401 793 l 311 764 l 399 440 l 611 767 l 525 794 m 256 -56 q 324 -85 294 -56 q 354 -153 354 -114 q 325 -219 354 -192 q 256 -247 296 -247 q 188 -219 217 -247 q 160 -153 160 -192 q 188 -85 160 -114 q 256 -56 217 -56 z "},"Ỳ":{"ha":714,"x_min":75,"x_max":824,"o":"m 590 889 l 276 1038 l 281 1067 l 406 1111 l 619 929 l 590 889 m 90 0 l 100 57 l 228 88 l 279 351 l 161 763 l 75 794 l 86 850 l 419 851 l 408 793 l 318 764 l 407 440 l 618 767 l 532 794 l 543 851 l 824 851 l 814 796 l 714 764 l 436 340 l 388 88 l 503 57 l 492 0 l 90 0 z "},"Ỷ":{"ha":706,"x_min":68,"x_max":817,"o":"m 68 0 m 525 794 l 536 851 l 817 851 l 806 796 l 707 764 l 428 340 l 379 88 l 494 57 l 485 0 l 82 0 l 93 57 l 219 88 l 271 351 l 153 763 l 68 794 l 79 850 l 413 851 l 401 793 l 311 764 l 399 440 l 611 767 l 525 794 m 444 931 q 444 944 443 938 q 444 951 444 950 q 458 977 446 968 q 493 996 469 986 q 528 1015 517 1006 q 540 1039 540 1024 q 496 1065 540 1065 q 461 1063 489 1065 l 443 1024 l 392 1024 l 397 1097 q 517 1110 475 1110 q 605 1092 574 1110 q 636 1043 636 1075 q 581 979 636 999 q 551 969 571 975 q 519 953 531 963 q 507 931 508 944 l 444 931 z "},"Ȳ":{"ha":706,"x_min":68,"x_max":817,"o":"m 68 0 m 525 794 l 536 851 l 817 851 l 806 796 l 707 764 l 428 340 l 379 88 l 494 57 l 485 0 l 82 0 l 93 57 l 219 88 l 271 351 l 153 763 l 68 794 l 79 850 l 413 851 l 401 793 l 311 764 l 399 440 l 611 767 l 525 794 m 314 1046 l 664 1046 l 650 949 l 300 949 l 314 1046 z "},"Ỹ":{"ha":714,"x_min":75,"x_max":824,"o":"m 731 1057 q 675 953 703 990 q 615 917 647 917 q 490 944 582 917 q 428 962 458 954 q 383 969 399 969 q 356 960 369 969 q 335 939 343 950 q 325 925 326 928 l 268 947 q 322 1049 292 1011 q 383 1088 351 1088 q 508 1060 417 1088 q 617 1035 592 1035 q 644 1045 632 1035 q 665 1066 657 1056 q 675 1081 674 1076 l 731 1057 m 532 794 l 543 851 l 824 851 l 814 796 l 714 764 l 436 340 l 388 88 l 503 57 l 492 0 l 90 0 l 100 57 l 228 88 l 279 351 l 161 763 l 75 794 l 86 850 l 419 851 l 408 793 l 318 764 l 407 440 l 618 767 l 532 794 z "},"Z":{"ha":674,"x_min":-29,"x_max":726,"o":"m 615 218 l 563 0 l -15 0 l -29 46 l 517 764 l 239 764 l 189 656 l 121 656 l 147 851 l 726 851 l 725 806 l 179 89 l 476 89 l 551 218 l 615 218 z "},"Ź":{"ha":674,"x_min":-36,"x_max":719,"o":"m 322 889 l 290 929 l 506 1111 l 632 1067 l 632 1038 l 322 889 m 610 218 l 556 0 l -22 0 l -36 46 l 510 764 l 233 764 l 182 656 l 115 656 l 140 851 l 719 851 l 718 806 l 172 89 l 469 89 l 544 218 l 610 218 z "},"Ž":{"ha":674,"x_min":-36,"x_max":719,"o":"m 304 1108 l 451 1007 l 635 1110 l 665 1072 l 488 893 l 382 893 l 264 1076 l 304 1108 m 610 218 l 556 0 l -22 0 l -36 46 l 510 764 l 233 764 l 182 656 l 115 656 l 140 851 l 719 851 l 718 806 l 172 89 l 469 89 l 544 218 l 610 218 z "},"Ż":{"ha":674,"x_min":-36,"x_max":719,"o":"m 536 999 q 506 928 536 957 q 433 899 475 899 q 358 928 390 899 q 326 999 326 957 q 358 1072 326 1040 q 433 1103 390 1103 q 506 1072 475 1103 q 536 999 536 1040 m 610 218 l 556 0 l -22 0 l -36 46 l 510 764 l 233 764 l 182 656 l 115 656 l 140 851 l 719 851 l 718 806 l 172 89 l 469 89 l 544 218 l 610 218 z "},"Ẓ":{"ha":674,"x_min":-29,"x_max":726,"o":"m 0 0 m 615 218 l 563 0 l -15 0 l -29 46 l 517 764 l 239 764 l 189 656 l 121 656 l 147 851 l 726 851 l 725 806 l 179 89 l 476 89 l 551 218 l 615 218 m 239 -56 q 308 -85 278 -56 q 338 -153 338 -114 q 308 -219 338 -192 q 239 -247 279 -247 q 172 -219 200 -247 q 143 -153 143 -192 q 172 -85 143 -114 q 239 -56 200 -56 z "},"a":{"ha":742,"x_min":46,"x_max":683,"o":"m 601 292 q 581 149 586 210 q 575 83 576 88 l 681 83 l 681 26 q 500 -12 581 -12 q 438 4 460 -12 q 417 54 417 21 q 420 93 418 71 q 424 124 422 115 q 327 25 382 63 q 221 -12 272 -12 q 46 199 46 -12 q 97 467 46 351 q 236 646 147 583 q 435 708 325 708 q 493 703 464 708 q 542 694 522 699 q 567 688 561 689 l 607 736 l 683 724 l 601 292 m 271 92 q 354 133 304 92 q 431 215 404 174 q 472 426 432 215 l 507 603 q 429 624 469 624 q 310 566 360 624 q 234 413 260 508 q 208 201 208 317 q 224 117 208 142 q 271 92 240 92 z "},"á":{"ha":742,"x_min":46,"x_max":683,"o":"m 46 0 m 601 292 q 581 149 586 210 q 575 83 576 88 l 681 83 l 681 26 q 500 -12 581 -12 q 438 4 460 -12 q 417 54 417 21 q 420 93 418 71 q 424 124 422 115 q 327 25 382 63 q 221 -12 272 -12 q 46 199 46 -12 q 97 467 46 351 q 236 646 147 583 q 435 708 325 708 q 493 703 464 708 q 542 694 522 699 q 567 688 561 689 l 607 736 l 683 724 l 601 292 m 271 92 q 354 133 304 92 q 431 215 404 174 q 472 426 432 215 l 507 603 q 429 624 469 624 q 310 566 360 624 q 234 413 260 508 q 208 201 208 317 q 224 117 208 142 q 271 92 240 92 m 347 792 l 315 832 l 531 1014 l 657 969 l 657 940 l 347 792 z "},"ă":{"ha":742,"x_min":46,"x_max":683,"o":"m 439 815 q 297 939 297 815 q 307 996 297 957 l 375 996 q 371 972 371 986 q 389 927 372 943 q 453 911 406 911 q 541 933 515 911 q 575 996 567 956 l 640 996 q 578 865 624 914 q 439 815 533 815 m 601 292 q 581 149 586 210 q 575 83 576 88 l 681 83 l 681 26 q 500 -12 581 -12 q 438 4 460 -12 q 417 54 417 21 q 420 93 418 71 q 424 124 422 115 q 327 25 382 63 q 221 -12 272 -12 q 46 199 46 -12 q 97 467 46 351 q 236 646 147 583 q 435 708 325 708 q 493 703 464 708 q 542 694 522 699 q 567 688 561 689 l 607 736 l 683 724 l 601 292 m 271 92 q 354 133 304 92 q 431 215 404 174 q 472 426 432 215 l 507 603 q 429 624 469 624 q 310 566 360 624 q 234 413 260 508 q 208 201 208 317 q 224 117 208 142 q 271 92 240 92 z "},"ắ":{"ha":742,"x_min":46,"x_max":738,"o":"m 46 0 m 601 292 q 581 149 586 210 q 575 83 576 88 l 681 83 l 681 26 q 500 -12 581 -12 q 438 4 460 -12 q 417 54 417 21 q 420 93 418 71 q 424 124 422 115 q 327 25 382 63 q 221 -12 272 -12 q 46 199 46 -12 q 97 467 46 351 q 236 646 147 583 q 435 708 325 708 q 493 703 464 708 q 542 694 522 699 q 567 688 561 689 l 607 736 l 683 724 l 601 292 m 271 92 q 354 133 304 92 q 431 215 404 174 q 472 426 432 215 l 507 603 q 429 624 469 624 q 310 566 360 624 q 234 413 260 508 q 208 201 208 317 q 224 117 208 142 q 271 92 240 92 m 443 744 q 300 868 300 744 q 311 925 300 892 l 378 925 q 375 901 375 911 q 392 856 376 872 q 457 840 408 840 q 544 863 519 840 q 579 925 569 885 l 643 925 q 582 794 626 843 q 443 744 538 744 m 428 915 l 396 956 l 611 1138 l 738 1093 l 738 1064 l 428 915 z "},"ặ":{"ha":742,"x_min":46,"x_max":683,"o":"m 46 0 m 601 292 q 581 149 586 210 q 575 83 576 88 l 681 83 l 681 26 q 500 -12 581 -12 q 438 4 460 -12 q 417 54 417 21 q 420 93 418 71 q 424 124 422 115 q 327 25 382 63 q 221 -12 272 -12 q 46 199 46 -12 q 97 467 46 351 q 236 646 147 583 q 435 708 325 708 q 493 703 464 708 q 542 694 522 699 q 567 688 561 689 l 607 736 l 683 724 l 601 292 m 271 92 q 354 133 304 92 q 431 215 404 174 q 472 426 432 215 l 507 603 q 429 624 469 624 q 310 566 360 624 q 234 413 260 508 q 208 201 208 317 q 224 117 208 142 q 271 92 240 92 m 274 -56 q 342 -85 313 -56 q 372 -153 372 -114 q 343 -219 372 -192 q 274 -247 314 -247 q 206 -219 235 -247 q 178 -153 178 -192 q 206 -85 178 -114 q 274 -56 235 -56 m 456 815 q 314 939 314 815 q 324 996 314 967 l 392 996 q 388 972 388 986 q 405 927 389 943 q 469 911 421 911 q 558 934 532 911 q 592 996 583 957 l 656 996 q 594 865 639 914 q 456 815 550 815 z "},"ằ":{"ha":742,"x_min":46,"x_max":683,"o":"m 46 0 m 601 292 q 581 149 586 210 q 575 83 576 88 l 681 83 l 681 26 q 500 -12 581 -12 q 438 4 460 -12 q 417 54 417 21 q 420 93 418 71 q 424 124 422 115 q 327 25 382 63 q 221 -12 272 -12 q 46 199 46 -12 q 97 467 46 351 q 236 646 147 583 q 435 708 325 708 q 493 703 464 708 q 542 694 522 699 q 567 688 561 689 l 607 736 l 683 724 l 601 292 m 271 92 q 354 133 304 92 q 431 215 404 174 q 472 426 432 215 l 507 603 q 429 624 469 624 q 310 566 360 624 q 234 413 260 508 q 208 201 208 317 q 224 117 208 142 q 271 92 240 92 m 443 744 q 300 868 300 744 q 311 925 300 892 l 378 925 q 375 901 375 911 q 392 856 376 872 q 457 840 408 840 q 544 863 519 840 q 579 925 569 885 l 643 925 q 582 794 626 843 q 443 744 538 744 m 538 915 l 224 1064 l 228 1093 l 351 1138 l 565 956 l 538 915 z "},"ẳ":{"ha":742,"x_min":46,"x_max":683,"o":"m 46 0 m 601 292 q 581 149 586 210 q 575 83 576 88 l 681 83 l 681 26 q 500 -12 581 -12 q 438 4 460 -12 q 417 54 417 21 q 420 93 418 71 q 424 124 422 115 q 327 25 382 63 q 221 -12 272 -12 q 46 199 46 -12 q 97 467 46 351 q 236 646 147 583 q 435 708 325 708 q 493 703 464 708 q 542 694 522 699 q 567 688 561 689 l 607 736 l 683 724 l 601 292 m 271 92 q 354 133 304 92 q 431 215 404 174 q 472 426 432 215 l 507 603 q 429 624 469 624 q 310 566 360 624 q 234 413 260 508 q 208 201 208 317 q 224 117 208 142 q 271 92 240 92 m 443 744 q 300 868 300 744 q 311 925 300 892 l 378 925 q 375 901 375 911 q 392 856 376 872 q 457 840 408 840 q 544 863 519 840 q 579 925 569 885 l 643 925 q 582 794 626 843 q 443 744 538 744 m 460 957 q 459 970 458 964 q 460 978 460 976 q 473 1003 461 994 q 508 1022 485 1013 q 544 1041 532 1032 q 556 1065 556 1050 q 511 1092 556 1092 q 476 1089 504 1092 l 458 1050 l 407 1050 l 413 1124 q 532 1136 490 1136 q 620 1119 589 1136 q 651 1069 651 1101 q 596 1006 651 1025 q 566 995 586 1001 q 535 980 546 989 q 522 957 524 971 l 460 957 z "},"ẵ":{"ha":742,"x_min":46,"x_max":728,"o":"m 46 0 m 601 292 q 581 149 586 210 q 575 83 576 88 l 681 83 l 681 26 q 500 -12 581 -12 q 438 4 460 -12 q 417 54 417 21 q 420 93 418 71 q 424 124 422 115 q 327 25 382 63 q 221 -12 272 -12 q 46 199 46 -12 q 97 467 46 351 q 236 646 147 583 q 435 708 325 708 q 493 703 464 708 q 542 694 522 699 q 567 688 561 689 l 607 736 l 683 724 l 601 292 m 271 92 q 354 133 304 92 q 431 215 404 174 q 472 426 432 215 l 507 603 q 429 624 469 624 q 310 566 360 624 q 234 413 260 508 q 208 201 208 317 q 224 117 208 142 q 271 92 240 92 m 443 744 q 300 868 300 744 q 311 925 300 892 l 378 925 q 375 901 375 911 q 392 856 376 872 q 457 840 408 840 q 544 863 519 840 q 579 925 569 885 l 643 925 q 582 794 626 843 q 443 744 538 744 m 728 1083 q 673 981 700 1018 q 614 943 646 943 q 488 971 579 943 q 427 988 457 981 q 382 996 397 996 q 354 986 367 996 q 333 965 342 976 q 324 951 325 954 l 267 974 q 319 1075 289 1036 q 382 1114 349 1114 q 507 1086 415 1114 q 567 1069 538 1076 q 614 1061 597 1061 q 642 1072 629 1061 q 664 1092 656 1082 q 674 1107 672 1103 l 728 1083 z "},"ǎ":{"ha":742,"x_min":46,"x_max":683,"o":"m 46 0 m 601 292 q 581 149 586 210 q 575 83 576 88 l 681 83 l 681 26 q 500 -12 581 -12 q 438 4 460 -12 q 417 54 417 21 q 420 93 418 71 q 424 124 422 115 q 327 25 382 63 q 221 -12 272 -12 q 46 199 46 -12 q 97 467 46 351 q 236 646 147 583 q 435 708 325 708 q 493 703 464 708 q 542 694 522 699 q 567 688 561 689 l 607 736 l 683 724 l 601 292 m 271 92 q 354 133 304 92 q 431 215 404 174 q 472 426 432 215 l 507 603 q 429 624 469 624 q 310 566 360 624 q 234 413 260 508 q 208 201 208 317 q 224 117 208 142 q 271 92 240 92 m 344 1018 l 469 904 l 638 1018 l 676 979 l 506 789 l 400 789 l 294 988 l 344 1018 z "},"â":{"ha":742,"x_min":46,"x_max":683,"o":"m 589 788 l 469 900 l 300 788 l 264 825 l 433 1014 l 539 1014 l 636 817 l 589 788 m 601 292 q 581 149 586 210 q 575 83 576 88 l 681 83 l 681 26 q 500 -12 581 -12 q 438 4 460 -12 q 417 54 417 21 q 420 93 418 71 q 424 124 422 115 q 327 25 382 63 q 221 -12 272 -12 q 46 199 46 -12 q 97 467 46 351 q 236 646 147 583 q 435 708 325 708 q 493 703 464 708 q 542 694 522 699 q 567 688 561 689 l 607 736 l 683 724 l 601 292 m 271 92 q 354 133 304 92 q 431 215 404 174 q 472 426 432 215 l 507 603 q 429 624 469 624 q 310 566 360 624 q 234 413 260 508 q 208 201 208 317 q 224 117 208 142 q 271 92 240 92 z "},"ấ":{"ha":742,"x_min":46,"x_max":919,"o":"m 679 863 l 635 890 l 776 1135 l 910 1135 l 919 1107 l 679 863 m 599 788 l 479 900 l 310 788 l 274 825 l 443 1014 l 550 1014 l 646 817 l 599 788 m 601 292 q 581 149 586 210 q 575 83 576 88 l 681 83 l 681 26 q 500 -12 581 -12 q 438 4 460 -12 q 417 54 417 21 q 420 93 418 71 q 424 124 422 115 q 327 25 382 63 q 221 -12 272 -12 q 46 199 46 -12 q 97 467 46 351 q 236 646 147 583 q 435 708 325 708 q 493 703 464 708 q 542 694 522 699 q 567 688 561 689 l 607 736 l 683 724 l 601 292 m 271 92 q 354 133 304 92 q 431 215 404 174 q 472 426 432 215 l 507 603 q 429 624 469 624 q 310 566 360 624 q 234 413 260 508 q 208 201 208 317 q 224 117 208 142 q 271 92 240 92 z "},"ậ":{"ha":742,"x_min":46,"x_max":683,"o":"m 46 0 m 601 292 q 581 149 586 210 q 575 83 576 88 l 681 83 l 681 26 q 500 -12 581 -12 q 438 4 460 -12 q 417 54 417 21 q 420 93 418 71 q 424 124 422 115 q 327 25 382 63 q 221 -12 272 -12 q 46 199 46 -12 q 97 467 46 351 q 236 646 147 583 q 435 708 325 708 q 493 703 464 708 q 542 694 522 699 q 567 688 561 689 l 607 736 l 683 724 l 601 292 m 271 92 q 354 133 304 92 q 431 215 404 174 q 472 426 432 215 l 507 603 q 429 624 469 624 q 310 566 360 624 q 234 413 260 508 q 208 201 208 317 q 224 117 208 142 q 271 92 240 92 m 274 -56 q 342 -85 313 -56 q 372 -153 372 -114 q 343 -219 372 -192 q 274 -247 314 -247 q 206 -219 235 -247 q 178 -153 178 -192 q 206 -85 178 -114 q 274 -56 235 -56 m 599 788 l 479 900 l 310 788 l 274 825 l 443 1014 l 550 1014 l 646 817 l 599 788 z "},"ầ":{"ha":742,"x_min":46,"x_max":721,"o":"m 674 861 l 525 1113 l 546 1135 l 647 1135 l 721 881 l 674 861 m 590 788 l 471 900 l 301 788 l 265 825 l 435 1014 l 542 1014 l 638 817 l 590 788 m 601 292 q 581 149 586 210 q 575 83 576 88 l 681 83 l 681 26 q 500 -12 581 -12 q 438 4 460 -12 q 417 54 417 21 q 420 93 418 71 q 424 124 422 115 q 327 25 382 63 q 221 -12 272 -12 q 46 199 46 -12 q 97 467 46 351 q 236 646 147 583 q 435 708 325 708 q 493 703 464 708 q 542 694 522 699 q 567 688 561 689 l 607 736 l 683 724 l 601 292 m 271 92 q 354 133 304 92 q 431 215 404 174 q 472 426 432 215 l 507 603 q 429 624 469 624 q 310 566 360 624 q 234 413 260 508 q 208 201 208 317 q 224 117 208 142 q 271 92 240 92 z "},"ẩ":{"ha":742,"x_min":46,"x_max":818,"o":"m 46 0 m 601 292 q 581 149 586 210 q 575 83 576 88 l 681 83 l 681 26 q 500 -12 581 -12 q 438 4 460 -12 q 417 54 417 21 q 420 93 418 71 q 424 124 422 115 q 327 25 382 63 q 221 -12 272 -12 q 46 199 46 -12 q 97 467 46 351 q 236 646 147 583 q 435 708 325 708 q 493 703 464 708 q 542 694 522 699 q 567 688 561 689 l 607 736 l 683 724 l 601 292 m 271 92 q 354 133 304 92 q 431 215 404 174 q 472 426 432 215 l 507 603 q 429 624 469 624 q 310 566 360 624 q 234 413 260 508 q 208 201 208 317 q 224 117 208 142 q 271 92 240 92 m 599 788 l 479 900 l 310 788 l 274 825 l 443 1014 l 550 1014 l 646 817 l 599 788 m 626 957 q 626 970 625 964 q 626 978 626 976 q 640 1003 628 994 q 675 1022 651 1013 q 710 1041 699 1032 q 722 1065 722 1050 q 678 1092 722 1092 q 643 1089 671 1092 l 625 1050 l 574 1050 l 579 1124 q 699 1136 657 1136 q 787 1119 756 1136 q 818 1069 818 1101 q 763 1006 818 1025 q 733 995 753 1001 q 701 980 713 989 q 689 957 690 971 l 626 957 z "},"ẫ":{"ha":742,"x_min":46,"x_max":736,"o":"m 390 999 q 363 989 375 999 q 342 968 350 979 q 332 954 333 957 l 275 976 q 327 1078 297 1039 q 390 1117 357 1117 q 515 1089 424 1117 q 576 1072 546 1079 q 622 1064 606 1064 q 651 1074 638 1064 q 672 1095 664 1085 q 682 1110 681 1106 l 736 1086 q 681 983 708 1021 q 622 946 654 946 q 496 974 588 946 q 435 991 465 983 q 390 999 406 999 m 601 292 q 581 149 586 210 q 575 83 576 88 l 681 83 l 681 26 q 500 -12 581 -12 q 438 4 460 -12 q 417 54 417 21 q 420 93 418 71 q 424 124 422 115 q 327 25 382 63 q 221 -12 272 -12 q 46 199 46 -12 q 97 467 46 351 q 236 646 147 583 q 435 708 325 708 q 493 703 464 708 q 542 694 522 699 q 567 688 561 689 l 603 731 l 467 828 l 278 725 l 247 761 l 431 940 l 536 940 l 649 757 l 621 733 l 683 724 l 601 292 m 431 215 q 472 426 432 215 l 507 603 q 429 624 469 624 q 310 566 360 624 q 234 413 260 508 q 208 201 208 317 q 224 117 208 142 q 271 92 240 92 q 354 133 304 92 q 431 215 404 174 z "},"ȁ":{"ha":742,"x_min":46,"x_max":683,"o":"m 46 0 m 601 292 q 581 149 586 210 q 575 83 576 88 l 681 83 l 681 26 q 500 -12 581 -12 q 438 4 460 -12 q 417 54 417 21 q 420 93 418 71 q 424 124 422 115 q 327 25 382 63 q 221 -12 272 -12 q 46 199 46 -12 q 97 467 46 351 q 236 646 147 583 q 435 708 325 708 q 493 703 464 708 q 542 694 522 699 q 567 688 561 689 l 607 736 l 683 724 l 601 292 m 271 92 q 354 133 304 92 q 431 215 404 174 q 472 426 432 215 l 507 603 q 429 624 469 624 q 310 566 360 624 q 234 413 260 508 q 208 201 208 317 q 224 117 208 142 q 271 92 240 92 m 353 774 l 188 993 l 192 1021 l 311 1021 l 394 800 l 353 774 m 576 774 l 411 993 l 415 1021 l 535 1021 l 618 800 l 576 774 z "},"ä":{"ha":742,"x_min":46,"x_max":696,"o":"m 393 903 q 365 838 393 865 q 299 811 336 811 q 230 838 260 811 q 200 903 200 865 q 230 969 200 942 q 299 997 260 997 q 365 969 336 997 q 393 903 393 942 m 696 903 q 667 838 696 865 q 601 811 639 811 q 533 838 561 811 q 504 903 504 864 q 533 969 504 942 q 601 997 561 997 q 667 969 639 997 q 696 903 696 942 m 601 292 q 581 149 586 210 q 575 83 576 88 l 681 83 l 681 26 q 500 -12 581 -12 q 438 4 460 -12 q 417 54 417 21 q 420 93 418 71 q 424 124 422 115 q 327 25 382 63 q 221 -12 272 -12 q 46 199 46 -12 q 97 467 46 351 q 236 646 147 583 q 435 708 325 708 q 493 703 464 708 q 542 694 522 699 q 567 688 561 689 l 607 736 l 683 724 l 601 292 m 271 92 q 354 133 304 92 q 431 215 404 174 q 472 426 432 215 l 507 603 q 429 624 469 624 q 310 566 360 624 q 234 413 260 508 q 208 201 208 317 q 224 117 208 142 q 271 92 240 92 z "},"ạ":{"ha":742,"x_min":46,"x_max":683,"o":"m 46 0 m 601 292 q 581 149 586 210 q 575 83 576 88 l 681 83 l 681 26 q 500 -12 581 -12 q 438 4 460 -12 q 417 54 417 21 q 420 93 418 71 q 424 124 422 115 q 327 25 382 63 q 221 -12 272 -12 q 46 199 46 -12 q 97 467 46 351 q 236 646 147 583 q 435 708 325 708 q 493 703 464 708 q 542 694 522 699 q 567 688 561 689 l 607 736 l 683 724 l 601 292 m 271 92 q 354 133 304 92 q 431 215 404 174 q 472 426 432 215 l 507 603 q 429 624 469 624 q 310 566 360 624 q 234 413 260 508 q 208 201 208 317 q 224 117 208 142 q 271 92 240 92 m 274 -56 q 342 -85 313 -56 q 372 -153 372 -114 q 343 -219 372 -192 q 274 -247 314 -247 q 206 -219 235 -247 q 178 -153 178 -192 q 206 -85 178 -114 q 274 -56 235 -56 z "},"à":{"ha":742,"x_min":46,"x_max":683,"o":"m 569 793 l 257 942 l 260 971 l 385 1015 l 599 833 l 569 793 m 601 292 q 581 149 586 210 q 575 83 576 88 l 681 83 l 681 26 q 500 -12 581 -12 q 438 4 460 -12 q 417 54 417 21 q 420 93 418 71 q 424 124 422 115 q 327 25 382 63 q 221 -12 272 -12 q 46 199 46 -12 q 97 467 46 351 q 236 646 147 583 q 435 708 325 708 q 493 703 464 708 q 542 694 522 699 q 567 688 561 689 l 607 736 l 683 724 l 601 292 m 271 92 q 354 133 304 92 q 431 215 404 174 q 472 426 432 215 l 507 603 q 429 624 469 624 q 310 566 360 624 q 234 413 260 508 q 208 201 208 317 q 224 117 208 142 q 271 92 240 92 z "},"ả":{"ha":742,"x_min":46,"x_max":683,"o":"m 46 0 m 601 292 q 581 149 586 210 q 575 83 576 88 l 681 83 l 681 26 q 500 -12 581 -12 q 438 4 460 -12 q 417 54 417 21 q 420 93 418 71 q 424 124 422 115 q 327 25 382 63 q 221 -12 272 -12 q 46 199 46 -12 q 97 467 46 351 q 236 646 147 583 q 435 708 325 708 q 493 703 464 708 q 542 694 522 699 q 567 688 561 689 l 607 736 l 683 724 l 601 292 m 271 92 q 354 133 304 92 q 431 215 404 174 q 472 426 432 215 l 507 603 q 429 624 469 624 q 310 566 360 624 q 234 413 260 508 q 208 201 208 317 q 224 117 208 142 q 271 92 240 92 m 429 763 q 428 776 428 769 q 429 783 429 782 q 442 809 431 800 q 478 828 454 818 q 513 847 501 838 q 525 871 525 856 q 481 897 525 897 q 446 894 474 897 l 428 856 l 376 856 l 382 929 q 501 942 460 942 q 590 924 558 942 q 621 875 621 907 q 565 811 621 831 q 535 801 556 807 q 504 785 515 794 q 492 763 493 776 l 429 763 z "},"ȃ":{"ha":742,"x_min":46,"x_max":683,"o":"m 46 0 m 601 292 q 581 149 586 210 q 575 83 576 88 l 681 83 l 681 26 q 500 -12 581 -12 q 438 4 460 -12 q 417 54 417 21 q 420 93 418 71 q 424 124 422 115 q 327 25 382 63 q 221 -12 272 -12 q 46 199 46 -12 q 97 467 46 351 q 236 646 147 583 q 435 708 325 708 q 493 703 464 708 q 542 694 522 699 q 567 688 561 689 l 607 736 l 683 724 l 601 292 m 271 92 q 354 133 304 92 q 431 215 404 174 q 472 426 432 215 l 507 603 q 429 624 469 624 q 310 566 360 624 q 234 413 260 508 q 208 201 208 317 q 224 117 208 142 q 271 92 240 92 m 490 1004 q 632 882 632 1004 q 622 825 632 854 l 554 825 q 558 849 558 836 q 541 894 557 878 q 476 910 525 910 q 389 887 414 910 q 354 825 364 864 l 289 825 q 351 956 306 907 q 490 1004 396 1004 z "},"ā":{"ha":742,"x_min":46,"x_max":683,"o":"m 296 936 l 618 936 l 604 839 l 282 839 l 296 936 m 601 292 q 581 149 586 210 q 575 83 576 88 l 681 83 l 681 26 q 500 -12 581 -12 q 438 4 460 -12 q 417 54 417 21 q 420 93 418 71 q 424 124 422 115 q 327 25 382 63 q 221 -12 272 -12 q 46 199 46 -12 q 97 467 46 351 q 236 646 147 583 q 435 708 325 708 q 493 703 464 708 q 542 694 522 699 q 567 688 561 689 l 607 736 l 683 724 l 601 292 m 271 92 q 354 133 304 92 q 431 215 404 174 q 472 426 432 215 l 507 603 q 429 624 469 624 q 310 566 360 624 q 234 413 260 508 q 208 201 208 317 q 224 117 208 142 q 271 92 240 92 z "},"ą":{"ha":742,"x_min":46,"x_max":683,"o":"m 528 -328 q 433 -299 463 -328 q 404 -225 404 -269 q 435 -129 404 -185 q 546 -8 465 -74 q 500 -12 521 -12 q 438 4 460 -12 q 417 54 417 21 q 420 93 418 71 q 424 124 422 115 q 327 25 382 63 q 221 -12 272 -12 q 46 199 46 -12 q 97 467 46 351 q 236 646 147 583 q 435 708 325 708 q 493 703 464 708 q 542 694 522 699 q 567 688 561 689 l 607 736 l 683 724 l 601 292 q 581 149 586 210 q 575 83 576 88 l 681 83 l 681 26 q 585 -46 622 -4 q 533 -126 549 -87 q 518 -190 518 -165 q 533 -235 518 -219 q 575 -250 547 -250 q 658 -219 618 -250 l 683 -247 q 663 -271 683 -250 q 607 -310 642 -292 q 528 -328 572 -328 m 271 92 q 354 133 304 92 q 431 215 404 174 q 472 426 432 215 l 507 603 q 429 624 469 624 q 310 566 360 624 q 234 413 260 508 q 208 201 208 317 q 224 117 208 142 q 271 92 240 92 z "},"å":{"ha":742,"x_min":46,"x_max":683,"o":"m 436 764 q 338 796 372 764 q 304 879 304 828 q 351 1003 304 953 q 479 1053 399 1053 q 577 1019 544 1053 q 610 933 610 986 q 562 811 610 858 q 436 764 514 764 m 446 828 q 517 936 517 828 q 506 975 517 961 q 469 989 496 989 q 397 876 397 989 q 408 840 397 853 q 446 828 419 828 m 221 -12 q 46 199 46 -12 q 97 467 46 351 q 236 646 147 583 q 435 708 325 708 q 493 703 464 708 q 542 694 522 699 q 567 688 561 689 l 607 736 l 683 724 l 601 292 q 581 149 586 210 q 575 83 576 88 l 681 83 l 681 26 q 500 -12 581 -12 q 438 4 460 -12 q 417 54 417 21 q 420 93 418 71 q 424 124 422 115 q 327 25 382 63 q 221 -12 272 -12 m 271 92 q 354 133 304 92 q 431 215 404 174 q 472 426 432 215 l 507 603 q 429 624 469 624 q 310 566 360 624 q 234 413 260 508 q 208 201 208 317 q 224 117 208 142 q 271 92 240 92 z "},"ǻ":{"ha":742,"x_min":46,"x_max":758,"o":"m 46 0 m 601 292 q 581 149 586 210 q 575 83 576 88 l 681 83 l 681 26 q 500 -12 581 -12 q 438 4 460 -12 q 417 54 417 21 q 420 93 418 71 q 424 124 422 115 q 327 25 382 63 q 221 -12 272 -12 q 46 199 46 -12 q 97 467 46 351 q 236 646 147 583 q 435 708 325 708 q 493 703 464 708 q 542 694 522 699 q 567 688 561 689 l 607 736 l 683 724 l 601 292 m 271 92 q 354 133 304 92 q 431 215 404 174 q 472 426 432 215 l 507 603 q 429 624 469 624 q 310 566 360 624 q 234 413 260 508 q 208 201 208 317 q 224 117 208 142 q 271 92 240 92 m 446 708 q 351 735 385 708 q 317 807 317 761 q 363 924 317 878 q 496 969 408 969 q 588 940 557 969 q 619 864 619 911 q 571 752 619 796 q 446 708 522 708 m 456 768 q 512 796 496 768 q 528 863 528 824 q 515 897 528 885 q 479 910 503 910 q 424 882 440 910 q 408 815 408 854 q 418 780 408 792 q 456 768 428 768 m 449 971 l 417 1011 l 632 1193 l 758 1149 l 758 1119 l 449 971 z "},"ã":{"ha":742,"x_min":46,"x_max":694,"o":"m 694 958 q 640 856 667 892 q 582 819 614 819 q 463 847 546 819 q 406 865 433 857 q 363 872 378 872 q 335 862 349 872 q 314 841 322 851 q 304 826 306 831 l 247 850 q 363 989 306 989 q 415 981 383 989 q 479 961 447 972 q 582 936 557 936 q 610 946 597 936 q 631 967 622 956 q 640 981 639 978 l 694 958 m 601 292 q 581 149 586 210 q 575 83 576 88 l 681 83 l 681 26 q 500 -12 581 -12 q 438 4 460 -12 q 417 54 417 21 q 420 93 418 71 q 424 124 422 115 q 327 25 382 63 q 221 -12 272 -12 q 46 199 46 -12 q 97 467 46 351 q 236 646 147 583 q 435 708 325 708 q 493 703 464 708 q 542 694 522 699 q 567 688 561 689 l 607 736 l 683 724 l 601 292 m 271 92 q 354 133 304 92 q 431 215 404 174 q 472 426 432 215 l 507 603 q 429 624 469 624 q 310 566 360 624 q 234 413 260 508 q 208 201 208 317 q 224 117 208 142 q 271 92 240 92 z "},"æ":{"ha":989,"x_min":43,"x_max":1006,"o":"m 667 -14 q 528 26 585 -14 q 453 147 471 65 q 329 26 389 65 q 218 -12 269 -12 q 91 36 139 -12 q 43 199 43 85 q 94 467 43 351 q 234 647 144 583 q 433 710 324 710 q 491 705 461 710 q 540 695 521 700 q 565 689 560 690 l 606 736 l 668 721 l 654 654 q 738 694 686 678 q 840 710 790 710 q 960 675 915 710 q 1006 574 1006 640 q 904 393 1006 458 q 613 328 803 328 q 606 232 606 283 q 638 117 606 153 q 744 81 671 81 q 876 106 808 81 l 890 44 q 791 2 843 18 q 667 -14 739 -14 m 268 92 q 353 132 303 92 q 428 213 403 172 q 478 467 429 211 l 506 606 q 468 622 486 617 q 426 626 450 626 q 306 569 356 626 q 231 414 257 511 q 206 201 206 317 q 222 117 206 142 q 268 92 238 92 m 624 393 q 799 438 732 393 q 865 558 865 482 q 804 624 865 624 q 690 563 738 624 q 624 393 643 503 z "},"ǽ":{"ha":989,"x_min":43,"x_max":1006,"o":"m 43 0 m 667 -14 q 528 26 585 -14 q 453 147 471 65 q 329 26 389 65 q 218 -12 269 -12 q 91 36 139 -12 q 43 199 43 85 q 94 467 43 351 q 234 647 144 583 q 433 710 324 710 q 491 705 461 710 q 540 695 521 700 q 565 689 560 690 l 606 736 l 668 721 l 654 654 q 738 694 686 678 q 840 710 790 710 q 960 675 915 710 q 1006 574 1006 640 q 904 393 1006 458 q 613 328 803 328 q 606 232 606 283 q 638 117 606 153 q 744 81 671 81 q 876 106 808 81 l 890 44 q 791 2 843 18 q 667 -14 739 -14 m 268 92 q 353 132 303 92 q 428 213 403 172 q 478 467 429 211 l 506 606 q 468 622 486 617 q 426 626 450 626 q 306 569 356 626 q 231 414 257 511 q 206 201 206 317 q 222 117 206 142 q 268 92 238 92 m 624 393 q 799 438 732 393 q 865 558 865 482 q 804 624 865 624 q 690 563 738 624 q 624 393 643 503 m 471 792 l 439 832 l 654 1014 l 781 969 l 781 940 l 471 792 z "},"b":{"ha":726,"x_min":43,"x_max":683,"o":"m 288 -12 q 143 3 206 -12 q 43 38 81 18 l 215 910 l 114 922 l 103 969 q 233 1005 164 990 q 343 1019 301 1019 q 367 1010 358 1019 q 375 988 375 1001 q 331 735 374 974 l 303 583 q 408 676 350 643 q 519 710 467 710 q 683 518 683 710 q 645 267 683 388 q 518 67 607 147 q 288 -12 429 -12 m 314 72 q 427 134 381 72 q 497 294 474 196 q 521 501 521 392 q 504 583 521 560 q 456 606 488 606 q 373 568 422 606 q 289 485 324 531 q 258 332 289 485 l 215 107 q 255 81 229 90 q 314 72 281 72 z "},"c":{"ha":557,"x_min":43,"x_max":593,"o":"m 472 617 q 415 624 450 624 q 259 510 310 624 q 208 238 208 396 q 235 117 208 156 q 325 79 261 79 q 457 106 375 79 l 472 44 q 371 1 426 15 q 264 -14 315 -14 q 103 40 163 -14 q 43 208 43 94 q 87 461 43 347 q 219 642 131 575 q 436 710 308 710 q 593 679 531 710 l 551 494 l 486 494 l 472 617 z "},"ć":{"ha":560,"x_min":42,"x_max":621,"o":"m 311 792 l 279 832 l 494 1014 l 621 969 l 621 940 l 311 792 m 472 617 q 414 624 447 624 q 258 509 310 624 q 207 238 207 394 q 233 117 207 156 q 324 79 258 79 q 456 106 374 79 l 472 44 q 369 1 425 15 q 263 -14 314 -14 q 101 40 161 -14 q 42 208 42 94 q 85 461 42 347 q 218 642 129 575 q 436 710 307 710 q 592 679 529 710 l 550 494 l 486 494 l 472 617 z "},"č":{"ha":560,"x_min":42,"x_max":629,"o":"m 297 1018 l 424 904 l 590 1018 l 629 979 l 460 789 l 353 789 l 247 988 l 297 1018 m 472 617 q 414 624 447 624 q 258 509 310 624 q 207 238 207 394 q 233 117 207 156 q 324 79 258 79 q 456 106 374 79 l 472 44 q 369 1 425 15 q 263 -14 314 -14 q 101 40 161 -14 q 42 208 42 94 q 85 461 42 347 q 218 642 129 575 q 436 710 307 710 q 592 679 529 710 l 550 494 l 486 494 l 472 617 z "},"ç":{"ha":560,"x_min":42,"x_max":592,"o":"m 472 617 q 414 624 447 624 q 258 509 310 624 q 207 238 207 394 q 233 117 207 156 q 324 79 258 79 q 456 106 374 79 l 472 44 q 272 -14 383 -11 l 247 -62 q 340 -85 310 -62 q 371 -147 371 -108 q 342 -231 371 -194 q 267 -286 313 -267 q 179 -306 222 -306 q 83 -287 125 -306 l 104 -243 q 154 -251 121 -251 q 220 -228 190 -251 q 250 -171 250 -206 q 174 -119 250 -121 l 169 -99 l 215 -10 q 88 55 135 1 q 42 208 42 108 q 85 461 42 347 q 218 642 129 575 q 436 710 307 710 q 592 679 529 710 l 550 494 l 486 494 l 472 617 z "},"ĉ":{"ha":557,"x_min":43,"x_max":606,"o":"m 43 0 m 472 617 q 415 624 450 624 q 259 510 310 624 q 208 238 208 396 q 235 117 208 156 q 325 79 261 79 q 457 106 375 79 l 472 44 q 371 1 426 15 q 264 -14 315 -14 q 103 40 163 -14 q 43 208 43 94 q 87 461 43 347 q 219 642 131 575 q 436 710 308 710 q 593 679 531 710 l 551 494 l 486 494 l 472 617 m 558 788 l 439 900 l 269 788 l 233 825 l 403 1014 l 510 1014 l 606 817 l 558 788 z "},"ċ":{"ha":557,"x_min":43,"x_max":593,"o":"m 43 0 m 472 617 q 415 624 450 624 q 259 510 310 624 q 208 238 208 396 q 235 117 208 156 q 325 79 261 79 q 457 106 375 79 l 472 44 q 371 1 426 15 q 264 -14 315 -14 q 103 40 163 -14 q 43 208 43 94 q 87 461 43 347 q 219 642 131 575 q 436 710 308 710 q 593 679 531 710 l 551 494 l 486 494 l 472 617 m 440 810 q 372 838 400 810 q 343 904 343 865 q 372 973 343 944 q 440 1001 401 1001 q 508 972 478 1001 q 538 904 538 943 q 508 838 538 865 q 440 810 479 810 z "},"d":{"ha":735,"x_min":43,"x_max":731,"o":"m 204 -12 q 89 35 135 -12 q 43 193 43 83 q 94 469 43 353 q 234 648 144 586 q 438 710 324 710 q 529 700 490 710 l 571 910 l 468 921 l 457 969 q 588 1006 518 992 q 699 1019 657 1019 q 731 989 731 1019 q 607 293 731 964 q 585 148 590 207 q 579 83 579 89 l 685 83 l 685 26 q 503 -12 583 -12 q 422 54 422 -12 q 424 93 422 71 q 428 124 426 115 q 328 25 388 63 q 204 -12 268 -12 m 272 90 q 356 131 306 90 q 436 215 407 171 l 511 606 q 419 626 476 626 q 297 560 344 626 q 227 396 249 493 q 206 201 206 299 q 223 115 206 140 q 272 90 240 90 z "},"ð":{"ha":697,"x_min":42,"x_max":654,"o":"m 250 -14 q 94 42 146 -14 q 42 197 42 97 q 92 473 42 357 q 233 649 143 589 q 443 710 324 710 q 469 708 461 710 q 431 810 458 749 l 311 732 l 272 796 l 393 872 q 294 999 361 922 l 347 1049 q 476 925 422 986 l 599 1001 l 636 942 l 521 867 q 618 685 583 779 q 654 501 653 590 l 654 472 q 651 435 654 460 q 589 194 642 294 q 449 40 536 93 q 250 -14 361 -14 m 288 69 q 442 200 394 69 q 490 500 490 331 q 473 593 490 561 q 410 625 456 625 q 289 557 335 625 q 224 391 243 489 q 206 196 206 293 q 224 101 206 133 q 288 69 242 69 z "},"ď":{"ha":796,"x_min":43,"x_max":903,"o":"m 204 -12 q 89 35 135 -12 q 43 193 43 83 q 94 469 43 353 q 234 648 144 586 q 438 710 324 710 q 529 700 490 710 l 571 910 l 468 921 l 457 969 q 588 1006 518 992 q 699 1019 657 1019 q 731 989 731 1019 q 607 293 731 964 q 585 148 590 207 q 579 83 579 89 l 685 83 l 685 26 q 503 -12 583 -12 q 422 54 422 -12 q 424 93 422 71 q 428 124 426 115 q 328 25 388 63 q 204 -12 268 -12 m 794 732 l 774 1019 l 817 1019 l 903 996 l 843 732 l 794 732 m 272 90 q 356 131 306 90 q 436 215 407 171 l 511 606 q 419 626 476 626 q 297 560 344 626 q 227 396 249 493 q 206 201 206 299 q 223 115 206 140 q 272 90 240 90 z "},"đ":{"ha":738,"x_min":43,"x_max":803,"o":"m 204 -12 q 89 35 135 -12 q 43 193 43 83 q 94 469 43 353 q 234 648 144 586 q 438 710 324 710 q 529 700 490 710 l 549 797 l 342 797 l 342 874 l 564 874 l 575 926 l 472 938 l 461 986 q 699 1019 586 1019 q 731 989 731 1019 q 713 874 731 972 l 803 874 l 803 797 l 699 797 q 635 449 650 529 l 607 293 q 585 148 590 207 q 579 83 579 89 l 685 83 l 685 26 q 503 -12 583 -12 q 422 54 422 -12 q 424 93 422 71 q 428 124 426 115 q 328 25 388 63 q 204 -12 268 -12 m 272 90 q 356 131 306 90 q 436 215 407 171 l 511 606 q 419 626 476 626 q 297 560 344 626 q 227 396 249 493 q 206 201 206 299 q 223 115 206 140 q 272 90 240 90 z "},"ḍ":{"ha":735,"x_min":43,"x_max":731,"o":"m 43 0 m 204 -12 q 89 35 135 -12 q 43 193 43 83 q 94 469 43 353 q 234 648 144 586 q 438 710 324 710 q 529 700 490 710 l 571 910 l 468 921 l 457 969 q 588 1006 518 992 q 699 1019 657 1019 q 731 989 731 1019 q 607 293 731 964 q 585 148 590 207 q 579 83 579 89 l 685 83 l 685 26 q 503 -12 583 -12 q 422 54 422 -12 q 424 93 422 71 q 428 124 426 115 q 328 25 388 63 q 204 -12 268 -12 m 272 90 q 356 131 306 90 q 436 215 407 171 l 511 606 q 419 626 476 626 q 297 560 344 626 q 227 396 249 493 q 206 201 206 299 q 223 115 206 140 q 272 90 240 90 m 271 -56 q 340 -85 310 -56 q 369 -153 369 -114 q 340 -219 369 -192 q 271 -247 311 -247 q 203 -219 232 -247 q 175 -153 175 -192 q 203 -85 175 -114 q 271 -56 232 -56 z "},"ǳ":{"ha":1272,"x_min":43,"x_max":1319,"o":"m 43 0 m 204 -12 q 89 35 135 -12 q 43 193 43 83 q 94 469 43 353 q 234 648 144 586 q 438 710 324 710 q 529 700 490 710 l 571 910 l 468 921 l 457 969 q 588 1006 518 992 q 699 1019 657 1019 q 731 989 731 1019 q 607 293 731 964 q 585 148 590 207 q 579 83 579 89 l 685 83 l 685 26 q 503 -12 583 -12 q 422 54 422 -12 q 424 93 422 71 q 428 124 426 115 q 328 25 388 63 q 204 -12 268 -12 m 272 90 q 356 131 306 90 q 436 215 407 171 l 511 606 q 419 626 476 626 q 297 560 344 626 q 227 396 249 493 q 206 201 206 299 q 223 115 206 140 q 272 90 240 90 m 1111 -79 q 1036 -65 1071 -79 q 954 -21 1001 -50 q 889 17 917 4 q 831 29 861 29 q 792 17 810 29 q 764 -7 775 6 q 750 -24 753 -19 l 690 18 l 1115 561 l 815 561 l 800 696 l 1204 696 l 1260 718 l 1319 668 l 899 139 q 979 126 944 139 q 1056 89 1014 113 q 1122 57 1096 67 q 1181 47 1147 47 q 1243 56 1217 47 l 1263 -15 q 1185 -62 1219 -46 q 1111 -79 1151 -79 z "},"ǆ":{"ha":1272,"x_min":43,"x_max":1319,"o":"m 43 0 m 204 -12 q 89 35 135 -12 q 43 193 43 83 q 94 469 43 353 q 234 648 144 586 q 438 710 324 710 q 529 700 490 710 l 571 910 l 468 921 l 457 969 q 588 1006 518 992 q 699 1019 657 1019 q 731 989 731 1019 q 607 293 731 964 q 585 148 590 207 q 579 83 579 89 l 685 83 l 685 26 q 503 -12 583 -12 q 422 54 422 -12 q 424 93 422 71 q 428 124 426 115 q 328 25 388 63 q 204 -12 268 -12 m 272 90 q 356 131 306 90 q 436 215 407 171 l 511 606 q 419 626 476 626 q 297 560 344 626 q 227 396 249 493 q 206 201 206 299 q 223 115 206 140 q 272 90 240 90 m 1111 -79 q 1036 -65 1071 -79 q 954 -21 1001 -50 q 889 17 917 4 q 831 29 861 29 q 792 17 810 29 q 764 -7 775 6 q 750 -24 753 -19 l 690 18 l 1115 561 l 815 561 l 800 696 l 1204 696 l 1260 718 l 1319 668 l 899 139 q 979 126 944 139 q 1056 89 1014 113 q 1122 57 1096 67 q 1181 47 1147 47 q 1243 56 1217 47 l 1263 -15 q 1185 -62 1219 -46 q 1111 -79 1151 -79 m 978 1018 l 1103 904 l 1271 1018 l 1310 979 l 1139 789 l 1033 789 l 928 988 l 978 1018 z "},"e":{"ha":593,"x_min":42,"x_max":606,"o":"m 439 710 q 560 675 514 710 q 606 574 606 640 q 503 393 606 458 q 211 328 401 328 q 204 232 204 283 q 235 116 204 151 q 343 81 265 81 q 475 106 408 81 l 489 46 q 265 -14 392 -14 q 42 226 42 -14 q 85 460 42 350 q 217 640 128 571 q 439 710 307 710 m 403 624 q 290 563 338 624 q 222 393 243 503 q 397 437 332 393 q 463 558 463 481 q 403 624 463 624 z "},"é":{"ha":596,"x_min":42,"x_max":629,"o":"m 319 792 l 288 832 l 503 1014 l 629 969 l 629 940 l 319 792 m 439 710 q 560 675 514 710 q 606 574 606 640 q 503 393 606 458 q 211 328 401 328 q 204 232 204 283 q 235 116 204 151 q 343 81 265 81 q 475 106 408 81 l 489 46 q 265 -14 392 -14 q 42 226 42 -14 q 85 460 42 350 q 217 640 128 571 q 439 710 307 710 m 403 624 q 290 563 338 624 q 222 393 243 503 q 397 437 332 393 q 463 558 463 481 q 403 624 463 624 z "},"ĕ":{"ha":593,"x_min":42,"x_max":606,"o":"m 42 0 m 439 710 q 560 675 514 710 q 606 574 606 640 q 503 393 606 458 q 211 328 401 328 q 204 232 204 283 q 235 116 204 151 q 343 81 265 81 q 475 106 408 81 l 489 46 q 265 -14 392 -14 q 42 226 42 -14 q 85 460 42 350 q 217 640 128 571 q 439 710 307 710 m 403 624 q 290 563 338 624 q 222 393 243 503 q 397 437 332 393 q 463 558 463 481 q 403 624 463 624 m 382 815 q 240 939 240 815 q 250 996 240 967 l 318 996 q 314 972 314 986 q 331 927 315 943 q 396 911 347 911 q 484 934 458 911 q 518 996 510 957 l 582 996 q 521 865 565 914 q 382 815 476 815 z "},"ě":{"ha":588,"x_min":42,"x_max":626,"o":"m 294 1018 l 421 904 l 589 1018 l 626 979 l 457 789 l 351 789 l 244 988 l 294 1018 m 439 710 q 560 675 514 710 q 606 574 606 640 q 503 393 606 458 q 211 328 401 328 q 204 232 204 283 q 235 116 204 151 q 343 81 265 81 q 475 106 408 81 l 489 46 q 265 -14 392 -14 q 42 226 42 -14 q 85 460 42 350 q 217 640 128 571 q 439 710 307 710 m 403 624 q 290 563 338 624 q 222 393 243 503 q 397 437 332 393 q 463 558 463 481 q 403 624 463 624 z "},"ê":{"ha":588,"x_min":42,"x_max":606,"o":"m 551 788 l 433 900 l 263 788 l 228 825 l 397 1014 l 503 1014 l 600 817 l 551 788 m 439 710 q 560 675 514 710 q 606 574 606 640 q 503 393 606 458 q 211 328 401 328 q 204 232 204 283 q 235 116 204 151 q 343 81 265 81 q 475 106 408 81 l 489 46 q 265 -14 392 -14 q 42 226 42 -14 q 85 460 42 350 q 217 640 128 571 q 439 710 307 710 m 403 624 q 290 563 338 624 q 222 393 243 503 q 397 437 332 393 q 463 558 463 481 q 403 624 463 624 z "},"ế":{"ha":593,"x_min":42,"x_max":846,"o":"m 606 863 l 561 890 l 703 1135 l 836 1135 l 846 1107 l 606 863 m 525 788 l 406 900 l 236 788 l 200 825 l 369 1014 l 476 1014 l 572 817 l 525 788 m 439 710 q 560 675 514 710 q 606 574 606 640 q 503 393 606 458 q 211 328 401 328 q 204 232 204 283 q 235 116 204 151 q 343 81 265 81 q 475 106 408 81 l 489 46 q 265 -14 392 -14 q 42 226 42 -14 q 85 460 42 350 q 217 640 128 571 q 439 710 307 710 m 403 624 q 290 563 338 624 q 222 393 243 503 q 397 437 332 393 q 463 558 463 481 q 403 624 463 624 z "},"ệ":{"ha":593,"x_min":42,"x_max":606,"o":"m 42 0 m 439 710 q 560 675 514 710 q 606 574 606 640 q 503 393 606 458 q 211 328 401 328 q 204 232 204 283 q 235 116 204 151 q 343 81 265 81 q 475 106 408 81 l 489 46 q 265 -14 392 -14 q 42 226 42 -14 q 85 460 42 350 q 217 640 128 571 q 439 710 307 710 m 403 624 q 290 563 338 624 q 222 393 243 503 q 397 437 332 393 q 463 558 463 481 q 403 624 463 624 m 200 -56 q 269 -85 239 -56 q 299 -153 299 -114 q 269 -219 299 -192 q 200 -247 240 -247 q 133 -219 161 -247 q 104 -153 104 -192 q 133 -85 104 -114 q 200 -56 161 -56 m 525 788 l 406 900 l 236 788 l 200 825 l 369 1014 l 476 1014 l 572 817 l 525 788 z "},"ề":{"ha":593,"x_min":42,"x_max":647,"o":"m 600 861 l 451 1113 l 472 1135 l 574 1135 l 647 881 l 600 861 m 517 788 l 397 900 l 228 788 l 192 825 l 361 1014 l 468 1014 l 564 817 l 517 788 m 439 710 q 560 675 514 710 q 606 574 606 640 q 503 393 606 458 q 211 328 401 328 q 204 232 204 283 q 235 116 204 151 q 343 81 265 81 q 475 106 408 81 l 489 46 q 265 -14 392 -14 q 42 226 42 -14 q 85 460 42 350 q 217 640 128 571 q 439 710 307 710 m 403 624 q 290 563 338 624 q 222 393 243 503 q 397 437 332 393 q 463 558 463 481 q 403 624 463 624 z "},"ể":{"ha":593,"x_min":42,"x_max":744,"o":"m 42 0 m 439 710 q 560 675 514 710 q 606 574 606 640 q 503 393 606 458 q 211 328 401 328 q 204 232 204 283 q 235 116 204 151 q 343 81 265 81 q 475 106 408 81 l 489 46 q 265 -14 392 -14 q 42 226 42 -14 q 85 460 42 350 q 217 640 128 571 q 439 710 307 710 m 403 624 q 290 563 338 624 q 222 393 243 503 q 397 437 332 393 q 463 558 463 481 q 403 624 463 624 m 525 788 l 406 900 l 236 788 l 200 825 l 369 1014 l 476 1014 l 572 817 l 525 788 m 553 957 q 552 970 551 964 q 553 978 553 976 q 566 1003 554 994 q 601 1022 578 1013 q 637 1041 625 1032 q 649 1065 649 1050 q 604 1092 649 1092 q 569 1089 597 1092 l 551 1050 l 500 1050 l 506 1124 q 625 1136 583 1136 q 713 1119 682 1136 q 744 1069 744 1101 q 689 1006 744 1025 q 659 995 679 1001 q 628 980 639 989 q 615 957 617 971 l 553 957 z "},"ễ":{"ha":593,"x_min":42,"x_max":663,"o":"m 42 0 m 439 710 q 560 675 514 710 q 606 574 606 640 q 503 393 606 458 q 211 328 401 328 q 204 232 204 283 q 235 116 204 151 q 343 81 265 81 q 475 106 408 81 l 489 46 q 265 -14 392 -14 q 42 226 42 -14 q 85 460 42 350 q 217 640 128 571 q 439 710 307 710 m 403 624 q 290 563 338 624 q 222 393 243 503 q 397 437 332 393 q 463 558 463 481 q 403 624 463 624 m 536 725 l 393 828 l 204 725 l 174 761 l 357 940 l 463 940 l 575 757 l 536 725 m 663 1086 q 608 983 635 1021 q 549 946 581 946 q 422 974 514 946 q 362 991 392 983 q 317 999 332 999 q 289 989 301 999 q 268 968 276 979 q 258 954 260 957 l 201 976 q 253 1078 224 1039 q 317 1117 283 1117 q 442 1089 350 1117 q 502 1072 472 1079 q 549 1064 532 1064 q 577 1074 564 1064 q 599 1095 590 1085 q 608 1110 607 1106 l 663 1086 z "},"ȅ":{"ha":593,"x_min":42,"x_max":606,"o":"m 42 0 m 439 710 q 560 675 514 710 q 606 574 606 640 q 503 393 606 458 q 211 328 401 328 q 204 232 204 283 q 235 116 204 151 q 343 81 265 81 q 475 106 408 81 l 489 46 q 265 -14 392 -14 q 42 226 42 -14 q 85 460 42 350 q 217 640 128 571 q 439 710 307 710 m 403 624 q 290 563 338 624 q 222 393 243 503 q 397 437 332 393 q 463 558 463 481 q 403 624 463 624 m 279 774 l 114 993 l 118 1021 l 238 1021 l 321 800 l 279 774 m 503 774 l 338 993 l 342 1021 l 461 1021 l 544 800 l 503 774 z "},"ë":{"ha":588,"x_min":42,"x_max":653,"o":"m 350 903 q 322 838 350 865 q 256 811 293 811 q 187 838 217 811 q 157 903 157 865 q 187 969 157 942 q 256 997 217 997 q 322 969 293 997 q 350 903 350 942 m 653 903 q 624 838 653 865 q 558 811 596 811 q 490 838 518 811 q 461 903 461 864 q 490 969 461 942 q 558 997 518 997 q 624 969 596 997 q 653 903 653 942 m 439 710 q 560 675 514 710 q 606 574 606 640 q 503 393 606 458 q 211 328 401 328 q 204 232 204 283 q 235 116 204 151 q 343 81 265 81 q 475 106 408 81 l 489 46 q 265 -14 392 -14 q 42 226 42 -14 q 85 460 42 350 q 217 640 128 571 q 439 710 307 710 m 403 624 q 290 563 338 624 q 222 393 243 503 q 397 437 332 393 q 463 558 463 481 q 403 624 463 624 z "},"ė":{"ha":588,"x_min":42,"x_max":606,"o":"m 428 1001 q 496 972 467 1001 q 525 904 525 943 q 497 838 525 865 q 428 810 468 810 q 360 838 389 810 q 331 904 331 865 q 360 972 331 943 q 428 1001 389 1001 m 439 710 q 560 675 514 710 q 606 574 606 640 q 503 393 606 458 q 211 328 401 328 q 204 232 204 283 q 235 116 204 151 q 343 81 265 81 q 475 106 408 81 l 489 46 q 265 -14 392 -14 q 42 226 42 -14 q 85 460 42 350 q 217 640 128 571 q 439 710 307 710 m 403 624 q 290 563 338 624 q 222 393 243 503 q 397 437 332 393 q 463 558 463 481 q 403 624 463 624 z "},"ẹ":{"ha":593,"x_min":42,"x_max":606,"o":"m 42 0 m 439 710 q 560 675 514 710 q 606 574 606 640 q 503 393 606 458 q 211 328 401 328 q 204 232 204 283 q 235 116 204 151 q 343 81 265 81 q 475 106 408 81 l 489 46 q 265 -14 392 -14 q 42 226 42 -14 q 85 460 42 350 q 217 640 128 571 q 439 710 307 710 m 403 624 q 290 563 338 624 q 222 393 243 503 q 397 437 332 393 q 463 558 463 481 q 403 624 463 624 m 200 -56 q 269 -85 239 -56 q 299 -153 299 -114 q 269 -219 299 -192 q 200 -247 240 -247 q 133 -219 161 -247 q 104 -153 104 -192 q 133 -85 104 -114 q 200 -56 161 -56 z "},"è":{"ha":588,"x_min":42,"x_max":606,"o":"m 536 792 l 222 940 l 226 969 l 351 1014 l 565 832 l 536 792 m 439 710 q 560 675 514 710 q 606 574 606 640 q 503 393 606 458 q 211 328 401 328 q 204 232 204 283 q 235 116 204 151 q 343 81 265 81 q 475 106 408 81 l 489 46 q 265 -14 392 -14 q 42 226 42 -14 q 85 460 42 350 q 217 640 128 571 q 439 710 307 710 m 403 624 q 290 563 338 624 q 222 393 243 503 q 397 437 332 393 q 463 558 463 481 q 403 624 463 624 z "},"ẻ":{"ha":593,"x_min":42,"x_max":606,"o":"m 42 0 m 439 710 q 560 675 514 710 q 606 574 606 640 q 503 393 606 458 q 211 328 401 328 q 204 232 204 283 q 235 116 204 151 q 343 81 265 81 q 475 106 408 81 l 489 46 q 265 -14 392 -14 q 42 226 42 -14 q 85 460 42 350 q 217 640 128 571 q 439 710 307 710 m 403 624 q 290 563 338 624 q 222 393 243 503 q 397 437 332 393 q 463 558 463 481 q 403 624 463 624 m 356 763 q 355 776 354 769 q 356 783 356 782 q 369 809 357 800 q 404 828 381 818 q 440 847 428 838 q 451 871 451 856 q 407 897 451 897 q 372 894 400 897 l 354 856 l 303 856 l 308 929 q 428 942 386 942 q 516 924 485 942 q 547 875 547 907 q 492 811 547 831 q 462 801 482 807 q 431 785 442 794 q 418 763 419 776 l 356 763 z "},"ȇ":{"ha":593,"x_min":42,"x_max":606,"o":"m 42 0 m 439 710 q 560 675 514 710 q 606 574 606 640 q 503 393 606 458 q 211 328 401 328 q 204 232 204 283 q 235 116 204 151 q 343 81 265 81 q 475 106 408 81 l 489 46 q 265 -14 392 -14 q 42 226 42 -14 q 85 460 42 350 q 217 640 128 571 q 439 710 307 710 m 403 624 q 290 563 338 624 q 222 393 243 503 q 397 437 332 393 q 463 558 463 481 q 403 624 463 624 m 417 1004 q 558 882 558 1004 q 549 825 558 854 l 481 825 q 485 849 485 836 q 467 894 483 878 q 403 910 451 910 q 315 887 340 910 q 281 825 290 864 l 215 825 q 277 956 232 907 q 417 1004 322 1004 z "},"ē":{"ha":588,"x_min":42,"x_max":606,"o":"m 265 936 l 589 936 l 575 839 l 251 839 l 265 936 m 439 710 q 560 675 514 710 q 606 574 606 640 q 503 393 606 458 q 211 328 401 328 q 204 232 204 283 q 235 116 204 151 q 343 81 265 81 q 475 106 408 81 l 489 46 q 265 -14 392 -14 q 42 226 42 -14 q 85 460 42 350 q 217 640 128 571 q 439 710 307 710 m 403 624 q 290 563 338 624 q 222 393 243 503 q 397 437 332 393 q 463 558 463 481 q 403 624 463 624 z "},"ę":{"ha":588,"x_min":42,"x_max":606,"o":"m 329 -328 q 235 -299 264 -328 q 206 -225 206 -269 q 336 -8 206 -124 q 265 -14 292 -14 q 42 226 42 -14 q 85 460 42 350 q 217 640 128 571 q 439 710 307 710 q 560 675 514 710 q 606 574 606 640 q 503 393 606 458 q 211 328 401 328 q 204 232 204 283 q 235 116 204 151 q 343 81 265 81 q 475 106 408 81 l 489 46 l 475 38 q 365 -68 411 -1 q 319 -190 319 -135 q 376 -250 319 -250 q 460 -219 419 -250 l 485 -247 q 464 -271 485 -250 q 408 -310 443 -292 q 329 -328 374 -328 m 222 393 q 397 437 332 393 q 463 558 463 481 q 403 624 463 624 q 290 563 338 624 q 222 393 243 503 z "},"ẽ":{"ha":588,"x_min":42,"x_max":651,"o":"m 651 958 q 597 856 624 892 q 538 819 571 819 q 418 847 504 819 q 361 865 389 857 q 318 872 333 872 q 291 862 304 872 q 269 841 278 851 q 260 826 261 831 l 203 850 q 318 989 261 989 q 435 961 351 989 q 492 944 464 951 q 538 936 521 936 q 565 946 553 936 q 586 967 578 956 q 596 981 594 978 l 651 958 m 439 710 q 560 675 514 710 q 606 574 606 640 q 503 393 606 458 q 211 328 401 328 q 204 232 204 283 q 235 116 204 151 q 343 81 265 81 q 475 106 408 81 l 489 46 q 265 -14 392 -14 q 42 226 42 -14 q 85 460 42 350 q 217 640 128 571 q 439 710 307 710 m 403 624 q 290 563 338 624 q 222 393 243 503 q 397 437 332 393 q 463 558 463 481 q 403 624 463 624 z "},"ə":{"ha":593,"x_min":-12,"x_max":551,"o":"m 154 -26 q 33 8 79 -26 q -12 110 -12 43 q 90 290 -12 225 q 382 356 192 356 q 389 451 389 401 q 358 567 389 532 q 250 603 328 603 q 118 578 185 603 l 104 638 q 328 697 201 697 q 551 457 551 697 q 508 223 551 333 q 376 43 465 113 q 154 -26 286 -26 m 190 60 q 303 120 256 60 q 371 290 350 181 q 196 247 261 290 q 131 125 131 203 q 190 60 131 60 z "},"f":{"ha":422,"x_min":-197,"x_max":626,"o":"m -31 -247 q -197 -207 -121 -247 l -182 -142 q -81 -158 -132 -158 q 22 -129 -11 -158 q 71 -19 56 -100 l 174 594 l 71 594 l 57 650 l 193 688 l 211 782 q 287 958 232 897 q 463 1019 342 1019 q 545 1008 500 1019 q 626 978 590 996 l 603 903 q 493 915 533 915 q 422 902 447 914 q 381 861 396 890 q 357 775 367 832 l 342 683 l 476 683 l 476 594 l 326 594 l 224 -29 q 146 -192 207 -137 q -31 -247 85 -247 z "},"g":{"ha":701,"x_min":-31,"x_max":679,"o":"m 183 -251 q 66 -240 117 -251 q -31 -204 15 -228 l -4 -131 q 76 -153 42 -146 q 156 -161 111 -161 q 275 -137 226 -161 q 358 -52 324 -114 q 410 122 392 10 q 319 51 372 78 q 208 24 267 24 q 90 69 139 24 q 42 222 42 115 q 88 471 42 360 q 222 646 135 582 q 426 710 308 710 q 506 703 468 710 q 561 688 544 696 l 606 736 l 679 725 l 542 18 q 416 -188 513 -125 q 183 -251 319 -251 m 268 124 q 356 154 307 124 q 426 226 406 185 q 457 382 429 233 l 501 606 q 463 619 486 614 q 418 625 439 625 q 297 564 344 625 q 227 412 249 503 q 206 231 206 321 q 222 147 206 169 q 268 124 238 124 z "},"ǵ":{"ha":701,"x_min":-31,"x_max":679,"o":"m 0 0 m 183 -251 q 66 -240 117 -251 q -31 -204 15 -228 l -4 -131 q 76 -153 42 -146 q 156 -161 111 -161 q 275 -137 226 -161 q 358 -52 324 -114 q 410 122 392 10 q 319 51 372 78 q 208 24 267 24 q 90 69 139 24 q 42 222 42 115 q 88 471 42 360 q 222 646 135 582 q 426 710 308 710 q 506 703 468 710 q 561 688 544 696 l 606 736 l 679 725 l 542 18 q 416 -188 513 -125 q 183 -251 319 -251 m 268 124 q 356 154 307 124 q 426 226 406 185 q 457 382 429 233 l 501 606 q 463 619 486 614 q 418 625 439 625 q 297 564 344 625 q 227 412 249 503 q 206 231 206 321 q 222 147 206 169 q 268 124 238 124 m 328 792 l 296 832 l 511 1014 l 638 969 l 638 940 l 328 792 z "},"ğ":{"ha":692,"x_min":-35,"x_max":675,"o":"m 429 815 q 288 939 288 815 q 297 996 288 967 l 364 996 q 361 972 361 982 q 378 927 363 943 q 443 911 394 911 q 531 933 506 911 q 565 996 556 956 l 629 996 q 568 865 613 914 q 429 815 524 815 m 179 -251 q 62 -240 113 -251 q -35 -204 11 -228 l -8 -131 q 72 -153 38 -146 q 151 -161 107 -161 q 271 -137 222 -161 q 353 -52 319 -114 q 406 122 388 10 q 315 51 368 78 q 204 24 263 24 q 86 69 135 24 q 38 222 38 115 q 84 471 38 360 q 218 646 131 582 q 422 710 306 710 q 502 703 464 710 q 557 688 540 696 l 601 736 l 675 725 l 538 18 q 412 -188 508 -125 q 179 -251 315 -251 m 264 124 q 352 154 303 124 q 424 226 401 185 l 432 268 q 499 606 460 426 q 414 625 460 625 q 292 564 340 625 q 223 412 244 503 q 201 231 201 321 q 217 147 201 169 q 264 124 233 124 z "},"ǧ":{"ha":701,"x_min":-31,"x_max":679,"o":"m 0 0 m 183 -251 q 66 -240 117 -251 q -31 -204 15 -228 l -4 -131 q 76 -153 42 -146 q 156 -161 111 -161 q 275 -137 226 -161 q 358 -52 324 -114 q 410 122 392 10 q 319 51 372 78 q 208 24 267 24 q 90 69 139 24 q 42 222 42 115 q 88 471 42 360 q 222 646 135 582 q 426 710 308 710 q 506 703 468 710 q 561 688 544 696 l 606 736 l 679 725 l 542 18 q 416 -188 513 -125 q 183 -251 319 -251 m 268 124 q 356 154 307 124 q 426 226 406 185 q 457 382 429 233 l 501 606 q 463 619 486 614 q 418 625 439 625 q 297 564 344 625 q 227 412 249 503 q 206 231 206 321 q 222 147 206 169 q 268 124 238 124 m 325 1018 l 450 904 l 618 1018 l 657 979 l 486 789 l 381 789 l 275 988 l 325 1018 z "},"ĝ":{"ha":701,"x_min":-31,"x_max":679,"o":"m 0 0 m 183 -251 q 66 -240 117 -251 q -31 -204 15 -228 l -4 -131 q 76 -153 42 -146 q 156 -161 111 -161 q 275 -137 226 -161 q 358 -52 324 -114 q 410 122 392 10 q 319 51 372 78 q 208 24 267 24 q 90 69 139 24 q 42 222 42 115 q 88 471 42 360 q 222 646 135 582 q 426 710 308 710 q 506 703 468 710 q 561 688 544 696 l 606 736 l 679 725 l 542 18 q 416 -188 513 -125 q 183 -251 319 -251 m 268 124 q 356 154 307 124 q 426 226 406 185 q 457 382 429 233 l 501 606 q 463 619 486 614 q 418 625 439 625 q 297 564 344 625 q 227 412 249 503 q 206 231 206 321 q 222 147 206 169 q 268 124 238 124 m 579 788 l 460 900 l 290 788 l 254 825 l 424 1014 l 531 1014 l 626 817 l 579 788 z "},"ģ":{"ha":692,"x_min":-35,"x_max":675,"o":"m 379 776 l 354 807 l 496 1058 l 549 1047 l 500 803 l 379 776 m 179 -251 q 62 -240 113 -251 q -35 -204 11 -228 l -8 -131 q 72 -153 38 -146 q 151 -161 107 -161 q 271 -137 222 -161 q 353 -52 319 -114 q 406 122 388 10 q 315 51 368 78 q 204 24 263 24 q 86 69 135 24 q 38 222 38 115 q 84 471 38 360 q 218 646 131 582 q 422 710 306 710 q 502 703 464 710 q 557 688 540 696 l 601 736 l 675 725 l 538 18 q 412 -188 508 -125 q 179 -251 315 -251 m 264 124 q 352 154 303 124 q 424 226 401 185 l 432 268 q 499 606 460 426 q 414 625 460 625 q 292 564 340 625 q 223 412 244 503 q 201 231 201 321 q 217 147 201 169 q 264 124 233 124 z "},"ġ":{"ha":701,"x_min":-31,"x_max":679,"o":"m 0 0 m 183 -251 q 66 -240 117 -251 q -31 -204 15 -228 l -4 -131 q 76 -153 42 -146 q 156 -161 111 -161 q 275 -137 226 -161 q 358 -52 324 -114 q 410 122 392 10 q 319 51 372 78 q 208 24 267 24 q 90 69 139 24 q 42 222 42 115 q 88 471 42 360 q 222 646 135 582 q 426 710 308 710 q 506 703 468 710 q 561 688 544 696 l 606 736 l 679 725 l 542 18 q 416 -188 513 -125 q 183 -251 319 -251 m 268 124 q 356 154 307 124 q 426 226 406 185 q 457 382 429 233 l 501 606 q 463 619 486 614 q 418 625 439 625 q 297 564 344 625 q 227 412 249 503 q 206 231 206 321 q 222 147 206 169 q 268 124 238 124 m 461 810 q 392 838 421 810 q 364 904 364 865 q 393 973 364 944 q 461 1001 422 1001 q 528 972 499 1001 q 558 904 558 943 q 529 838 558 865 q 461 810 500 810 z "},"h":{"ha":775,"x_min":51,"x_max":699,"o":"m 232 908 l 131 921 l 119 968 q 249 1005 179 990 q 360 1019 318 1019 q 383 1010 375 1019 q 392 985 392 1000 q 363 815 392 975 q 318 564 335 656 q 463 667 381 625 q 611 710 546 710 q 672 690 651 710 q 693 624 693 669 q 656 413 693 590 q 613 207 618 235 l 586 83 l 699 83 l 699 25 q 613 -3 660 7 q 528 -14 565 -14 q 457 4 483 -14 q 431 71 431 22 q 478 303 431 92 q 531 558 531 528 q 522 587 531 579 q 494 594 513 594 q 401 558 461 594 q 303 475 342 521 l 219 7 l 51 -14 l 232 908 z "},"ħ":{"ha":775,"x_min":51,"x_max":699,"o":"m 211 797 l 94 797 l 110 874 l 225 874 l 236 926 l 133 938 l 122 986 q 360 1019 247 1019 q 383 1011 375 1019 q 392 989 392 1003 q 374 874 392 972 l 569 874 l 556 797 l 360 797 q 318 564 328 610 q 463 667 381 625 q 611 710 546 710 q 672 690 651 710 q 693 624 693 669 q 656 413 693 590 q 613 207 618 235 l 586 83 l 699 83 l 699 25 q 613 -3 660 7 q 528 -14 565 -14 q 457 4 483 -14 q 431 71 431 22 q 478 303 431 92 q 531 558 531 528 q 522 587 531 579 q 494 594 513 594 q 401 558 461 594 q 303 475 342 521 l 219 7 l 51 -14 l 211 797 z "},"ĥ":{"ha":775,"x_min":51,"x_max":699,"o":"m 51 0 m 232 908 l 131 921 l 119 968 q 249 1005 179 990 q 360 1019 318 1019 q 383 1010 375 1019 q 392 985 392 1000 q 363 815 392 975 q 318 564 335 656 q 463 667 381 625 q 611 710 546 710 q 672 690 651 710 q 693 624 693 669 q 656 413 693 590 q 613 207 618 235 l 586 83 l 699 83 l 699 25 q 613 -3 660 7 q 528 -14 565 -14 q 457 4 483 -14 q 431 71 431 22 q 478 303 431 92 q 531 558 531 528 q 522 587 531 579 q 494 594 513 594 q 401 558 461 594 q 303 475 342 521 l 219 7 l 51 -14 l 232 908 m 490 1026 l 347 1129 l 158 1026 l 128 1063 l 311 1242 l 417 1242 l 529 1058 l 490 1026 z "},"ḥ":{"ha":775,"x_min":51,"x_max":699,"o":"m 51 0 m 232 908 l 131 921 l 119 968 q 249 1005 179 990 q 360 1019 318 1019 q 383 1010 375 1019 q 392 985 392 1000 q 363 815 392 975 q 318 564 335 656 q 463 667 381 625 q 611 710 546 710 q 672 690 651 710 q 693 624 693 669 q 656 413 693 590 q 613 207 618 235 l 586 83 l 699 83 l 699 25 q 613 -3 660 7 q 528 -14 565 -14 q 457 4 483 -14 q 431 71 431 22 q 478 303 431 92 q 531 558 531 528 q 522 587 531 579 q 494 594 513 594 q 401 558 461 594 q 303 475 342 521 l 219 7 l 51 -14 l 232 908 m 290 -56 q 359 -85 329 -56 q 389 -153 389 -114 q 360 -219 389 -192 q 290 -247 331 -247 q 223 -219 251 -247 q 194 -153 194 -192 q 223 -85 194 -114 q 290 -56 251 -56 z "},"i":{"ha":419,"x_min":71,"x_max":406,"o":"m 308 1001 q 376 973 347 1001 q 406 906 406 944 q 376 839 406 867 q 308 811 347 811 q 241 839 269 811 q 213 906 213 867 q 241 973 213 944 q 308 1001 269 1001 m 346 679 q 306 463 346 665 q 228 83 265 260 l 336 83 l 336 25 q 157 -14 233 -14 q 92 3 113 -14 q 71 60 71 19 q 133 371 71 83 l 182 600 l 85 611 l 74 661 q 216 696 144 682 q 318 710 288 710 q 346 679 346 710 z "},"ı":{"ha":421,"x_min":74,"x_max":347,"o":"m 347 679 q 308 463 347 665 q 231 83 268 260 l 339 83 l 339 25 q 158 -14 235 -14 q 94 3 114 -14 q 74 60 74 19 q 143 411 74 89 l 182 600 l 86 611 l 75 661 q 216 696 144 682 q 318 710 288 710 q 340 701 332 710 q 347 679 347 693 z "},"í":{"ha":421,"x_min":74,"x_max":464,"o":"m 154 792 l 122 832 l 338 1014 l 464 969 l 464 940 l 154 792 m 158 -14 q 94 3 114 -14 q 74 60 74 19 q 143 411 74 89 l 182 600 l 86 611 l 75 661 q 216 696 144 682 q 318 710 288 710 q 340 701 332 710 q 347 679 347 693 q 308 463 347 665 q 231 83 268 260 l 339 83 l 339 25 q 158 -14 235 -14 z "},"ĭ":{"ha":421,"x_min":74,"x_max":496,"o":"m 74 0 m 347 679 q 308 463 347 665 q 231 83 268 260 l 339 83 l 339 25 q 158 -14 235 -14 q 94 3 114 -14 q 74 60 74 19 q 143 411 74 89 l 182 600 l 86 611 l 75 661 q 216 696 144 682 q 318 710 288 710 q 340 701 332 710 q 347 679 347 693 m 296 815 q 154 939 154 815 q 164 996 154 967 l 232 996 q 228 972 228 986 q 245 927 229 943 q 310 911 261 911 q 398 934 372 911 q 432 996 424 957 l 496 996 q 435 865 479 914 q 296 815 390 815 z "},"ǐ":{"ha":421,"x_min":74,"x_max":517,"o":"m 74 0 m 347 679 q 308 463 347 665 q 231 83 268 260 l 339 83 l 339 25 q 158 -14 235 -14 q 94 3 114 -14 q 74 60 74 19 q 143 411 74 89 l 182 600 l 86 611 l 75 661 q 216 696 144 682 q 318 710 288 710 q 340 701 332 710 q 347 679 347 693 m 185 1018 l 310 904 l 478 1018 l 517 979 l 346 789 l 240 789 l 135 988 l 185 1018 z "},"î":{"ha":421,"x_min":67,"x_max":428,"o":"m 103 788 l 67 825 l 231 1014 l 338 1014 l 428 817 l 381 788 l 267 900 l 103 788 m 158 -14 q 94 3 114 -14 q 74 60 74 19 q 143 411 74 89 l 182 600 l 86 611 l 75 661 q 216 696 144 682 q 318 710 288 710 q 340 701 332 710 q 347 679 347 693 q 308 463 347 665 q 231 83 268 260 l 339 83 l 339 25 q 158 -14 235 -14 z "},"ȉ":{"ha":421,"x_min":28,"x_max":458,"o":"m 28 0 m 347 679 q 308 463 347 665 q 231 83 268 260 l 339 83 l 339 25 q 158 -14 235 -14 q 94 3 114 -14 q 74 60 74 19 q 143 411 74 89 l 182 600 l 86 611 l 75 661 q 216 696 144 682 q 318 710 288 710 q 340 701 332 710 q 347 679 347 693 m 193 774 l 28 993 l 32 1021 l 151 1021 l 235 800 l 193 774 m 417 774 l 251 993 l 256 1021 l 375 1021 l 458 800 l 417 774 z "},"ï":{"ha":421,"x_min":21,"x_max":485,"o":"m 214 903 q 185 838 214 865 q 119 811 157 811 q 51 838 81 811 q 21 903 21 865 q 51 969 21 942 q 119 997 81 997 q 185 969 157 997 q 214 903 214 942 m 485 903 q 456 838 485 865 q 390 811 428 811 q 322 838 351 811 q 293 903 293 865 q 322 969 293 942 q 390 997 351 997 q 456 969 428 997 q 485 903 485 942 m 347 679 q 308 463 347 665 q 231 83 268 260 l 339 83 l 339 25 q 158 -14 235 -14 q 94 3 114 -14 q 74 60 74 19 q 143 411 74 89 l 182 600 l 86 611 l 75 661 q 216 696 144 682 q 318 710 288 710 q 340 701 332 710 q 347 679 347 693 z "},"ị":{"ha":419,"x_min":18,"x_max":406,"o":"m 18 0 m 308 1001 q 376 973 347 1001 q 406 906 406 944 q 376 839 406 867 q 308 811 347 811 q 241 839 269 811 q 213 906 213 867 q 241 973 213 944 q 308 1001 269 1001 m 346 679 q 306 463 346 665 q 228 83 265 260 l 336 83 l 336 25 q 157 -14 233 -14 q 92 3 113 -14 q 71 60 71 19 q 133 371 71 83 l 182 600 l 85 611 l 74 661 q 216 696 144 682 q 318 710 288 710 q 346 679 346 710 m 114 -56 q 183 -85 153 -56 q 213 -153 213 -114 q 183 -219 213 -192 q 114 -247 154 -247 q 47 -219 75 -247 q 18 -153 18 -192 q 47 -85 18 -114 q 114 -56 75 -56 z "},"ì":{"ha":421,"x_min":65,"x_max":407,"o":"m 379 792 l 65 940 l 69 969 l 193 1014 l 407 832 l 379 792 m 158 -14 q 94 3 114 -14 q 74 60 74 19 q 143 411 74 89 l 182 600 l 86 611 l 75 661 q 216 696 144 682 q 318 710 288 710 q 340 701 332 710 q 347 679 347 693 q 308 463 347 665 q 231 83 268 260 l 339 83 l 339 25 q 158 -14 235 -14 z "},"ỉ":{"ha":421,"x_min":74,"x_max":461,"o":"m 74 0 m 347 679 q 308 463 347 665 q 231 83 268 260 l 339 83 l 339 25 q 158 -14 235 -14 q 94 3 114 -14 q 74 60 74 19 q 143 411 74 89 l 182 600 l 86 611 l 75 661 q 216 696 144 682 q 318 710 288 710 q 340 701 332 710 q 347 679 347 693 m 269 763 q 269 776 268 769 q 269 783 269 782 q 283 809 271 800 q 318 828 294 818 q 353 847 342 838 q 365 871 365 856 q 321 897 365 897 q 286 894 314 897 l 268 856 l 217 856 l 222 929 q 342 942 300 942 q 430 924 399 942 q 461 875 461 907 q 406 811 461 831 q 376 801 396 807 q 344 785 356 794 q 332 763 333 776 l 269 763 z "},"ȋ":{"ha":421,"x_min":74,"x_max":472,"o":"m 74 0 m 347 679 q 308 463 347 665 q 231 83 268 260 l 339 83 l 339 25 q 158 -14 235 -14 q 94 3 114 -14 q 74 60 74 19 q 143 411 74 89 l 182 600 l 86 611 l 75 661 q 216 696 144 682 q 318 710 288 710 q 340 701 332 710 q 347 679 347 693 m 331 1004 q 472 882 472 1004 q 463 825 472 854 l 394 825 q 399 849 399 836 q 381 894 397 878 q 317 910 365 910 q 229 887 254 910 q 194 825 204 864 l 129 825 q 191 956 146 907 q 331 1004 236 1004 z "},"ĳ":{"ha":806,"x_min":71,"x_max":808,"o":"m 71 0 m 308 1001 q 376 973 347 1001 q 406 906 406 944 q 376 839 406 867 q 308 811 347 811 q 241 839 269 811 q 213 906 213 867 q 241 973 213 944 q 308 1001 269 1001 m 346 679 q 306 463 346 665 q 228 83 265 260 l 336 83 l 336 25 q 157 -14 233 -14 q 92 3 113 -14 q 71 60 71 19 q 133 371 71 83 l 182 600 l 85 611 l 74 661 q 216 696 144 682 q 318 710 288 710 q 346 679 346 710 m 711 811 q 643 839 672 811 q 614 906 614 867 q 643 973 614 944 q 711 1001 672 1001 q 779 973 750 1001 q 808 906 808 944 q 779 839 808 867 q 711 811 750 811 m 379 -247 q 299 -237 336 -247 q 238 -217 261 -228 q 208 -203 214 -207 l 228 -137 q 331 -157 282 -157 q 426 -124 389 -157 q 476 -14 463 -92 l 592 601 l 496 611 l 485 661 q 619 695 543 681 q 729 710 694 710 q 760 678 760 710 q 744 585 757 656 q 711 408 731 515 l 631 -28 q 549 -190 611 -132 q 379 -247 486 -247 z "},"ī":{"ha":421,"x_min":74,"x_max":432,"o":"m 110 936 l 432 936 l 418 839 l 96 839 l 110 936 m 347 679 q 308 463 347 665 q 231 83 268 260 l 339 83 l 339 25 q 158 -14 235 -14 q 94 3 114 -14 q 74 60 74 19 q 143 411 74 89 l 182 600 l 86 611 l 75 661 q 216 696 144 682 q 318 710 288 710 q 340 701 332 710 q 347 679 347 693 z "},"į":{"ha":421,"x_min":69,"x_max":410,"o":"m 313 1001 q 381 973 351 1001 q 410 906 410 944 q 381 839 410 867 q 313 811 353 811 q 245 839 274 811 q 217 906 217 867 q 245 973 217 944 q 313 1001 274 1001 m 350 679 q 308 452 350 665 q 232 83 265 239 l 342 83 l 342 25 q 247 -47 282 -6 q 197 -126 211 -89 q 183 -190 183 -164 q 198 -235 183 -219 q 240 -250 213 -250 q 324 -219 283 -250 l 349 -247 q 328 -271 349 -250 q 272 -310 307 -292 q 193 -328 238 -328 q 99 -299 128 -328 q 69 -225 69 -269 q 98 -128 69 -183 q 207 -10 126 -72 q 161 -14 182 -14 q 96 3 117 -14 q 75 60 75 19 q 138 371 75 83 l 186 600 l 90 611 l 79 661 q 220 696 149 682 q 322 710 292 710 q 350 679 350 710 z "},"ĩ":{"ha":421,"x_min":38,"x_max":475,"o":"m 361 819 q 249 847 326 819 q 194 865 221 857 q 153 872 168 872 q 126 862 139 872 q 104 841 113 851 q 94 826 96 831 l 38 850 q 153 989 96 989 q 263 961 185 989 q 317 944 290 951 q 361 936 344 936 q 389 946 376 936 q 410 967 401 956 q 419 981 418 978 l 475 958 q 421 856 447 892 q 361 819 394 819 m 158 -14 q 94 3 114 -14 q 74 60 74 19 q 143 411 74 89 l 182 600 l 86 611 l 75 661 q 216 696 144 682 q 318 710 288 710 q 340 701 332 710 q 347 679 347 693 q 308 463 347 665 q 231 83 268 260 l 339 83 l 339 25 q 158 -14 235 -14 z "},"j":{"ha":399,"x_min":-199,"x_max":401,"o":"m 304 811 q 236 839 265 811 q 207 906 207 867 q 236 973 207 944 q 304 1001 265 1001 q 372 973 343 1001 q 401 906 401 944 q 372 839 401 867 q 304 811 343 811 m -28 -247 q -108 -237 -71 -247 q -169 -217 -146 -228 q -199 -203 -193 -207 l -179 -137 q -76 -157 -125 -157 q 19 -124 -18 -157 q 69 -14 56 -92 l 185 601 l 89 611 l 78 661 q 212 695 136 681 q 322 710 288 710 q 353 678 353 710 q 337 585 350 656 q 304 408 324 515 l 224 -28 q 142 -190 204 -132 q -28 -247 79 -247 z "},"ȷ":{"ha":399,"x_min":-199,"x_max":353,"o":"m 353 678 q 337 585 350 656 q 304 408 324 515 l 224 -28 q 142 -190 204 -132 q -28 -247 79 -247 q -108 -237 -71 -247 q -169 -217 -146 -228 q -199 -203 -193 -207 l -179 -137 q -76 -157 -125 -157 q 19 -124 -18 -157 q 69 -14 56 -92 l 185 601 l 89 611 l 78 661 q 212 695 136 681 q 322 710 288 710 q 353 678 353 710 z "},"ĵ":{"ha":399,"x_min":-199,"x_max":475,"o":"m 0 0 m 353 678 q 337 585 350 656 q 304 408 324 515 l 224 -28 q 142 -190 204 -132 q -28 -247 79 -247 q -108 -237 -71 -247 q -169 -217 -146 -228 q -199 -203 -193 -207 l -179 -137 q -76 -157 -125 -157 q 19 -124 -18 -157 q 69 -14 56 -92 l 185 601 l 89 611 l 78 661 q 212 695 136 681 q 322 710 288 710 q 353 678 353 710 m 428 788 l 308 900 l 139 788 l 103 825 l 272 1014 l 379 1014 l 475 817 l 428 788 z "},"k":{"ha":719,"x_min":51,"x_max":710,"o":"m 51 -14 l 232 908 l 131 921 l 119 969 q 253 1006 186 992 q 358 1019 319 1019 q 392 986 392 1019 q 340 686 392 958 l 319 567 q 393 631 344 597 q 500 687 442 664 q 611 710 558 710 q 710 617 710 710 q 649 466 710 536 q 461 354 589 396 l 554 83 l 661 83 l 661 25 q 463 -14 546 -14 q 398 67 431 -14 q 341 246 365 149 q 317 351 317 343 l 324 374 q 499 453 442 406 q 557 561 557 501 q 547 592 557 583 q 513 601 536 601 q 406 563 471 601 q 304 476 342 524 l 221 7 l 51 -14 z "},"ķ":{"ha":711,"x_min":47,"x_max":706,"o":"m 229 908 l 126 921 l 115 969 q 249 1006 182 992 q 356 1019 315 1019 q 388 986 388 1019 q 336 686 388 958 l 315 567 q 444 663 358 617 q 607 710 529 710 q 706 617 706 710 q 645 466 706 536 q 457 354 585 396 l 550 83 l 657 83 l 657 25 q 460 -14 544 -14 q 394 67 426 -14 q 337 246 361 149 q 313 351 313 343 l 321 374 q 495 453 438 406 q 553 561 553 501 q 542 592 553 582 q 510 601 532 601 q 403 563 467 601 q 300 476 339 525 l 217 7 l 47 -14 l 229 908 m 236 -321 l 189 -307 l 238 -62 l 357 -36 l 385 -67 l 236 -321 z "},"ĸ":{"ha":732,"x_min":63,"x_max":722,"o":"m 63 -14 l 183 596 l 83 608 l 72 657 q 205 693 131 678 q 315 708 279 708 q 349 674 349 708 q 340 617 349 664 l 332 567 q 406 631 357 597 q 513 687 454 664 q 624 710 571 710 q 722 617 722 710 q 662 466 722 536 q 474 354 601 396 l 567 83 l 674 83 l 674 25 q 475 -14 561 -14 q 410 67 443 -14 q 353 246 378 149 q 329 351 329 343 l 336 374 q 512 453 454 406 q 569 561 569 501 q 559 592 569 582 q 526 601 549 601 q 419 563 483 601 q 317 476 356 525 l 233 7 l 63 -14 z "},"l":{"ha":422,"x_min":68,"x_max":389,"o":"m 150 -14 q 68 61 68 -14 q 107 280 68 79 q 156 532 146 481 q 228 907 203 765 l 125 919 l 114 968 q 244 1005 174 990 q 357 1019 315 1019 q 389 986 389 1019 q 385 949 389 976 l 231 85 l 343 85 l 343 26 q 234 -3 286 7 q 150 -14 182 -14 z "},"ĺ":{"ha":422,"x_min":69,"x_max":469,"o":"m 147 1007 l 119 1051 l 347 1218 l 469 1163 l 467 1133 l 147 1007 m 151 -14 q 69 61 69 -14 q 108 280 69 79 q 157 532 147 481 q 229 907 204 765 l 126 919 l 115 968 q 246 1005 175 990 q 358 1019 317 1019 q 390 986 390 1019 q 386 949 390 976 l 232 85 l 344 85 l 344 26 q 235 -3 288 7 q 151 -14 183 -14 z "},"ľ":{"ha":460,"x_min":69,"x_max":554,"o":"m 151 -14 q 69 61 69 -14 q 108 280 69 79 q 157 532 147 481 q 229 907 204 765 l 126 919 l 115 968 q 246 1005 175 990 q 358 1019 317 1019 q 390 986 390 1019 q 386 949 390 976 l 232 85 l 344 85 l 344 26 q 235 -3 288 7 q 151 -14 183 -14 m 447 732 l 425 1019 l 468 1019 l 554 996 l 494 732 l 447 732 z "},"ļ":{"ha":422,"x_min":44,"x_max":390,"o":"m 151 -14 q 69 61 69 -14 q 108 280 69 79 q 157 532 147 481 q 229 907 204 765 l 126 919 l 115 968 q 246 1005 175 990 q 358 1019 317 1019 q 390 986 390 1019 q 386 949 390 976 l 232 85 l 344 85 l 344 26 q 235 -3 288 7 q 151 -14 183 -14 m 93 -321 l 44 -307 l 94 -62 l 214 -36 l 242 -67 l 93 -321 z "},"ŀ":{"ha":422,"x_min":68,"x_max":553,"o":"m 68 0 m 150 -14 q 68 61 68 -14 q 107 280 68 79 q 156 532 146 481 q 228 907 203 765 l 125 919 l 114 968 q 244 1005 174 990 q 357 1019 315 1019 q 389 986 389 1019 q 385 949 389 976 l 231 85 l 343 85 l 343 26 q 234 -3 286 7 q 150 -14 182 -14 m 553 583 q 524 513 553 542 q 453 485 496 485 q 381 513 411 485 q 351 583 351 542 q 381 654 351 625 q 453 683 411 683 q 524 655 496 683 q 553 583 553 626 z "},"ǉ":{"ha":821,"x_min":68,"x_max":824,"o":"m 68 0 m 150 -14 q 68 61 68 -14 q 107 280 68 79 q 156 532 146 481 q 228 907 203 765 l 125 919 l 114 968 q 244 1005 174 990 q 357 1019 315 1019 q 389 986 389 1019 q 385 949 389 976 l 231 85 l 343 85 l 343 26 q 234 -3 286 7 q 150 -14 182 -14 m 726 811 q 658 839 688 811 q 629 906 629 867 q 658 973 629 944 q 726 1001 688 1001 q 794 973 765 1001 q 824 906 824 944 q 794 839 824 867 q 726 811 765 811 m 394 -247 q 314 -237 351 -247 q 253 -217 276 -228 q 224 -203 229 -207 l 243 -137 q 346 -157 297 -157 q 441 -124 404 -157 q 492 -14 478 -92 l 607 601 l 511 611 l 500 661 q 634 695 558 681 q 744 710 710 710 q 775 678 775 710 q 759 585 772 656 q 726 408 746 515 l 646 -28 q 564 -190 626 -132 q 394 -247 501 -247 z "},"ł":{"ha":429,"x_min":-1,"x_max":472,"o":"m 236 85 l 349 85 l 349 26 q 240 -3 292 7 q 156 -14 188 -14 q 74 61 74 -14 q 118 307 74 75 l 140 426 l 31 375 l -1 447 l 160 522 l 172 583 q 233 907 194 696 l 131 919 l 119 968 q 250 1005 179 990 q 363 1019 321 1019 q 394 986 394 1019 q 390 949 394 976 l 328 601 l 439 653 l 472 582 l 311 507 l 236 85 z "},"m":{"ha":1129,"x_min":64,"x_max":1054,"o":"m 185 596 l 83 608 l 74 657 q 204 692 132 678 q 315 707 276 707 q 340 694 333 707 q 347 671 347 682 q 340 616 347 658 q 331 564 332 574 q 471 667 390 624 q 614 710 551 710 q 674 688 653 710 q 696 625 696 665 q 689 567 696 606 q 828 668 749 626 q 965 710 908 710 q 1030 690 1011 710 q 1049 622 1049 669 q 942 83 1049 576 l 1054 83 l 1054 25 q 969 -3 1015 7 q 889 -14 924 -14 q 813 4 839 -14 q 786 75 786 22 q 806 181 786 93 q 831 289 826 268 q 885 553 885 522 q 880 586 885 576 q 857 596 875 596 q 769 559 824 596 q 674 478 714 522 l 589 7 l 419 -14 l 471 240 q 529 547 529 521 q 524 585 529 574 q 499 596 518 596 q 411 558 465 596 q 317 475 357 521 l 233 7 l 64 -14 l 185 596 z "},"n":{"ha":789,"x_min":63,"x_max":711,"o":"m 331 564 q 484 672 403 632 q 621 711 565 711 q 686 690 667 711 q 706 621 706 668 q 600 83 706 569 l 711 83 l 711 25 q 626 -3 672 7 q 542 -14 581 -14 q 469 5 493 -14 q 444 71 444 24 q 466 186 444 92 q 492 301 488 281 q 527 462 511 385 q 543 558 543 539 q 510 596 543 596 q 416 560 475 596 q 315 475 357 524 l 233 7 l 63 -14 l 183 596 l 83 608 l 72 657 q 206 693 136 678 q 314 708 275 708 q 340 699 331 708 q 349 672 349 689 q 342 625 349 661 q 331 564 336 589 z "},"ń":{"ha":789,"x_min":64,"x_max":713,"o":"m 371 792 l 339 832 l 556 1014 l 681 969 l 681 940 l 371 792 m 332 564 q 485 672 404 632 q 621 711 565 711 q 688 690 668 711 q 707 621 707 668 q 674 424 707 588 q 600 83 640 261 l 713 83 l 713 25 q 628 -3 674 7 q 543 -14 582 -14 q 470 5 494 -14 q 446 71 446 24 q 467 186 446 92 q 493 301 489 281 q 528 462 513 385 q 544 558 544 539 q 511 596 544 596 q 417 560 476 596 q 317 475 358 524 l 233 7 l 64 -14 l 185 596 l 83 608 l 74 657 q 206 693 138 678 q 315 708 275 708 q 341 699 332 708 q 350 672 350 689 q 344 625 350 661 q 332 564 338 589 z "},"ŉ":{"ha":833,"x_min":63,"x_max":711,"o":"m 63 0 m 263 732 l 242 1019 l 283 1019 l 371 996 l 311 732 l 263 732 m 331 564 q 484 672 403 632 q 621 711 565 711 q 686 690 667 711 q 706 621 706 668 q 600 83 706 569 l 711 83 l 711 25 q 626 -3 672 7 q 542 -14 581 -14 q 469 5 493 -14 q 444 71 444 24 q 466 186 444 92 q 492 301 488 281 q 527 462 511 385 q 543 558 543 539 q 510 596 543 596 q 416 560 475 596 q 315 475 357 524 l 233 7 l 63 -14 l 183 596 l 83 608 l 72 657 q 206 693 136 678 q 314 708 275 708 q 340 699 331 708 q 349 672 349 689 q 342 625 349 661 q 331 564 336 589 z "},"ň":{"ha":789,"x_min":64,"x_max":713,"o":"m 350 1018 l 476 904 l 643 1018 l 682 979 l 511 789 l 406 789 l 300 988 l 350 1018 m 332 564 q 485 672 404 632 q 621 711 565 711 q 688 690 668 711 q 707 621 707 668 q 674 424 707 588 q 600 83 640 261 l 713 83 l 713 25 q 628 -3 674 7 q 543 -14 582 -14 q 470 5 494 -14 q 446 71 446 24 q 467 186 446 92 q 493 301 489 281 q 528 462 513 385 q 544 558 544 539 q 511 596 544 596 q 417 560 476 596 q 317 475 358 524 l 233 7 l 64 -14 l 185 596 l 83 608 l 74 657 q 206 693 138 678 q 315 708 275 708 q 341 699 332 708 q 350 672 350 689 q 344 625 350 661 q 332 564 338 589 z "},"ņ":{"ha":789,"x_min":64,"x_max":713,"o":"m 185 596 l 83 608 l 74 657 q 206 693 138 678 q 315 708 275 708 q 341 699 332 708 q 350 672 350 689 q 344 625 350 661 q 332 564 338 589 q 485 672 404 632 q 621 711 565 711 q 688 690 668 711 q 707 621 707 668 q 674 424 707 588 q 600 83 640 261 l 713 83 l 713 25 q 628 -3 674 7 q 543 -14 582 -14 q 470 5 494 -14 q 446 71 446 24 q 467 186 446 92 q 493 301 489 281 q 528 462 513 385 q 544 558 544 539 q 511 596 544 596 q 417 560 476 596 q 317 475 358 524 l 233 7 l 64 -14 l 185 596 m 281 -321 l 233 -307 l 282 -62 l 401 -36 l 429 -67 l 281 -321 z "},"ṅ":{"ha":789,"x_min":63,"x_max":711,"o":"m 63 0 m 331 564 q 484 672 403 632 q 621 711 565 711 q 686 690 667 711 q 706 621 706 668 q 600 83 706 569 l 711 83 l 711 25 q 626 -3 672 7 q 542 -14 581 -14 q 469 5 493 -14 q 444 71 444 24 q 466 186 444 92 q 492 301 488 281 q 527 462 511 385 q 543 558 543 539 q 510 596 543 596 q 416 560 475 596 q 315 475 357 524 l 233 7 l 63 -14 l 183 596 l 83 608 l 72 657 q 206 693 136 678 q 314 708 275 708 q 340 699 331 708 q 349 672 349 689 q 342 625 349 661 q 331 564 336 589 m 504 810 q 435 838 464 810 q 407 904 407 865 q 436 973 407 944 q 504 1001 465 1001 q 572 972 542 1001 q 601 904 601 943 q 572 838 601 865 q 504 810 543 810 z "},"ŋ":{"ha":789,"x_min":63,"x_max":706,"o":"m 621 711 q 686 690 667 711 q 706 621 706 668 q 685 459 706 578 q 594 -28 664 340 q 511 -190 574 -132 q 346 -247 449 -247 q 251 -234 296 -247 q 172 -203 206 -221 l 192 -137 q 293 -157 246 -157 q 388 -125 350 -157 q 440 -14 425 -93 q 524 420 506 318 q 543 558 543 522 q 510 596 543 596 q 416 560 475 596 q 315 475 357 524 l 233 7 l 63 -14 l 183 596 l 83 608 l 72 657 q 206 693 136 678 q 314 708 275 708 q 340 699 331 708 q 349 672 349 689 q 342 625 349 661 q 331 564 336 589 q 484 672 403 632 q 621 711 565 711 z "},"ɲ":{"ha":789,"x_min":-199,"x_max":711,"o":"m 711 83 l 711 25 q 626 -3 672 7 q 542 -14 581 -14 q 469 5 493 -14 q 444 71 444 24 q 466 186 444 92 q 492 301 488 281 q 527 462 511 385 q 543 558 543 539 q 510 596 543 596 q 415 559 475 596 q 315 474 356 522 q 261 178 288 325 l 224 -28 q 142 -190 204 -132 q -28 -247 79 -247 q -108 -237 -71 -247 q -169 -217 -146 -228 q -199 -203 -193 -207 l -179 -137 q -76 -157 -125 -157 q 19 -124 -18 -157 q 69 -14 56 -92 l 183 596 l 83 608 l 72 657 q 206 693 136 678 q 314 708 275 708 q 340 699 331 708 q 349 672 349 689 q 342 625 349 661 q 331 564 336 589 q 484 672 403 632 q 621 711 565 711 q 686 690 667 711 q 706 621 706 668 q 600 83 706 569 l 711 83 z "},"ǌ":{"ha":1188,"x_min":63,"x_max":1190,"o":"m 63 0 m 331 564 q 484 672 403 632 q 621 711 565 711 q 686 690 667 711 q 706 621 706 668 q 600 83 706 569 l 711 83 l 711 25 q 626 -3 672 7 q 542 -14 581 -14 q 469 5 493 -14 q 444 71 444 24 q 466 186 444 92 q 492 301 488 281 q 527 462 511 385 q 543 558 543 539 q 510 596 543 596 q 416 560 475 596 q 315 475 357 524 l 233 7 l 63 -14 l 183 596 l 83 608 l 72 657 q 206 693 136 678 q 314 708 275 708 q 340 699 331 708 q 349 672 349 689 q 342 625 349 661 q 331 564 336 589 m 1093 811 q 1025 839 1054 811 q 996 906 996 867 q 1025 973 996 944 q 1093 1001 1054 1001 q 1161 973 1132 1001 q 1190 906 1190 944 q 1161 839 1190 867 q 1093 811 1132 811 m 761 -247 q 681 -237 718 -247 q 619 -217 643 -228 q 590 -203 596 -207 l 610 -137 q 713 -157 664 -157 q 808 -124 771 -157 q 858 -14 844 -92 l 974 601 l 878 611 l 867 661 q 1001 695 925 681 q 1111 710 1076 710 q 1142 678 1142 710 q 1126 585 1139 656 q 1093 408 1113 515 l 1013 -28 q 931 -190 993 -132 q 761 -247 868 -247 z "},"ñ":{"ha":789,"x_min":64,"x_max":713,"o":"m 710 958 q 656 856 682 892 q 597 819 629 819 q 478 847 561 819 q 421 865 449 857 q 378 872 393 872 q 350 862 363 872 q 329 841 338 851 q 319 826 321 831 l 263 850 q 317 952 290 915 q 376 989 344 989 q 424 982 397 989 q 494 961 451 975 q 597 936 572 936 q 625 946 613 936 q 646 967 638 956 q 656 981 654 978 l 710 958 m 332 564 q 485 672 404 632 q 621 711 565 711 q 688 690 668 711 q 707 621 707 668 q 674 424 707 588 q 600 83 640 261 l 713 83 l 713 25 q 628 -3 674 7 q 543 -14 582 -14 q 470 5 494 -14 q 446 71 446 24 q 467 186 446 92 q 493 301 489 281 q 528 462 513 385 q 544 558 544 539 q 511 596 544 596 q 417 560 476 596 q 317 475 358 524 l 233 7 l 64 -14 l 185 596 l 83 608 l 74 657 q 206 693 138 678 q 315 708 275 708 q 341 699 332 708 q 350 672 350 689 q 344 625 350 661 q 332 564 338 589 z "},"o":{"ha":697,"x_min":42,"x_max":654,"o":"m 443 710 q 602 653 550 710 q 654 499 654 597 q 603 224 654 340 q 462 47 553 108 q 250 -14 371 -14 q 94 42 146 -14 q 42 197 42 97 q 92 473 42 357 q 233 649 143 589 q 443 710 324 710 m 288 69 q 442 200 394 69 q 490 500 490 331 q 473 593 490 561 q 410 625 456 625 q 289 557 335 625 q 224 391 243 489 q 206 196 206 293 q 224 101 206 133 q 288 69 242 69 z "},"ó":{"ha":697,"x_min":42,"x_max":654,"o":"m 42 0 m 443 710 q 602 653 550 710 q 654 499 654 597 q 603 224 654 340 q 462 47 553 108 q 250 -14 371 -14 q 94 42 146 -14 q 42 197 42 97 q 92 473 42 357 q 233 649 143 589 q 443 710 324 710 m 288 69 q 442 200 394 69 q 490 500 490 331 q 473 593 490 561 q 410 625 456 625 q 289 557 335 625 q 224 391 243 489 q 206 196 206 293 q 224 101 206 133 q 288 69 242 69 m 325 792 l 293 832 l 508 1014 l 635 969 l 635 940 l 325 792 z "},"ŏ":{"ha":697,"x_min":42,"x_max":654,"o":"m 42 0 m 443 710 q 602 653 550 710 q 654 499 654 597 q 603 224 654 340 q 462 47 553 108 q 250 -14 371 -14 q 94 42 146 -14 q 42 197 42 97 q 92 473 42 357 q 233 649 143 589 q 443 710 324 710 m 288 69 q 442 200 394 69 q 490 500 490 331 q 473 593 490 561 q 410 625 456 625 q 289 557 335 625 q 224 391 243 489 q 206 196 206 293 q 224 101 206 133 q 288 69 242 69 m 433 815 q 292 939 292 815 q 301 996 292 967 l 369 996 q 365 972 365 986 q 383 927 367 943 q 447 911 399 911 q 535 934 510 911 q 569 996 561 957 l 633 996 q 572 865 617 914 q 433 815 528 815 z "},"ǒ":{"ha":697,"x_min":42,"x_max":654,"o":"m 42 0 m 443 710 q 602 653 550 710 q 654 499 654 597 q 603 224 654 340 q 462 47 553 108 q 250 -14 371 -14 q 94 42 146 -14 q 42 197 42 97 q 92 473 42 357 q 233 649 143 589 q 443 710 324 710 m 288 69 q 442 200 394 69 q 490 500 490 331 q 473 593 490 561 q 410 625 456 625 q 289 557 335 625 q 224 391 243 489 q 206 196 206 293 q 224 101 206 133 q 288 69 242 69 m 322 1018 l 447 904 l 615 1018 l 654 979 l 483 789 l 378 789 l 272 988 l 322 1018 z "},"ô":{"ha":697,"x_min":42,"x_max":654,"o":"m 576 788 l 457 900 l 288 788 l 251 825 l 421 1014 l 526 1014 l 624 817 l 576 788 m 443 710 q 602 653 550 710 q 654 499 654 597 q 603 224 654 340 q 462 47 553 108 q 250 -14 371 -14 q 94 42 146 -14 q 42 197 42 97 q 92 473 42 357 q 233 649 143 589 q 443 710 324 710 m 288 69 q 442 200 394 69 q 490 500 490 331 q 473 593 490 561 q 410 625 456 625 q 289 557 335 625 q 224 391 243 489 q 206 196 206 293 q 224 101 206 133 q 288 69 242 69 z "},"ố":{"ha":697,"x_min":42,"x_max":897,"o":"m 657 863 l 613 890 l 754 1135 l 888 1135 l 897 1107 l 657 863 m 576 788 l 457 900 l 288 788 l 251 825 l 421 1014 l 528 1014 l 624 817 l 576 788 m 443 710 q 602 653 550 710 q 654 499 654 597 q 603 224 654 340 q 462 47 553 108 q 250 -14 371 -14 q 94 42 146 -14 q 42 197 42 97 q 92 473 42 357 q 233 649 143 589 q 443 710 324 710 m 288 69 q 442 200 394 69 q 490 500 490 331 q 473 593 490 561 q 410 625 456 625 q 289 557 335 625 q 224 391 243 489 q 206 196 206 293 q 224 101 206 133 q 288 69 242 69 z "},"ộ":{"ha":697,"x_min":42,"x_max":654,"o":"m 42 0 m 443 710 q 602 653 550 710 q 654 499 654 597 q 603 224 654 340 q 462 47 553 108 q 250 -14 371 -14 q 94 42 146 -14 q 42 197 42 97 q 92 473 42 357 q 233 649 143 589 q 443 710 324 710 m 288 69 q 442 200 394 69 q 490 500 490 331 q 473 593 490 561 q 410 625 456 625 q 289 557 335 625 q 224 391 243 489 q 206 196 206 293 q 224 101 206 133 q 288 69 242 69 m 251 -56 q 320 -85 290 -56 q 350 -153 350 -114 q 321 -219 350 -192 q 251 -247 292 -247 q 184 -219 213 -247 q 156 -153 156 -192 q 184 -85 156 -114 q 251 -56 213 -56 m 576 788 l 457 900 l 288 788 l 251 825 l 421 1014 l 528 1014 l 624 817 l 576 788 z "},"ồ":{"ha":697,"x_min":42,"x_max":699,"o":"m 651 861 l 503 1113 l 524 1135 l 625 1135 l 699 881 l 651 861 m 568 788 l 449 900 l 279 788 l 243 825 l 413 1014 l 519 1014 l 615 817 l 568 788 m 443 710 q 602 653 550 710 q 654 499 654 597 q 603 224 654 340 q 462 47 553 108 q 250 -14 371 -14 q 94 42 146 -14 q 42 197 42 97 q 92 473 42 357 q 233 649 143 589 q 443 710 324 710 m 288 69 q 442 200 394 69 q 490 500 490 331 q 473 593 490 561 q 410 625 456 625 q 289 557 335 625 q 224 391 243 489 q 206 196 206 293 q 224 101 206 133 q 288 69 242 69 z "},"ổ":{"ha":697,"x_min":42,"x_max":796,"o":"m 42 0 m 443 710 q 602 653 550 710 q 654 499 654 597 q 603 224 654 340 q 462 47 553 108 q 250 -14 371 -14 q 94 42 146 -14 q 42 197 42 97 q 92 473 42 357 q 233 649 143 589 q 443 710 324 710 m 288 69 q 442 200 394 69 q 490 500 490 331 q 473 593 490 561 q 410 625 456 625 q 289 557 335 625 q 224 391 243 489 q 206 196 206 293 q 224 101 206 133 q 288 69 242 69 m 576 788 l 457 900 l 288 788 l 251 825 l 421 1014 l 528 1014 l 624 817 l 576 788 m 604 957 q 603 970 603 964 q 604 978 604 976 q 617 1003 606 994 q 653 1022 629 1013 q 688 1041 676 1032 q 700 1065 700 1050 q 656 1092 700 1092 q 621 1089 649 1092 l 603 1050 l 551 1050 l 557 1124 q 676 1136 635 1136 q 765 1119 733 1136 q 796 1069 796 1101 q 740 1006 796 1025 q 710 995 731 1001 q 679 980 690 989 q 667 957 668 971 l 604 957 z "},"ỗ":{"ha":697,"x_min":42,"x_max":714,"o":"m 42 0 m 443 710 q 602 653 550 710 q 654 499 654 597 q 603 224 654 340 q 462 47 553 108 q 250 -14 371 -14 q 94 42 146 -14 q 42 197 42 97 q 92 473 42 357 q 233 649 143 589 q 443 710 324 710 m 288 69 q 442 200 394 69 q 490 500 490 331 q 473 593 490 561 q 410 625 456 625 q 289 557 335 625 q 224 391 243 489 q 206 196 206 293 q 224 101 206 133 q 288 69 242 69 m 588 725 l 444 828 l 256 725 l 225 761 l 408 940 l 514 940 l 626 757 l 588 725 m 714 1086 q 659 983 686 1021 q 600 946 632 946 q 474 974 565 946 q 413 991 443 983 q 368 999 383 999 q 340 989 353 999 q 319 968 328 979 q 310 954 311 957 l 253 976 q 305 1078 275 1039 q 368 1117 335 1117 q 493 1089 401 1117 q 553 1072 524 1079 q 600 1064 583 1064 q 628 1074 615 1064 q 650 1095 642 1085 q 660 1110 658 1106 l 714 1086 z "},"ȍ":{"ha":697,"x_min":42,"x_max":654,"o":"m 42 0 m 443 710 q 602 653 550 710 q 654 499 654 597 q 603 224 654 340 q 462 47 553 108 q 250 -14 371 -14 q 94 42 146 -14 q 42 197 42 97 q 92 473 42 357 q 233 649 143 589 q 443 710 324 710 m 288 69 q 442 200 394 69 q 490 500 490 331 q 473 593 490 561 q 410 625 456 625 q 289 557 335 625 q 224 391 243 489 q 206 196 206 293 q 224 101 206 133 q 288 69 242 69 m 331 774 l 165 993 l 169 1021 l 289 1021 l 372 800 l 331 774 m 554 774 l 389 993 l 393 1021 l 513 1021 l 596 800 l 554 774 z "},"ö":{"ha":697,"x_min":42,"x_max":683,"o":"m 381 903 q 353 838 381 864 q 286 811 325 811 q 218 838 247 811 q 189 903 189 865 q 218 969 189 942 q 286 997 247 997 q 353 969 325 997 q 381 903 381 942 m 683 903 q 656 838 683 865 q 590 811 628 811 q 522 838 550 811 q 493 903 493 864 q 522 969 493 942 q 590 997 550 997 q 656 969 628 997 q 683 903 683 942 m 443 710 q 602 653 550 710 q 654 499 654 597 q 603 224 654 340 q 462 47 553 108 q 250 -14 371 -14 q 94 42 146 -14 q 42 197 42 97 q 92 473 42 357 q 233 649 143 589 q 443 710 324 710 m 288 69 q 442 200 394 69 q 490 500 490 331 q 473 593 490 561 q 410 625 456 625 q 289 557 335 625 q 224 391 243 489 q 206 196 206 293 q 224 101 206 133 q 288 69 242 69 z "},"ọ":{"ha":697,"x_min":42,"x_max":654,"o":"m 42 0 m 443 710 q 602 653 550 710 q 654 499 654 597 q 603 224 654 340 q 462 47 553 108 q 250 -14 371 -14 q 94 42 146 -14 q 42 197 42 97 q 92 473 42 357 q 233 649 143 589 q 443 710 324 710 m 288 69 q 442 200 394 69 q 490 500 490 331 q 473 593 490 561 q 410 625 456 625 q 289 557 335 625 q 224 391 243 489 q 206 196 206 293 q 224 101 206 133 q 288 69 242 69 m 251 -56 q 320 -85 290 -56 q 350 -153 350 -114 q 321 -219 350 -192 q 251 -247 292 -247 q 184 -219 213 -247 q 156 -153 156 -192 q 184 -85 156 -114 q 251 -56 213 -56 z "},"ò":{"ha":697,"x_min":42,"x_max":654,"o":"m 560 792 l 247 940 l 250 969 l 375 1014 l 589 832 l 560 792 m 250 -14 q 94 42 146 -14 q 42 197 42 97 q 92 473 42 357 q 233 649 143 589 q 443 710 324 710 q 602 653 550 710 q 654 499 654 597 q 603 224 654 340 q 462 47 553 108 q 250 -14 371 -14 m 288 69 q 442 200 394 69 q 490 500 490 331 q 473 593 490 561 q 410 625 456 625 q 289 557 335 625 q 224 391 243 489 q 206 196 206 293 q 224 101 206 133 q 288 69 242 69 z "},"ỏ":{"ha":697,"x_min":42,"x_max":654,"o":"m 42 0 m 443 710 q 602 653 550 710 q 654 499 654 597 q 603 224 654 340 q 462 47 553 108 q 250 -14 371 -14 q 94 42 146 -14 q 42 197 42 97 q 92 473 42 357 q 233 649 143 589 q 443 710 324 710 m 288 69 q 442 200 394 69 q 490 500 490 331 q 473 593 490 561 q 410 625 456 625 q 289 557 335 625 q 224 391 243 489 q 206 196 206 293 q 224 101 206 133 q 288 69 242 69 m 407 763 q 406 776 406 769 q 407 783 407 782 q 420 809 408 800 q 456 828 432 818 q 491 847 479 838 q 503 871 503 856 q 458 897 503 897 q 424 894 451 897 l 406 856 l 354 856 l 360 929 q 479 942 438 942 q 567 924 536 942 q 599 875 599 907 q 543 811 599 831 q 513 801 533 807 q 482 785 493 794 q 469 763 471 776 l 407 763 z "},"ơ":{"ha":697,"x_min":42,"x_max":801,"o":"m 801 739 q 756 646 801 685 q 640 592 710 607 q 654 499 654 551 q 603 224 654 340 q 462 47 553 108 q 250 -14 371 -14 q 94 42 146 -14 q 42 197 42 97 q 92 473 42 357 q 233 649 143 589 q 443 710 324 710 q 604 651 550 710 q 656 671 638 654 q 674 724 674 688 q 667 781 674 750 l 675 799 l 783 818 q 797 778 792 800 q 801 739 801 756 m 288 69 q 442 200 394 69 q 490 500 490 331 q 473 593 490 561 q 410 625 456 625 q 289 557 335 625 q 224 391 243 489 q 206 196 206 293 q 224 101 206 133 q 288 69 242 69 z "},"ớ":{"ha":697,"x_min":42,"x_max":801,"o":"m 42 0 m 801 739 q 756 646 801 685 q 640 592 710 607 q 654 499 654 551 q 603 224 654 340 q 462 47 553 108 q 250 -14 371 -14 q 94 42 146 -14 q 42 197 42 97 q 92 473 42 357 q 233 649 143 589 q 443 710 324 710 q 604 651 550 710 q 656 671 638 654 q 674 724 674 688 q 667 781 674 750 l 675 799 l 783 818 q 797 778 792 800 q 801 739 801 756 m 288 69 q 442 200 394 69 q 490 500 490 331 q 473 593 490 561 q 410 625 456 625 q 289 557 335 625 q 224 391 243 489 q 206 196 206 293 q 224 101 206 133 q 288 69 242 69 m 326 792 l 294 832 l 510 1014 l 636 969 l 636 940 l 326 792 z "},"ợ":{"ha":697,"x_min":42,"x_max":801,"o":"m 42 0 m 801 739 q 756 646 801 685 q 640 592 710 607 q 654 499 654 551 q 603 224 654 340 q 462 47 553 108 q 250 -14 371 -14 q 94 42 146 -14 q 42 197 42 97 q 92 473 42 357 q 233 649 143 589 q 443 710 324 710 q 604 651 550 710 q 656 671 638 654 q 674 724 674 688 q 667 781 674 750 l 675 799 l 783 818 q 797 778 792 800 q 801 739 801 756 m 288 69 q 442 200 394 69 q 490 500 490 331 q 473 593 490 561 q 410 625 456 625 q 289 557 335 625 q 224 391 243 489 q 206 196 206 293 q 224 101 206 133 q 288 69 242 69 m 251 -56 q 320 -85 290 -56 q 350 -153 350 -114 q 321 -219 350 -192 q 251 -247 292 -247 q 184 -219 213 -247 q 156 -153 156 -192 q 184 -85 156 -114 q 251 -56 213 -56 z "},"ờ":{"ha":697,"x_min":42,"x_max":801,"o":"m 42 0 m 801 739 q 756 646 801 685 q 640 592 710 607 q 654 499 654 551 q 603 224 654 340 q 462 47 553 108 q 250 -14 371 -14 q 94 42 146 -14 q 42 197 42 97 q 92 473 42 357 q 233 649 143 589 q 443 710 324 710 q 604 651 550 710 q 656 671 638 654 q 674 724 674 688 q 667 781 674 750 l 675 799 l 783 818 q 797 778 792 800 q 801 739 801 756 m 288 69 q 442 200 394 69 q 490 500 490 331 q 473 593 490 561 q 410 625 456 625 q 289 557 335 625 q 224 391 243 489 q 206 196 206 293 q 224 101 206 133 q 288 69 242 69 m 546 792 l 233 940 l 236 969 l 361 1014 l 575 832 l 546 792 z "},"ở":{"ha":697,"x_min":42,"x_max":801,"o":"m 42 0 m 801 739 q 756 646 801 685 q 640 592 710 607 q 654 499 654 551 q 603 224 654 340 q 462 47 553 108 q 250 -14 371 -14 q 94 42 146 -14 q 42 197 42 97 q 92 473 42 357 q 233 649 143 589 q 443 710 324 710 q 604 651 550 710 q 656 671 638 654 q 674 724 674 688 q 667 781 674 750 l 675 799 l 783 818 q 797 778 792 800 q 801 739 801 756 m 288 69 q 442 200 394 69 q 490 500 490 331 q 473 593 490 561 q 410 625 456 625 q 289 557 335 625 q 224 391 243 489 q 206 196 206 293 q 224 101 206 133 q 288 69 242 69 m 408 763 q 408 776 407 769 q 408 783 408 782 q 422 809 410 800 q 457 828 433 818 q 492 847 481 838 q 504 871 504 856 q 460 897 504 897 q 425 894 453 897 l 407 856 l 356 856 l 361 929 q 481 942 439 942 q 569 924 538 942 q 600 875 600 907 q 544 811 600 831 q 515 801 535 807 q 483 785 494 794 q 471 763 472 776 l 408 763 z "},"ỡ":{"ha":697,"x_min":42,"x_max":801,"o":"m 42 0 m 801 739 q 756 646 801 685 q 640 592 710 607 q 654 499 654 551 q 603 224 654 340 q 462 47 553 108 q 250 -14 371 -14 q 94 42 146 -14 q 42 197 42 97 q 92 473 42 357 q 233 649 143 589 q 443 710 324 710 q 604 651 550 710 q 656 671 638 654 q 674 724 674 688 q 667 781 674 750 l 675 799 l 783 818 q 797 778 792 800 q 801 739 801 756 m 288 69 q 442 200 394 69 q 490 500 490 331 q 473 593 490 561 q 410 625 456 625 q 289 557 335 625 q 224 391 243 489 q 206 196 206 293 q 224 101 206 133 q 288 69 242 69 m 683 958 q 629 856 656 892 q 569 819 603 819 q 450 847 536 819 q 393 865 421 857 q 350 872 365 872 q 323 862 336 872 q 301 841 310 851 q 292 826 293 831 l 235 850 q 350 989 293 989 q 467 961 383 989 q 524 944 496 951 q 569 936 553 936 q 597 946 585 936 q 618 967 610 956 q 628 981 626 978 l 683 958 z "},"ő":{"ha":697,"x_min":42,"x_max":704,"o":"m 272 774 l 235 800 l 361 1021 l 481 1021 l 481 993 l 272 774 m 496 774 l 458 800 l 585 1021 l 704 1021 l 704 993 l 496 774 m 443 710 q 602 653 550 710 q 654 499 654 597 q 603 224 654 340 q 462 47 553 108 q 250 -14 371 -14 q 94 42 146 -14 q 42 197 42 97 q 92 473 42 357 q 233 649 143 589 q 443 710 324 710 m 288 69 q 442 200 394 69 q 490 500 490 331 q 473 593 490 561 q 410 625 456 625 q 289 557 335 625 q 224 391 243 489 q 206 196 206 293 q 224 101 206 133 q 288 69 242 69 z "},"ȏ":{"ha":697,"x_min":42,"x_max":654,"o":"m 42 0 m 443 710 q 602 653 550 710 q 654 499 654 597 q 603 224 654 340 q 462 47 553 108 q 250 -14 371 -14 q 94 42 146 -14 q 42 197 42 97 q 92 473 42 357 q 233 649 143 589 q 443 710 324 710 m 288 69 q 442 200 394 69 q 490 500 490 331 q 473 593 490 561 q 410 625 456 625 q 289 557 335 625 q 224 391 243 489 q 206 196 206 293 q 224 101 206 133 q 288 69 242 69 m 468 1004 q 610 882 610 1004 q 600 825 610 854 l 532 825 q 536 849 536 836 q 519 894 535 878 q 454 910 503 910 q 367 887 392 910 q 332 825 342 864 l 267 825 q 328 956 283 907 q 468 1004 374 1004 z "},"ō":{"ha":697,"x_min":42,"x_max":654,"o":"m 279 936 l 601 936 l 588 839 l 265 839 l 279 936 m 443 710 q 602 653 550 710 q 654 499 654 597 q 603 224 654 340 q 462 47 553 108 q 250 -14 371 -14 q 94 42 146 -14 q 42 197 42 97 q 92 473 42 357 q 233 649 143 589 q 443 710 324 710 m 288 69 q 442 200 394 69 q 490 500 490 331 q 473 593 490 561 q 410 625 456 625 q 289 557 335 625 q 224 391 243 489 q 206 196 206 293 q 224 101 206 133 q 288 69 242 69 z "},"ǫ":{"ha":697,"x_min":42,"x_max":654,"o":"m 411 -204 q 496 -174 453 -204 l 519 -201 q 499 -225 519 -204 q 443 -264 478 -246 q 364 -282 408 -282 q 270 -253 299 -282 q 242 -179 242 -224 q 267 -96 242 -142 q 344 -3 293 -50 q 250 -14 296 -14 q 94 42 146 -14 q 42 197 42 97 q 92 473 42 357 q 233 649 143 589 q 443 710 324 710 q 602 653 550 710 q 654 499 654 597 q 606 231 654 344 q 471 54 558 117 q 392 -44 431 18 q 354 -144 354 -107 q 411 -204 354 -204 m 206 196 q 224 101 206 133 q 288 69 242 69 q 442 200 394 69 q 490 500 490 331 q 473 593 490 561 q 410 625 456 625 q 289 557 335 625 q 224 391 243 489 q 206 196 206 293 z "},"ø":{"ha":697,"x_min":42,"x_max":654,"o":"m 188 -8 q 78 61 114 8 q 42 199 42 114 q 89 466 42 353 q 222 642 136 579 q 421 710 307 704 l 457 818 l 543 818 l 504 706 q 617 635 579 689 q 654 499 654 581 q 606 231 654 344 q 472 55 558 117 q 272 -12 386 -7 l 235 -128 l 149 -128 l 188 -8 m 392 624 q 249 480 292 611 q 206 196 206 349 q 225 110 206 135 l 392 624 m 297 69 q 446 208 400 79 q 492 500 492 336 q 467 589 492 564 l 297 69 z "},"ǿ":{"ha":697,"x_min":42,"x_max":654,"o":"m 42 0 m 188 -8 q 78 61 114 8 q 42 199 42 114 q 89 466 42 353 q 222 642 136 579 q 421 710 307 704 l 457 818 l 543 818 l 504 706 q 617 635 579 689 q 654 499 654 581 q 606 231 654 344 q 472 55 558 117 q 272 -12 386 -7 l 235 -128 l 149 -128 l 188 -8 m 392 624 q 249 480 292 611 q 206 196 206 349 q 225 110 206 135 l 392 624 m 297 69 q 446 208 400 79 q 492 500 492 336 q 467 589 492 564 l 297 69 m 325 792 l 293 832 l 508 1014 l 635 969 l 635 940 l 325 792 z "},"õ":{"ha":697,"x_min":42,"x_max":656,"o":"m 656 958 q 601 856 628 892 q 542 819 575 819 q 422 847 508 819 q 365 865 393 857 q 322 872 338 872 q 295 862 308 872 q 274 841 282 851 q 264 826 265 831 l 207 850 q 322 989 265 989 q 439 961 356 989 q 497 944 468 951 q 542 936 525 936 q 569 946 557 936 q 590 967 582 956 q 600 981 599 978 l 656 958 m 443 710 q 602 653 550 710 q 654 499 654 597 q 603 224 654 340 q 462 47 553 108 q 250 -14 371 -14 q 94 42 146 -14 q 42 197 42 97 q 92 473 42 357 q 233 649 143 589 q 443 710 324 710 m 288 69 q 442 200 394 69 q 490 500 490 331 q 473 593 490 561 q 410 625 456 625 q 289 557 335 625 q 224 391 243 489 q 206 196 206 293 q 224 101 206 133 q 288 69 242 69 z "},"œ":{"ha":1017,"x_min":42,"x_max":1033,"o":"m 250 -14 q 94 42 146 -14 q 42 197 42 97 q 92 473 42 357 q 233 649 143 589 q 443 710 324 710 q 625 615 576 710 q 867 710 724 710 q 988 675 942 710 q 1033 574 1033 640 q 931 393 1033 458 q 639 328 829 328 q 632 232 632 281 q 663 116 632 151 q 771 81 693 81 q 903 106 836 81 l 917 46 q 693 -14 819 -14 q 504 83 558 -14 q 250 -14 399 -14 m 288 69 q 442 200 394 69 q 490 500 490 331 q 473 593 490 561 q 410 625 456 625 q 289 557 335 625 q 224 391 243 489 q 206 196 206 293 q 224 101 206 133 q 288 69 242 69 m 650 393 q 825 437 760 393 q 890 558 890 481 q 831 624 890 624 q 717 563 764 624 q 650 393 671 503 z "},"p":{"ha":757,"x_min":17,"x_max":711,"o":"m 181 601 l 78 613 l 67 661 q 197 697 125 682 q 310 711 269 711 q 336 702 326 711 q 346 678 346 693 q 340 631 346 664 q 331 579 335 597 q 556 711 440 711 q 711 519 711 711 q 671 258 711 378 q 545 65 631 139 q 331 -8 460 -8 q 228 4 269 -8 l 190 -239 l 17 -261 l 181 601 m 336 76 q 501 208 453 76 q 549 499 549 339 q 534 577 549 547 q 488 607 519 607 q 399 568 450 607 q 314 483 347 529 l 246 103 q 284 83 260 90 q 336 76 308 76 z "},"þ":{"ha":728,"x_min":6,"x_max":685,"o":"m 213 908 l 110 919 l 99 968 q 228 1005 160 990 q 340 1019 297 1019 q 364 1010 356 1019 q 372 986 372 1000 q 364 932 372 976 l 358 900 q 319 675 350 858 l 304 586 q 409 676 353 642 q 521 711 465 711 q 641 666 597 711 q 685 518 685 621 q 645 264 685 383 q 517 68 606 144 q 290 -8 429 -8 q 210 -1 249 -8 q 174 -239 197 -97 l 6 -262 l 213 908 m 317 76 q 432 142 386 76 q 499 305 478 207 q 521 503 521 403 q 505 583 521 560 q 458 607 489 607 q 376 569 428 607 q 288 486 325 531 l 226 100 q 266 83 242 90 q 317 76 290 76 z "},"q":{"ha":708,"x_min":42,"x_max":689,"o":"m 689 721 q 608 311 663 592 q 529 -97 554 31 l 513 -242 l 344 -262 l 415 110 q 197 -12 322 -12 q 87 31 132 -12 q 42 182 42 75 q 90 463 42 344 q 224 646 138 582 q 422 710 310 710 q 501 703 468 710 q 569 686 535 697 l 617 732 l 689 721 m 435 217 q 483 454 435 217 l 511 597 q 474 618 500 608 q 421 628 449 628 q 258 496 308 628 q 207 192 207 364 q 222 115 207 138 q 269 92 238 92 q 356 131 306 92 q 435 217 407 169 z "},"r":{"ha":561,"x_min":64,"x_max":614,"o":"m 185 596 l 83 608 l 74 657 q 205 693 133 678 q 315 708 276 708 q 340 699 332 708 q 349 672 349 689 q 336 596 349 658 l 321 517 q 442 669 376 622 q 614 717 508 717 l 569 482 l 493 482 l 476 593 q 286 319 385 551 l 235 7 l 64 -14 l 185 596 z "},"ŕ":{"ha":561,"x_min":64,"x_max":614,"o":"m 304 792 l 271 832 l 488 1014 l 614 969 l 614 940 l 304 792 m 185 596 l 83 608 l 74 657 q 205 693 133 678 q 315 708 276 708 q 340 699 332 708 q 349 672 349 689 q 336 596 349 658 l 321 517 q 442 669 376 622 q 614 717 508 717 l 569 482 l 493 482 l 476 593 q 286 319 385 551 l 235 7 l 64 -14 l 185 596 z "},"ř":{"ha":561,"x_min":64,"x_max":614,"o":"m 339 789 l 232 988 l 282 1018 l 408 904 l 576 1018 l 614 979 l 444 789 l 339 789 m 185 596 l 83 608 l 74 657 q 205 693 133 678 q 315 708 276 708 q 340 699 332 708 q 349 672 349 689 q 336 596 349 658 l 321 517 q 442 669 376 622 q 614 717 508 717 l 569 482 l 493 482 l 476 593 q 286 319 385 551 l 235 7 l 64 -14 l 185 596 z "},"ŗ":{"ha":561,"x_min":18,"x_max":614,"o":"m 185 596 l 83 608 l 74 657 q 205 693 133 678 q 315 708 276 708 q 340 699 332 708 q 349 672 349 689 q 336 596 349 658 l 321 517 q 442 669 376 622 q 614 717 508 717 l 569 482 l 493 482 l 476 593 q 286 319 385 551 l 235 7 l 64 -14 l 185 596 m 67 -321 l 18 -307 l 68 -62 l 188 -36 l 214 -67 l 67 -321 z "}}}
